<svg width="48" height="32" viewBox="0 0 48 32" fill="none" xmlns="http://www.w3.org/2000/svg">
<path d="M33.9755 12.8963H41.1864C41.4295 12.8963 41.7536 12.7351 41.9156 12.4933C42.0777 12.2515 42.0777 11.929 41.9156 11.6872L39.7281 7.4958C39.566 7.25398 39.3229 7.09277 38.9989 7.09277H33.9755C33.4894 7.09277 33.1653 7.41519 33.1653 7.89882V12.0903C33.1653 12.4933 33.4894 12.8963 33.9755 12.8963ZM34.7857 8.70486H38.5127L39.8091 11.2842H34.7857V8.70486Z" fill="url(#paint0_linear)"/>
<path d="M47.9924 23.6977C47.9924 22.005 46.9391 20.6348 45.6428 20.5542V14.8312C45.6428 13.3804 45.2377 11.9295 44.5895 10.6398L41.3486 4.75567C41.1866 4.51385 40.9435 4.35264 40.6194 4.35264H33.3275V0.806045C33.3275 0.564232 33.2464 0.322418 33.0034 0.161209C32.9224 0 32.5983 0 32.4362 0L25.4683 1.53149C25.3063 1.53149 25.1443 1.6927 25.0632 1.7733L23.6048 3.5466L19.2297 1.8539C15.4216 0.403023 11.2085 1.61209 8.77784 4.75567L7.40047 6.52897H1.80996C1.56689 6.52897 1.32382 6.69018 1.16178 6.85139C0.999737 7.1738 0.918715 7.41562 1.08076 7.65743L6.18514 21.0378C5.45594 21.602 4.96981 22.5693 4.96981 23.6977C4.96981 25.471 6.02309 26.8413 7.40047 26.8413H7.8866C7.80558 27.0831 7.80557 27.3249 7.80557 27.6474C7.80557 30.0655 9.7501 32 12.1808 32C13.6392 32 14.9355 31.2746 15.7457 30.1461C16.5559 31.2746 17.8523 32 19.3107 32C21.7413 32 23.6859 30.0655 23.6859 27.6474C23.6859 27.4055 23.6859 27.0831 23.6048 26.8413H25.0632V28.6146C25.0632 29.0982 25.3873 29.4207 25.8735 29.4207H31.8691C32.3552 29.4207 32.6793 29.0982 32.6793 28.6146V26.8413H33.8136C33.7326 27.0831 33.7326 27.3249 33.7326 27.6474C33.7326 30.0655 35.6771 32 38.1078 32C40.5384 32 42.4829 30.0655 42.4829 27.6474C42.4829 27.4055 42.4829 27.0831 42.4019 26.8413H45.5618C46.9391 26.8413 47.9924 25.471 47.9924 23.6977ZM40.1333 5.96474L43.1311 11.4458C43.6983 12.4937 44.0224 13.7028 44.0224 14.9118V20.6348H31.3019V5.96474H40.1333ZM10.0742 5.72292C12.0187 3.14358 15.4216 2.17632 18.4194 3.30479L22.3895 4.83627L20.9311 6.52897H9.42601L10.0742 5.72292ZM3.02528 8.14106H21.2552C21.4983 8.14106 21.7413 8.06045 21.9034 7.81864L26.0355 2.98237L31.7881 1.7733V4.27204H30.5727C30.0866 4.27204 29.7625 4.59446 29.7625 5.07809V20.5542H7.72455L3.02528 8.14106ZM12.2618 30.3879C10.7224 30.3879 9.50704 29.1788 9.50704 27.6474C9.50704 26.1159 10.7224 24.9068 12.2618 24.9068C13.8012 24.9068 15.0165 26.1159 15.0165 27.6474C15.0165 29.1788 13.8012 30.3879 12.2618 30.3879ZM19.3917 30.3879C17.8523 30.3879 16.637 29.1788 16.637 27.6474C16.637 26.1159 17.8523 24.9068 19.3917 24.9068C20.9311 24.9068 22.1465 26.1159 22.1465 27.6474C22.1465 29.1788 20.9311 30.3879 19.3917 30.3879ZM38.1888 30.3879C36.6494 30.3879 35.434 29.1788 35.434 27.6474C35.434 26.1159 36.6494 24.9068 38.1888 24.9068C39.7282 24.9068 40.9435 26.1159 40.9435 27.6474C40.9435 29.1788 39.6472 30.3879 38.1888 30.3879ZM41.8348 25.2292C41.0246 24.0202 39.7282 23.2947 38.1888 23.2947C36.6494 23.2947 35.353 24.1008 34.5428 25.2292H31.9501C31.464 25.2292 31.1399 25.5516 31.1399 26.0353V27.8086H26.7647V26.0353C26.7647 25.5516 26.4406 25.2292 25.9545 25.2292H23.0377C22.2275 24.0202 20.9311 23.2947 19.3917 23.2947C17.9333 23.2947 16.637 24.0202 15.8267 25.1486C15.0165 24.0202 13.7202 23.2947 12.2618 23.2947C10.7224 23.2947 9.42601 24.1008 8.61579 25.2292H7.40047C6.99536 25.2292 6.59025 24.5844 6.59025 23.6977C6.59025 22.8111 7.07638 22.1662 7.40047 22.1662H45.4808C45.8859 22.1662 46.291 22.8111 46.291 23.6977C46.291 24.5844 45.8048 25.2292 45.4808 25.2292H41.8348Z" fill="url(#paint1_linear)"/>
<path d="M27.1672 18.9418C27.6533 18.9418 27.9774 18.6194 27.9774 18.1358V10.559C27.9774 10.0753 27.6533 9.75293 27.1672 9.75293C26.681 9.75293 26.3569 10.0753 26.3569 10.559V18.1358C26.3569 18.6194 26.681 18.9418 27.1672 18.9418Z" fill="url(#paint2_linear)"/>
<path d="M24.2492 18.9425C24.7353 18.9425 25.0594 18.5394 25.0594 18.0558L24.5733 10.479C24.5733 9.99537 24.1682 9.67295 23.682 9.75356C23.1959 9.75356 22.8718 10.1566 22.9528 10.6402L23.439 18.217C23.439 18.6201 23.8441 18.9425 24.2492 18.9425Z" fill="url(#paint3_linear)"/>
<path d="M21.334 18.9418H21.4151C21.8202 18.8612 22.1443 18.4582 22.1443 18.0552L21.253 10.4784C21.172 10.0753 20.7669 9.75293 20.3618 9.75293C19.9567 9.83353 19.6326 10.2366 19.6326 10.6396L20.5238 18.2164C20.6048 18.6194 20.9289 18.9418 21.334 18.9418Z" fill="url(#paint4_linear)"/>
<path d="M18.4159 18.9426C18.4969 18.9426 18.4969 18.9426 18.578 18.9426C18.9831 18.862 19.3071 18.4589 19.2261 17.9753L17.8488 10.3985C17.7677 9.99546 17.3626 9.67304 16.8765 9.75365C16.4714 9.83425 16.1473 10.2373 16.2283 10.7209L17.6057 18.2977C17.6867 18.7007 18.0918 18.9426 18.4159 18.9426Z" fill="url(#paint5_linear)"/>
<path d="M14.7731 18.2979C14.8541 18.7009 15.1782 18.9427 15.5833 18.9427C15.6643 18.9427 15.7454 18.9427 15.7454 18.9427C16.1505 18.8621 16.4746 18.3785 16.3125 17.9754L14.53 10.3986C14.449 9.9956 13.9629 9.67318 13.5578 9.83439C13.1527 9.91499 12.8286 10.3986 12.9906 10.8016L14.7731 18.2979Z" fill="url(#paint6_linear)"/>
<path d="M11.854 18.3779C11.935 18.7003 12.2591 18.9421 12.6642 18.9421C12.7452 18.9421 12.8263 18.9421 12.9073 18.9421C13.3124 18.7809 13.5555 18.3779 13.4744 17.9749L11.2058 10.398C11.0438 9.99501 10.6387 9.7532 10.2336 9.8338C9.82845 9.99501 9.58538 10.398 9.6664 10.8011L11.854 18.3779Z" fill="url(#paint7_linear)"/>
<path d="M9.75198 18.9425C9.83301 18.9425 9.91403 18.9425 9.99505 18.8619C10.4002 18.7007 10.6432 18.2171 10.4812 17.8141L7.80746 10.2372C7.64541 9.83422 7.15928 9.59241 6.75417 9.75362C6.34906 9.91483 6.106 10.3985 6.26804 10.8015L8.94176 18.3783C9.10381 18.7813 9.4279 18.9425 9.75198 18.9425Z" fill="url(#paint8_linear)"/>
<path d="M36.3247 15.3145H34.1371C33.651 15.3145 33.3269 15.6369 33.3269 16.1205C33.3269 16.6041 33.651 16.9265 34.1371 16.9265H36.3247C36.8108 16.9265 37.1349 16.6041 37.1349 16.1205C37.1349 15.7175 36.8108 15.3145 36.3247 15.3145Z" fill="url(#paint9_linear)"/>
<defs>
<linearGradient id="paint0_linear" x1="33.1653" y1="9.99454" x2="42.3092" y2="9.99454" gradientUnits="userSpaceOnUse">
<stop stop-color="#4FB8A3"/>
<stop offset="0.515625" stop-color="#49D29D"/>
<stop offset="1" stop-color="#5BD276"/>
</linearGradient>
<linearGradient id="paint1_linear" x1="0.992432" y1="16" x2="49.4335" y2="16" gradientUnits="userSpaceOnUse">
<stop stop-color="#4FB8A3"/>
<stop offset="0.515625" stop-color="#49D29D"/>
<stop offset="1" stop-color="#5BD276"/>
</linearGradient>
<linearGradient id="paint2_linear" x1="26.3569" y1="14.3474" x2="28.0271" y2="14.3474" gradientUnits="userSpaceOnUse">
<stop stop-color="#4FB8A3"/>
<stop offset="0.515625" stop-color="#49D29D"/>
<stop offset="1" stop-color="#5BD276"/>
</linearGradient>
<linearGradient id="paint3_linear" x1="22.9404" y1="14.3418" x2="25.1244" y2="14.3418" gradientUnits="userSpaceOnUse">
<stop stop-color="#4FB8A3"/>
<stop offset="0.515625" stop-color="#49D29D"/>
<stop offset="1" stop-color="#5BD276"/>
</linearGradient>
<linearGradient id="paint4_linear" x1="19.6326" y1="14.3474" x2="22.2213" y2="14.3474" gradientUnits="userSpaceOnUse">
<stop stop-color="#4FB8A3"/>
<stop offset="0.515625" stop-color="#49D29D"/>
<stop offset="1" stop-color="#5BD276"/>
</linearGradient>
<linearGradient id="paint5_linear" x1="16.2158" y1="14.3419" x2="19.3313" y2="14.3419" gradientUnits="userSpaceOnUse">
<stop stop-color="#4FB8A3"/>
<stop offset="0.515625" stop-color="#49D29D"/>
<stop offset="1" stop-color="#5BD276"/>
</linearGradient>
<linearGradient id="paint6_linear" x1="12.948" y1="14.3673" x2="16.4596" y2="14.3673" gradientUnits="userSpaceOnUse">
<stop stop-color="#4FB8A3"/>
<stop offset="0.515625" stop-color="#49D29D"/>
<stop offset="1" stop-color="#5BD276"/>
</linearGradient>
<linearGradient id="paint7_linear" x1="9.65088" y1="14.3802" x2="13.6077" y2="14.3802" gradientUnits="userSpaceOnUse">
<stop stop-color="#4FB8A3"/>
<stop offset="0.515625" stop-color="#49D29D"/>
<stop offset="1" stop-color="#5BD276"/>
</linearGradient>
<linearGradient id="paint8_linear" x1="6.21729" y1="14.3228" x2="10.6642" y2="14.3228" gradientUnits="userSpaceOnUse">
<stop stop-color="#4FB8A3"/>
<stop offset="0.515625" stop-color="#49D29D"/>
<stop offset="1" stop-color="#5BD276"/>
</linearGradient>
<linearGradient id="paint9_linear" x1="33.3269" y1="16.1205" x2="37.2517" y2="16.1205" gradientUnits="userSpaceOnUse">
<stop stop-color="#4FB8A3"/>
<stop offset="0.515625" stop-color="#49D29D"/>
<stop offset="1" stop-color="#5BD276"/>
</linearGradient>
</defs>
</svg>
