<svg width="32" height="32" viewBox="0 0 32 32" fill="none" xmlns="http://www.w3.org/2000/svg">
<path d="M23.8889 15.9448C23 15.9448 22.1111 16.1103 21.3333 16.3862C19.8889 16.8828 18.6111 17.7655 17.6667 18.9241C17.2778 18.8138 16.9444 18.7034 16.5556 18.6483L16 17.1586C16.8333 16.2759 17.4444 15.1172 17.7778 13.7931C19 13.5172 19.8889 12.4138 19.8889 11.0897C19.8889 10.3172 19.5556 9.71034 19 9.32414C19.1667 9.04828 19.2778 8.71724 19.2778 8.38621C19.2778 7.61379 18.7222 6.95172 17.9444 6.84138C17.9444 6.12414 17.9444 6.12414 17.9444 6.12414C17.9444 4.52414 16.9444 3.08966 15.4444 2.15172L15.6111 1.71034C15.7222 1.43448 15.6111 1.15862 15.3333 0.993103C14.2222 0.331034 12.8333 0 11.4444 0C10.0556 0 8.66667 0.331034 7.5 0.882759C7.22222 1.04828 7.11111 1.32414 7.22222 1.6L7.38889 2.04138C5.83333 2.97931 4.83333 4.41379 4.83333 6.01379V6.73103C4.11111 6.89655 3.55556 7.50345 3.55556 8.33103C3.55556 8.71724 3.72222 9.10345 3.94444 9.37931C3.61111 9.65517 3.27778 10.2069 3.27778 10.9793C3.27778 12.3034 4.16667 13.4069 5.33333 13.6828C5.66667 15.0069 6.27778 16.2207 7.11111 17.1034L6.55556 18.8138C4.72222 19.4759 3.11111 20.1931 2.61111 20.469H2.55556C2.5 20.469 2.5 20.5241 2.44444 20.5241C2.11111 20.6345 0 21.6276 0 24.1103V30.8966C0 31.1724 0.166667 31.4483 0.388889 31.6138C0.611111 31.8897 0.833333 32 1.11111 32H9.22222C9.27778 32 9.27778 32 9.33333 32H21.1111H23.8889H24.2778C24.3889 32 24.5 32 24.5556 31.9448C26.7222 31.7793 28.6667 30.7862 30.0556 29.131C30.2222 28.9103 30.3889 28.6897 30.5556 28.469C31.2778 27.3655 31.7778 26.0966 31.8889 24.7724C31.8889 24.4966 31.9444 24.2759 31.9444 24C32 19.5862 28.3333 15.9448 23.8889 15.9448ZM18.1667 8.38621C18.1667 8.66207 17.9444 8.88276 17.6667 8.88276H14.2222C14.2222 8.71724 14.2778 8.6069 14.2778 8.44138C14.2778 8.22069 14.2778 8.05517 14.2222 7.83448H17.6667C17.9444 7.83448 18.1667 8.05517 18.1667 8.38621ZM16.8889 6.01379C16.8889 6.06897 16.8889 6.34483 16.8889 6.73103H13.7778C13.7222 6.67586 13.7222 6.67586 13.6667 6.62069L15.0556 3.08966C16.1667 3.8069 16.8889 4.85517 16.8889 6.01379ZM14.4444 1.65517L12.7778 5.84828C12.3889 5.62759 11.9444 5.51724 11.4444 5.51724C10.9444 5.51724 10.5 5.62759 10.1111 5.84828L8.44444 1.65517C10.2222 0.937931 12.6111 0.937931 14.4444 1.65517ZM13.2222 8.38621C13.2222 9.37931 12.4444 10.1517 11.4444 10.1517C10.4444 10.1517 9.66667 9.37931 9.66667 8.38621C9.66667 7.3931 10.4444 6.62069 11.4444 6.62069C12.4444 6.62069 13.2222 7.44828 13.2222 8.38621ZM5.94444 6.01379C5.94444 4.85517 6.66667 3.8069 7.77778 3.08966L9.16667 6.62069C9.11111 6.67586 9.11111 6.67586 9.05556 6.73103H5.94444V6.01379ZM5.16667 7.83448H8.61111C8.55556 8 8.55556 8.22069 8.55556 8.44138C8.55556 8.6069 8.55556 8.71724 8.61111 8.88276H5.16667C4.88889 8.88276 4.66667 8.66207 4.66667 8.33103C4.66667 8.05517 4.88889 7.83448 5.16667 7.83448ZM6.38889 13.131C6.33333 12.9103 6.11111 12.6897 5.83333 12.6897C5 12.6345 4.33333 11.8621 4.33333 10.9793C4.33333 10.4276 4.55556 10.2069 4.72222 10.0966C4.83333 10.0414 4.94444 9.98621 5.11111 9.93103H8.94444C9.44444 10.7034 10.3333 11.2552 11.3889 11.2552C12.3889 11.2552 13.2778 10.7034 13.8333 9.93103H17.6667C17.7222 9.93103 17.7778 9.93103 17.8333 9.93103C18.7222 10.1517 18.7222 10.7586 18.7222 11.0345C18.7222 11.9172 18.0556 12.6345 17.2222 12.7448C16.9444 12.7448 16.7778 12.9655 16.7222 13.1862C16.1667 16.0552 14 18.1517 11.5 18.1517C9.11111 18.0966 6.88889 16 6.38889 13.131ZM15.5556 19.0897L14.8333 19.6966C12.9444 21.2414 10.2222 21.2414 8.27778 19.7517L7.61111 19.2552L8.05556 17.9862C9.05556 18.7586 10.2778 19.2 11.5556 19.2C12.8889 19.2 14.1111 18.7586 15.1111 17.931L15.5556 19.0897ZM9.83333 26.0966H9.33333C9 26.0966 8.77778 26.3172 8.77778 26.6483V30.8966H5.05556V27.2C5.05556 26.869 4.83333 26.6483 4.5 26.6483C4.16667 26.6483 3.94444 26.869 3.94444 27.2V30.8966H1.11111V24.2207C1.11111 23.669 1.27778 23.2276 1.5 22.8414L3.44444 24.7724C3.55556 24.8828 3.72222 24.9379 3.83333 24.9379C4 24.9379 4.11111 24.8828 4.22222 24.7724C4.44444 24.5517 4.44444 24.2207 4.22222 24L2.22222 22.0138C2.38889 21.8483 2.55556 21.7931 2.72222 21.7379L4.83333 23.8345C4.94444 23.9448 5.11111 24 5.22222 24C5.38889 24 5.5 23.9448 5.61111 23.8345C5.83333 23.6138 5.83333 23.2828 5.61111 23.0621L3.77778 21.2414C4.44444 20.8552 5.55556 20.4138 6.77778 19.9724L7.61111 20.6345C8.77778 21.5172 10.1667 21.9586 11.5556 21.9586C12.9444 21.9586 14.3889 21.4621 15.5556 20.5241L16.5556 19.6966C16.7222 19.7517 16.8889 19.7517 17 19.8069C16.2778 20.9655 15.8889 22.3448 15.8333 23.7793C15.8333 23.8345 15.8333 23.8897 15.8333 23.9448C15.8333 24.6621 15.9444 25.3793 16.1111 26.0414H14.9444V23.7241C14.9444 23.3931 14.7222 23.1724 14.3889 23.1724C14.0556 23.1724 13.8333 23.3931 13.8333 23.7241V26.0966H13.0556V24.6069C13.0556 23.7241 12.3333 23.0069 11.3889 23.0069C10.5 23.0069 9.77778 23.7241 9.77778 24.6069V26.0966H9.83333ZM12 24.6069V26.0966H10.9444V24.6069C10.9444 24.331 11.1667 24.1103 11.5 24.1103C11.7778 24.0552 12 24.331 12 24.6069ZM9.88889 30.8966V27.2H16.5C16.7222 27.7517 17.0556 28.3034 17.4444 28.8C18.1111 29.6828 18.9444 30.4 19.8889 30.9517H9.88889V30.8966ZM30.8333 24.6621C30.7222 25.8207 30.3333 26.9241 29.6667 27.8621C29.5556 28.0276 29.3889 28.2483 29.2222 28.4138C27.8889 30.0138 25.9444 30.8966 23.8889 30.8966C21.7222 30.8966 19.6111 29.8483 18.2778 28.0828C17.3889 26.869 16.8889 25.4897 16.8889 23.9448H16.3333L16.8889 23.8897C16.9444 20.9655 18.8333 18.3724 21.6111 17.4345C22.3333 17.2138 23.0556 17.0483 23.8333 17.0483C27.6667 17.0483 30.7778 20.1379 30.7778 23.9448C30.8889 24.2207 30.8333 24.4414 30.8333 24.6621Z" fill="url(#paint0_linear)"/>
<path d="M26.7439 23.5601L26.7392 23.8337L27.0037 23.9041C27.047 23.9157 27.0832 23.9358 27.111 23.9599L27.0348 28.3966L22.6182 28.3228L22.6293 27.6758C22.6339 27.405 22.4595 27.1494 22.1774 27.0603L22.0814 27.0267C22.054 27.0149 22.0297 27.0073 22.0121 27.0024C21.99 26.9962 21.9687 26.9916 21.9577 26.9892L21.9557 26.9888C21.9537 26.9884 21.9519 26.988 21.9504 26.9877L21.9325 26.9812C21.5387 26.8383 21.2214 26.5386 21.0612 26.1362L21.0613 26.1323L21.0477 26.0833L20.4359 23.8831L20.4238 23.8398L20.4013 23.8011C20.3421 23.6991 20.3362 23.5864 20.3861 23.4822L20.3941 23.4655L20.4002 23.4481C20.4408 23.3337 20.5261 23.2508 20.6747 23.2043L20.5704 22.8703L20.6747 23.2043C20.8543 23.1482 21.0577 23.2198 21.177 23.4171L21.6239 24.4237L21.7145 24.6278L21.9378 24.6315L21.9575 24.6318C22.0231 24.6329 22.096 24.6169 22.1631 24.574C22.2281 24.5325 22.2678 24.4787 22.2907 24.435C22.313 24.3926 22.3227 24.3542 22.3273 24.3294C22.3297 24.3162 22.3312 24.3043 22.3321 24.2944L22.333 24.2805L22.3333 24.2743L22.3334 24.2713L22.3334 24.2699L22.3334 24.2692L22.3334 24.2689C22.3334 24.2687 22.3334 24.2685 21.9862 24.2627L22.3334 24.2685L22.4026 20.2416C22.4049 20.1092 22.4608 19.99 22.5657 19.9006C22.6542 19.825 22.7762 19.79 22.9127 19.811C22.9455 19.8216 22.9881 19.8423 23.0644 19.8818L23.5657 20.1414L23.5754 19.5768L23.5761 19.5377C23.578 19.4244 23.6281 19.314 23.6967 19.2564L23.7146 19.2414L23.7303 19.2242C23.7936 19.1547 23.8899 19.1109 24.0207 19.113C24.251 19.1169 24.4445 19.3096 24.4513 19.53L24.4702 20.1454L24.9893 19.8141C25.0483 19.7765 25.1186 19.7571 25.1907 19.7583C25.2925 19.76 25.4007 19.8016 25.4928 19.8963C25.5816 19.9875 25.6223 20.094 25.6202 20.2171L25.6131 20.6277L25.6019 21.2791L26.1513 20.9285C26.2102 20.8909 26.2806 20.8715 26.3527 20.8727C26.453 20.8744 26.5507 20.9182 26.6716 21.0269C26.7414 21.0897 26.7847 21.1842 26.7825 21.312L26.7439 23.5601Z" stroke="url(#paint1_linear)" stroke-width="0.7"/>
<path d="M23.4452 25.0689L24.0457 24.4923C24.1258 24.4154 24.1278 24.2981 24.0504 24.2186C23.973 24.1391 23.855 24.1371 23.7749 24.214L23.1744 24.7906C23.0944 24.8675 23.0924 24.9848 23.1697 25.0643C23.2084 25.1041 23.2671 25.1246 23.3065 25.1253C23.3462 25.1064 23.4056 25.0878 23.4452 25.0689Z" fill="url(#paint2_linear)"/>
<path d="M24.7238 25.1484L24.1233 25.725C24.0432 25.8018 24.0412 25.9191 24.1186 25.9986C24.1573 26.0384 24.216 26.0589 24.2553 26.0596C24.3144 26.0606 24.3541 26.0417 24.3941 26.0032L24.9946 25.4266C25.0746 25.3498 25.0766 25.2325 24.9993 25.153C24.9216 25.093 24.8038 25.0715 24.7238 25.1484Z" fill="url(#paint3_linear)"/>
<path d="M24.9149 24.3301C24.8375 24.2506 24.7194 24.2486 24.6393 24.3255L23.2589 25.6126C23.1789 25.6895 23.1769 25.8067 23.2542 25.8863C23.2929 25.926 23.3516 25.9465 23.391 25.9472C23.45 25.9482 23.4897 25.9293 23.5298 25.8909L24.9102 24.6038C24.9902 24.5269 24.9922 24.4096 24.9149 24.3301Z" fill="url(#paint4_linear)"/>
<defs>
<linearGradient id="paint0_linear" x1="2.38009e-07" y1="16" x2="32.9245" y2="16" gradientUnits="userSpaceOnUse">
<stop stop-color="#4FB8A3"/>
<stop offset="0.515625" stop-color="#49D29D"/>
<stop offset="1" stop-color="#5BD276"/>
</linearGradient>
<linearGradient id="paint1_linear" x1="20.0017" y1="23.6625" x2="27.6928" y2="23.7946" gradientUnits="userSpaceOnUse">
<stop stop-color="#4FB8A3"/>
<stop offset="0.515625" stop-color="#49D29D"/>
<stop offset="1" stop-color="#5BD276"/>
</linearGradient>
<linearGradient id="paint2_linear" x1="23.1181" y1="24.6333" x2="24.1322" y2="24.6507" gradientUnits="userSpaceOnUse">
<stop stop-color="#4FB8A3"/>
<stop offset="0.515625" stop-color="#49D29D"/>
<stop offset="1" stop-color="#5BD276"/>
</linearGradient>
<linearGradient id="paint3_linear" x1="24.0669" y1="25.5711" x2="25.081" y2="25.5885" gradientUnits="userSpaceOnUse">
<stop stop-color="#4FB8A3"/>
<stop offset="0.515625" stop-color="#49D29D"/>
<stop offset="1" stop-color="#5BD276"/>
</linearGradient>
<linearGradient id="paint4_linear" x1="23.2088" y1="25.0935" x2="25.014" y2="25.1245" gradientUnits="userSpaceOnUse">
<stop stop-color="#4FB8A3"/>
<stop offset="0.515625" stop-color="#49D29D"/>
<stop offset="1" stop-color="#5BD276"/>
</linearGradient>
</defs>
</svg>
