<svg width="33" height="32" viewBox="0 0 33 32" fill="none" xmlns="http://www.w3.org/2000/svg">
<path d="M0.577919 32H31.4248C31.7707 32 32.0013 31.7793 32.0013 31.4483V29.0207C32.0013 28.6897 31.7707 28.469 31.4248 28.469H29.695V27.0897H31.4248C31.7707 27.0897 32.0013 26.869 32.0013 26.5379V24.1103C32.0013 23.7793 31.7707 23.5586 31.4248 23.5586H24.4482L17.8752 18.7586C17.9905 18.5379 17.9905 18.3172 18.0482 18.0966C18.6824 17.7103 19.2013 17.2138 19.5473 16.5517C20.3545 15.1172 19.9509 13.2966 18.6248 12.0828C18.0482 11.531 17.414 10.7586 17.0104 9.54483C17.2986 9.43448 17.5869 9.21379 17.8176 8.9931L21.0464 5.7931C21.7383 5.13103 21.9113 4.13793 21.5076 3.31034C21.104 2.37241 20.1239 1.82069 19.0284 1.82069H16.5491V0.551724C16.5491 0.22069 16.3185 0 15.9725 0C15.6266 0 15.3959 0.22069 15.3959 0.551724V1.76552H13.032C11.9365 1.76552 10.9563 2.37241 10.5527 3.25517C10.1491 4.08276 10.3797 5.07586 11.014 5.73793L14.0122 8.77241L14.1851 8.9931C14.5887 9.43448 15.1653 9.65517 15.7419 9.71035C16.2608 11.3103 17.1257 12.3034 17.7022 12.8552C18.6248 13.7379 18.9131 15.0069 18.3941 16.0552C18.1635 16.4414 17.9329 16.7724 17.5869 16.9931C17.241 16.4966 16.6067 16.1655 15.9149 16.1655C15.223 16.1655 14.5887 16.5517 14.2428 17.0483C13.5509 16.4414 13.2626 15.4483 13.2626 14.4552C13.2626 14.1793 13.0896 13.9586 12.8013 13.9034C12.7437 13.9034 12.7437 13.9034 12.686 13.9034C12.3401 13.9034 12.1095 14.1241 12.1095 14.4552C12.1095 16.1655 12.8013 17.5448 14.0122 18.2069C14.0122 18.4276 14.0698 18.5931 14.1275 18.8138L7.5545 23.5586H0.577919C0.231973 23.5586 0.00134277 23.7793 0.00134277 24.1103V26.5379C0.00134277 26.869 0.231973 27.0897 0.577919 27.0897H2.30765V28.469H0.577919C0.231973 28.469 0.00134277 28.6897 0.00134277 29.0207V31.4483C0.00134277 31.7793 0.231973 32 0.577919 32ZM15.05 8.22069L11.8788 4.96552C11.5329 4.57931 11.4176 4.13793 11.5905 3.69655C11.7635 3.31034 12.2248 2.86897 13.032 2.86897H19.0284C19.7779 2.86897 20.2968 3.31034 20.4698 3.69655C20.6428 4.13793 20.5275 4.63448 20.1815 4.96552L16.9527 8.16552C16.4338 8.71724 15.5689 8.71724 15.05 8.22069ZM16.0302 17.2138C16.4914 17.2138 16.895 17.6 16.895 18.0414C16.895 18.4828 16.4914 18.869 16.0302 18.869C15.5689 18.869 15.1653 18.4828 15.1653 18.0414C15.1653 17.6 15.5689 17.2138 16.0302 17.2138ZM14.877 19.6414C15.223 19.8621 15.5689 19.9724 15.9725 19.9724C16.3761 19.9724 16.7797 19.8621 17.068 19.6414L22.4878 23.5034H9.51486L14.877 19.6414ZM1.1545 25.9862V24.6621H30.8482V25.9862H1.1545ZM28.5419 27.0897V28.4138H3.4608V27.0897H28.5419ZM1.1545 29.5724H30.8482V30.8966H1.1545V29.5724Z" fill="url(#paint0_linear)"/>
<defs>
<linearGradient id="paint0_linear" x1="0.00134301" y1="16" x2="32.9825" y2="16" gradientUnits="userSpaceOnUse">
<stop stop-color="#4FB8A3"/>
<stop offset="0.515625" stop-color="#49D29D"/>
<stop offset="1" stop-color="#5BD276"/>
</linearGradient>
</defs>
</svg>
