<svg width="152" height="152" viewBox="0 0 152 152" fill="none" xmlns="http://www.w3.org/2000/svg">
<g opacity="0.1">
<g clip-path="url(#clip0)">
<path d="M126.665 109.531L120.213 105.666C118.246 104.49 115.996 103.869 113.704 103.867H103.994C102.006 103.864 100.027 104.12 98.1043 104.627L68.8472 112.48C65.6484 113.364 63.0792 115.746 61.9585 118.869L36.2244 104.947C34.1376 103.76 31.6946 103.356 29.3369 103.809C28.4475 103.966 27.5853 104.25 26.7751 104.65C24.9456 105.526 23.4279 106.941 22.4234 108.704C21.5452 110.239 21.0838 111.977 21.0838 113.745C21.0566 117.354 22.9689 120.699 26.0911 122.507L72.2131 150.103C74.217 151.344 76.5252 152.001 78.8816 152.001H114.576C116.17 152.002 117.75 151.7 119.232 151.114L126.665 148.178V152.001H151.998V101.334H126.665V109.531ZM117.37 146.402C116.483 146.752 115.537 146.933 114.583 146.934H78.8816C77.4541 146.933 76.0551 146.531 74.8454 145.774L28.6603 118.146C27.0906 117.239 26.1294 115.559 26.1418 113.747C26.1455 112.859 26.3793 111.986 26.8209 111.214C27.3256 110.339 28.0851 109.638 28.9967 109.205C29.3988 109.009 29.8243 108.871 30.2634 108.794C30.5838 108.735 30.9091 108.704 31.2344 108.704C32.1053 108.701 32.9613 108.929 33.717 109.362L61.6221 124.441C61.6542 124.595 61.6542 124.748 61.695 124.902C62.8949 129.324 66.9064 132.396 71.4894 132.401C72.8996 132.272 74.2961 132.022 75.6642 131.656L101.985 124.613L100.678 119.718L74.4433 126.73C73.288 126.996 71.7974 127.301 71.4894 127.327C69.201 127.33 67.1946 125.801 66.5922 123.595C66.5106 123.288 66.4624 122.974 66.445 122.657C66.445 122.657 66.4252 122.043 66.445 121.828C66.638 119.709 68.1224 117.931 70.1721 117.36L99.4167 109.536C100.91 109.137 102.449 108.934 103.994 108.934H113.704C115.079 108.934 116.429 109.308 117.608 110.014L126.665 115.437V142.728L117.37 146.402ZM131.732 106.401H146.932V146.934H131.732V106.401Z" fill="black"/>
<rect x="49.6923" y="32.1543" width="99.3846" height="43.8462" fill="url(#paint0_linear)"/>
<path d="M104.485 20.2668L90.8957 6.67854C86.6294 2.38746 80.8242 -0.0172248 74.7742 9.28927e-05H42.9244C40.9589 0.00256685 39.0205 0.461486 37.2603 1.33727L31.5826 4.17737C30.4445 4.75009 29.1803 5.02347 27.9075 4.97275L25.3333 4.88245V9.28927e-05H0V55.7334H25.3333V48.1334H29.6405L31.1731 49.1465C35.4617 51.994 40.4554 53.6021 45.6 53.7901V86.1334H152V20.2668H104.485ZM20.2667 50.6668H5.06667V5.06676H20.2667V50.6668ZM33.9773 44.9309L31.1595 43.0668H25.3333V9.95159L27.7219 10.0369C29.8434 10.1124 31.9487 9.65595 33.8475 8.70966L39.5202 5.86956C40.5766 5.34137 41.7431 5.06676 42.9244 5.06676H74.7742C79.4796 5.05315 83.9958 6.92347 87.3134 10.2596L97.3206 20.2668H76.4156L70.2666 14.119L66.6855 17.7L84.5809 35.5966C86.5687 37.5758 86.5749 40.792 84.5958 42.781C82.6154 44.7688 79.3992 44.775 77.4114 42.7959L62.465 27.8494L60.6911 29.3697C55.7939 33.5284 48.6355 33.6348 43.6159 29.622L42.1476 28.4321L38.9549 32.3681L40.4393 33.5717C41.9917 34.8124 43.7346 35.7946 45.6 36.4798V48.721C41.4536 48.5367 37.4347 47.2267 33.9773 44.9309ZM70.0143 42.5596L73.8365 46.3831C77.8047 50.292 84.1752 50.2981 88.1496 46.3955C84.4313 52.1536 85.8983 59.8167 91.4808 63.7936C97.0633 67.7705 104.786 66.6535 109.012 61.259C113.239 55.8633 112.476 48.0976 107.278 43.6296C102.082 39.1616 94.2887 39.5711 89.5894 44.5586C91.32 41.8409 91.6292 38.4541 90.4195 35.4668H124.344C125.433 41.8409 130.426 46.8334 136.8 47.9231V58.477C130.426 59.5668 125.433 64.5593 124.344 70.9334H73.2564C72.1666 64.5593 67.1741 59.5668 60.8 58.477V47.9231C64.4206 47.3133 67.6949 45.4071 70.0143 42.5596ZM91.2 53.2001C91.2 49.003 94.6029 45.6001 98.8 45.6001C102.997 45.6001 106.4 49.003 106.4 53.2001C106.4 57.3972 102.997 60.8001 98.8 60.8001C94.6029 60.8001 91.2 57.3972 91.2 53.2001ZM146.933 81.0668H50.6667V37.5412C54.6831 37.843 58.6872 36.8188 62.0667 34.6281L66.3887 38.9501C64.4874 41.5329 61.4742 43.0606 58.2667 43.0668H55.7333V63.3334H58.2667C63.8628 63.3334 68.4 67.8707 68.4 73.4668V76.0001H129.2V73.4668C129.2 67.8707 133.737 63.3334 139.333 63.3334H141.867V43.0668H139.333C133.737 43.0668 129.2 38.5295 129.2 32.9334V30.4001H86.549L81.4823 25.3334H146.933V81.0668Z" fill="black"/>
<path d="M56.6266 22.3721L64.396 14.769L84.8375 35.6576C86.9371 37.803 86.8998 41.2443 84.7544 43.3438C82.6089 45.4433 79.1677 45.4061 77.0681 43.2607L56.6266 22.3721Z" fill="white"/>
</g>
</g>
<defs>
<linearGradient id="paint0_linear" x1="49.6923" y1="54.0774" x2="152.124" y2="54.0774" gradientUnits="userSpaceOnUse">
<stop stop-color="#4FB8A3"/>
<stop offset="0.515625" stop-color="#49D29D"/>
<stop offset="1" stop-color="#5BD276"/>
</linearGradient>
<clipPath id="clip0">
<rect width="152" height="152" fill="white"/>
</clipPath>
</defs>
</svg>
