<svg width="152" height="152" viewBox="0 0 152 152" fill="none" xmlns="http://www.w3.org/2000/svg">
<g opacity="0.1">
<g clip-path="url(#clip0)">
<path d="M76 115.226C97.6638 115.226 115.226 97.664 115.226 76.0002C115.226 54.3364 97.6638 36.7744 76 36.7744C54.3362 36.7744 36.7742 54.3364 36.7742 76.0002C36.7742 97.664 54.3362 115.226 76 115.226Z" fill="url(#paint0_linear)"/>
<path d="M75.9999 22.0645C46.2594 22.0645 22.0645 46.2594 22.0645 75.9999C22.0645 105.74 46.2594 129.935 75.9999 129.935C105.74 129.935 129.935 105.74 129.935 75.9999C129.935 46.2594 105.74 22.0645 75.9999 22.0645ZM75.9999 125.032C48.9636 125.032 26.9677 103.036 26.9677 75.9999C26.9677 48.9636 48.9636 26.9677 75.9999 26.9677C103.036 26.9677 125.032 48.9636 125.032 75.9999C125.032 103.036 103.036 125.032 75.9999 125.032Z" fill="#333333"/>
<path d="M73.5485 73.5487H41.6775V78.4519H78.4517V41.6777H73.5485V73.5487Z" fill="#333333"/>
<path d="M76 36.7743C77.3539 36.7743 78.4516 35.6767 78.4516 34.3227C78.4516 32.9687 77.3539 31.8711 76 31.8711C74.646 31.8711 73.5483 32.9687 73.5483 34.3227C73.5483 35.6767 74.646 36.7743 76 36.7743Z" fill="#333333"/>
<path d="M76 120.129C77.3539 120.129 78.4516 119.031 78.4516 117.677C78.4516 116.323 77.3539 115.226 76 115.226C74.646 115.226 73.5483 116.323 73.5483 117.677C73.5483 119.031 74.646 120.129 76 120.129Z" fill="#333333"/>
<path d="M117.677 78.4521C119.031 78.4521 120.129 77.3544 120.129 76.0004C120.129 74.6465 119.031 73.5488 117.677 73.5488C116.323 73.5488 115.226 74.6465 115.226 76.0004C115.226 77.3544 116.323 78.4521 117.677 78.4521Z" fill="#333333"/>
<path d="M34.3225 78.4521C35.6765 78.4521 36.7741 77.3544 36.7741 76.0004C36.7741 74.6465 35.6765 73.5488 34.3225 73.5488C32.9685 73.5488 31.8708 74.6465 31.8708 76.0004C31.8708 77.3544 32.9685 78.4521 34.3225 78.4521Z" fill="#333333"/>
<path d="M17.3354 104.51L14.5013 111.597C8.22026 100.788 4.90323 88.5817 4.90323 76C4.90323 36.7987 36.7987 4.90323 76 4.90323C92.2125 4.90323 108.079 10.5174 120.681 20.7112L123.765 16.899C110.293 6.00155 93.3305 0 76 0C34.0921 0 0 34.0921 0 76C0 89.555 3.60877 102.698 10.4267 114.321L2.93213 112.823L1.9711 117.628L16.2272 120.48L21.8905 106.329L17.3354 104.51Z" fill="#333333"/>
<path d="M22.0644 127.484C23.4184 127.484 24.516 126.387 24.516 125.033C24.516 123.679 23.4184 122.581 22.0644 122.581C20.7104 122.581 19.6128 123.679 19.6128 125.033C19.6128 126.387 20.7104 127.484 22.0644 127.484Z" fill="#333333"/>
<path d="M141.573 37.6795L149.068 39.1774L150.031 34.3698L135.775 31.5186L130.112 45.6693L134.665 47.4884L137.499 40.4007C143.78 51.2124 147.097 63.4189 147.097 76.0006C147.097 115.202 115.201 147.097 76.0001 147.097C59.7876 147.097 43.9208 141.483 31.3195 131.289L28.2354 135.102C41.707 145.999 58.6697 152.001 76.0001 152.001C117.908 152.001 152 117.908 152 76.0006C152 62.4457 148.391 49.3026 141.573 37.6795Z" fill="#333333"/>
<path d="M129.936 29.4198C131.289 29.4198 132.387 28.3222 132.387 26.9682C132.387 25.6142 131.289 24.5166 129.936 24.5166C128.582 24.5166 127.484 25.6142 127.484 26.9682C127.484 28.3222 128.582 29.4198 129.936 29.4198Z" fill="#333333"/>
</g>
</g>
<defs>
<linearGradient id="paint0_linear" x1="36.7742" y1="76.0002" x2="117.631" y2="76.0002" gradientUnits="userSpaceOnUse">
<stop stop-color="#4FB8A3"/>
<stop offset="0.515625" stop-color="#49D29D"/>
<stop offset="1" stop-color="#5BD276"/>
</linearGradient>
<clipPath id="clip0">
<rect width="152" height="152" fill="white"/>
</clipPath>
</defs>
</svg>
