<svg width="152" height="152" viewBox="0 0 152 152" fill="none" xmlns="http://www.w3.org/2000/svg">
<g opacity="0.1">
<g clip-path="url(#clip0)">
<path d="M34.3235 53.9355C41.0935 53.9355 46.5818 48.4473 46.5818 41.6772C46.5818 34.9072 41.0935 29.4189 34.3235 29.4189C27.5534 29.4189 22.0652 34.9072 22.0652 41.6772C22.0652 48.4473 27.5534 53.9355 34.3235 53.9355Z" fill="url(#paint0_linear)"/>
<path d="M45.7019 36.2051L42.5586 32.4395L29.5728 43.2631L26.2507 39.9436L22.7842 43.4106L29.269 49.8975L45.7019 36.2051Z" fill="#282828"/>
<path d="M90.7091 34.3232H53.9353V39.2264H90.7091V34.3232Z" fill="#282828"/>
<path d="M95.6123 44.1289H53.9353V49.0321H95.6123V44.1289Z" fill="#282828"/>
<path d="M45.7019 60.7227L42.5586 56.957L29.5728 67.7807L26.2507 64.4612L22.7842 67.9282L29.269 74.4151L45.7019 60.7227Z" fill="#282828"/>
<path d="M105.419 58.8389H53.9353V63.7421H105.419V58.8389Z" fill="#282828"/>
<path d="M63.7417 68.6465H53.9353V73.5497H63.7417V68.6465Z" fill="#282828"/>
<path d="M105.419 68.6465H68.645V73.5497H105.419V68.6465Z" fill="#282828"/>
<path d="M45.7019 85.2383L42.5586 81.4727L29.5728 92.2963L26.2507 88.9768L22.7842 92.4438L29.269 98.9307L45.7019 85.2383Z" fill="#282828"/>
<path d="M105.419 83.3555H53.9353V88.2587H105.419V83.3555Z" fill="#282828"/>
<path d="M90.7091 93.1611H53.9353V98.0643H90.7091V93.1611Z" fill="#282828"/>
<path d="M105.42 93.1611H95.6135V98.0643H105.42V93.1611Z" fill="#282828"/>
<path d="M105.42 34.3232H95.6135V39.2264H105.42V34.3232Z" fill="#282828"/>
<path d="M144.647 112.774H139.744H134.841H129.938H125.035V12.2583C125.035 5.49892 119.536 0 112.777 0H12.2612C5.50185 0 0.00292969 5.49892 0.00292969 12.2583C0.00292969 19.0177 5.50185 24.5166 12.2607 24.5166V152H115.228V137.29H125.035V127.483H129.938H134.841H139.744H144.647C148.702 127.483 152.002 124.184 152.002 120.128C152.002 116.073 148.702 112.774 144.647 112.774ZM120.131 12.2583V112.774H115.228V19.6128H112.776C108.721 19.6128 105.422 16.3132 105.422 12.2578C105.422 8.20235 108.721 4.90269 112.776 4.90269C116.831 4.90269 120.131 8.20287 120.131 12.2583ZM4.90614 12.2583C4.90614 8.20339 8.2058 4.90321 12.2607 4.90321H103.034C101.477 6.95759 100.518 9.48791 100.518 12.2583C100.518 15.0287 101.477 17.5585 103.034 19.6134H12.2612C8.20633 19.6128 4.90614 16.3132 4.90614 12.2583ZM17.1644 147.096V24.516H110.325V112.774H41.283L19.2188 120.129L41.283 127.484H110.325V147.097H17.1644V147.096ZM34.7229 120.129L39.2286 118.626V121.629L34.7229 120.129ZM120.131 132.387H115.228V127.483H120.131V132.387ZM125.035 122.58H44.1318V117.677H125.035V122.58ZM134.841 122.58H129.938V117.677H134.841V122.58ZM144.647 122.58H139.744V117.677H144.647C146 117.677 147.099 118.778 147.099 120.129C147.099 121.48 146.001 122.58 144.647 122.58Z" fill="#282828"/>
</g>
</g>
<defs>
<linearGradient id="paint0_linear" x1="22.0652" y1="41.6772" x2="47.3334" y2="41.6772" gradientUnits="userSpaceOnUse">
<stop stop-color="#4FB8A3"/>
<stop offset="0.515625" stop-color="#49D29D"/>
<stop offset="1" stop-color="#5BD276"/>
</linearGradient>
<clipPath id="clip0">
<rect width="152" height="152" fill="white"/>
</clipPath>
</defs>
</svg>
