<svg width="152" height="152" viewBox="0 0 152 152" fill="none" xmlns="http://www.w3.org/2000/svg">
<g opacity="0.1">
<path d="M140.41 80.8271H97.7296H92.9007H11.5894L0 109.801H10.8096V150.847H92.9012H97.7301H141.19V109.801H152L140.41 80.8271ZM7.13238 104.972L14.8587 85.6561H91.7521L84.0258 104.972H7.13238ZM92.9012 146.018H15.6385V109.801H87.2925L92.9012 95.7775V146.018ZM136.361 146.018H97.7296V95.778L103.338 109.801H136.361V146.018ZM106.608 104.972L98.8819 85.6561H137.144L144.87 104.972H106.608Z" fill="#282828"/>
<path d="M75.999 75.9984L49.4402 54.268H61.5122V1.15039H90.4857V54.2685H102.558L75.999 75.9984Z" fill="url(#paint0_linear)"/>
</g>
<defs>
<linearGradient id="paint0_linear" x1="49.4402" y1="38.5744" x2="104.186" y2="38.5744" gradientUnits="userSpaceOnUse">
<stop stop-color="#4FB8A3"/>
<stop offset="0.515625" stop-color="#49D29D"/>
<stop offset="1" stop-color="#5BD276"/>
</linearGradient>
</defs>
</svg>
