<svg width="152" height="152" viewBox="0 0 152 152" fill="none" xmlns="http://www.w3.org/2000/svg">
<g opacity="0.1">
<path d="M40.625 117.625C43.2484 117.625 45.375 115.498 45.375 112.875C45.375 110.252 43.2484 108.125 40.625 108.125C38.0016 108.125 35.875 110.252 35.875 112.875C35.875 115.498 38.0016 117.625 40.625 117.625Z" fill="url(#paint0_linear)"/>
<path d="M147.479 74.8109C147.472 74.2943 147.297 73.794 146.98 73.3859L127.98 49.6359C127.757 49.3587 127.474 49.1352 127.153 48.9819C126.832 48.8285 126.481 48.7493 126.125 48.75H104.75V27.375C104.75 26.7451 104.5 26.141 104.054 25.6956C103.609 25.2502 103.005 25 102.375 25H7.375C6.74511 25 6.14102 25.2502 5.69562 25.6956C5.25022 26.141 5 26.7451 5 27.375V108.125C5 110.015 5.75067 111.827 7.08686 113.163C8.42306 114.499 10.2353 115.25 12.125 115.25H26.5887C27.147 118.569 28.8632 121.583 31.4329 123.756C34.0026 125.93 37.2593 127.123 40.625 127.123C43.9907 127.123 47.2474 125.93 49.8171 123.756C52.3868 121.583 54.103 118.569 54.6612 115.25H109.714C110.272 118.569 111.988 121.583 114.558 123.756C117.128 125.93 120.384 127.123 123.75 127.123C127.116 127.123 130.372 125.93 132.942 123.756C135.512 121.583 137.228 118.569 137.786 115.25H140.375C142.265 115.25 144.077 114.499 145.413 113.163C146.749 111.827 147.5 110.015 147.5 108.125C147.5 108.125 147.481 74.8322 147.479 74.8109ZM40.625 122.375C38.7461 122.375 36.9093 121.818 35.3471 120.774C33.7848 119.73 32.5672 118.246 31.8481 116.51C31.1291 114.775 30.941 112.864 31.3075 111.022C31.6741 109.179 32.5789 107.486 33.9075 106.157C35.2361 104.829 36.9288 103.924 38.7716 103.558C40.6145 103.191 42.5246 103.379 44.2605 104.098C45.9964 104.817 47.4801 106.035 48.524 107.597C49.5678 109.159 50.125 110.996 50.125 112.875C50.125 115.395 49.1241 117.811 47.3425 119.593C45.5609 121.374 43.1446 122.375 40.625 122.375ZM100 103.375H57.25C56.6201 103.375 56.016 103.625 55.5706 104.071C55.1252 104.516 54.875 105.12 54.875 105.75C54.875 106.38 55.1252 106.984 55.5706 107.429C56.016 107.875 56.6201 108.125 57.25 108.125H100V110.5H54.6612C54.103 107.181 52.3868 104.167 49.8171 101.994C47.2474 99.8199 43.9907 98.6273 40.625 98.6273C37.2593 98.6273 34.0026 99.8199 31.4329 101.994C28.8632 104.167 27.147 107.181 26.5887 110.5H12.125C11.4951 110.5 10.891 110.25 10.4456 109.804C10.0002 109.359 9.75 108.755 9.75 108.125H24C24.6299 108.125 25.234 107.875 25.6794 107.429C26.1248 106.984 26.375 106.38 26.375 105.75C26.375 105.12 26.1248 104.516 25.6794 104.071C25.234 103.625 24.6299 103.375 24 103.375H9.75V86.75H100V103.375ZM100 82H9.75V58.1241L35.875 58.25C36.5049 58.2516 37.1096 58.0029 37.5561 57.5586C38.0026 57.1143 38.2544 56.5108 38.2559 55.8809C38.2575 55.251 38.0088 54.6463 37.5645 54.1998C37.1202 53.7533 36.5168 53.5016 35.8869 53.5L9.75 53.3741V48.6241L26.3584 48.75H26.375C27.0049 48.7522 27.6099 48.5041 28.0568 48.0603C28.5038 47.6164 28.7561 47.0132 28.7583 46.3833C28.7605 45.7534 28.5124 45.1485 28.0686 44.7015C27.6247 44.2545 27.0215 44.0022 26.3916 44L9.75 43.8789V39.1479L16.8394 39.25H16.875C17.5049 39.2547 18.1109 39.009 18.5596 38.567C19.0083 38.1249 19.2631 37.5227 19.2678 36.8928C19.2725 36.2629 19.0268 35.657 18.5848 35.2082C18.1427 34.7595 17.5405 34.5047 16.9106 34.5L9.75 34.3955V29.75H100V82ZM111.875 53.5H124.985L140.185 72.5H111.875V53.5ZM104.75 53.5H107.125V72.5H104.75V53.5ZM123.75 122.375C121.871 122.375 120.034 121.818 118.472 120.774C116.91 119.73 115.692 118.246 114.973 116.51C114.254 114.775 114.066 112.864 114.433 111.022C114.799 109.179 115.704 107.486 117.032 106.157C118.361 104.829 120.054 103.924 121.897 103.558C123.739 103.191 125.65 103.379 127.385 104.098C129.121 104.817 130.605 106.035 131.649 107.597C132.693 109.159 133.25 110.996 133.25 112.875C133.25 115.395 132.249 117.811 130.468 119.593C128.686 121.374 126.27 122.375 123.75 122.375ZM142.75 108.125C142.75 108.755 142.5 109.359 142.054 109.804C141.609 110.25 141.005 110.5 140.375 110.5H137.786C137.228 107.181 135.512 104.167 132.942 101.994C130.372 99.8199 127.116 98.6273 123.75 98.6273C120.384 98.6273 117.128 99.8199 114.558 101.994C111.988 104.167 110.272 107.181 109.714 110.5H104.75V77.25H142.75V108.125Z" fill="#282828"/>
<path d="M109.5 84.375H114.25C114.88 84.375 115.484 84.1248 115.929 83.6794C116.375 83.234 116.625 82.6299 116.625 82C116.625 81.3701 116.375 80.766 115.929 80.3206C115.484 79.8752 114.88 79.625 114.25 79.625H109.5C108.87 79.625 108.266 79.8752 107.821 80.3206C107.375 80.766 107.125 81.3701 107.125 82C107.125 82.6299 107.375 83.234 107.821 83.6794C108.266 84.1248 108.87 84.375 109.5 84.375Z" fill="url(#paint1_linear)"/>
<path d="M123.75 117.625C126.373 117.625 128.5 115.498 128.5 112.875C128.5 110.252 126.373 108.125 123.75 108.125C121.127 108.125 119 110.252 119 112.875C119 115.498 121.127 117.625 123.75 117.625Z" fill="url(#paint2_linear)"/>
</g>
<defs>
<linearGradient id="paint0_linear" x1="35.875" y1="112.875" x2="45.6663" y2="112.875" gradientUnits="userSpaceOnUse">
<stop stop-color="#4FB8A3"/>
<stop offset="0.515625" stop-color="#49D29D"/>
<stop offset="1" stop-color="#5BD276"/>
</linearGradient>
<linearGradient id="paint1_linear" x1="107.125" y1="82" x2="116.916" y2="82" gradientUnits="userSpaceOnUse">
<stop stop-color="#4FB8A3"/>
<stop offset="0.515625" stop-color="#49D29D"/>
<stop offset="1" stop-color="#5BD276"/>
</linearGradient>
<linearGradient id="paint2_linear" x1="119" y1="112.875" x2="128.791" y2="112.875" gradientUnits="userSpaceOnUse">
<stop stop-color="#4FB8A3"/>
<stop offset="0.515625" stop-color="#49D29D"/>
<stop offset="1" stop-color="#5BD276"/>
</linearGradient>
</defs>
</svg>
