<svg width="12" height="10" viewBox="0 0 12 10" fill="none" xmlns="http://www.w3.org/2000/svg">
<path d="M10.8341 2.62915H9.08531L7.60663 0.169438C7.53554 0.0556936 7.40758 0.0272576 7.29384 0.0983476C7.18009 0.169438 7.15166 0.2974 7.22275 0.411144L8.55924 2.62915H3.44076L4.79147 0.396926C4.86256 0.283182 4.8199 0.15522 4.72038 0.0841296C4.60664 0.0130396 4.47867 0.0556937 4.40758 0.15522L2.91469 2.62915H1.16588C0.526066 2.62915 0 3.16944 0 3.82347C0 4.44906 0.483412 4.96091 1.08057 5.00356L1.4218 8.61493C1.49289 9.35427 2.14692 9.95143 2.88626 9.95143H9.12796C9.8673 9.95143 10.5213 9.35427 10.5924 8.61493L10.9194 5.00356C11.5308 4.96091 12 4.44906 12 3.82347C12 3.16944 11.4739 2.62915 10.8341 2.62915ZM2.88626 9.49645C2.37441 9.49645 1.91943 9.08413 1.87678 8.5865L1.53554 5.01778H2.67299L3.02844 9.49645H2.88626ZM3.48341 9.49645L3.12796 5.01778H4.15166L4.46445 9.49645H3.48341ZM5.78673 9.49645H5.77251H4.91943L4.60664 5.01778H5.78673V9.49645ZM7.09479 9.49645H6.22749V5.01778H7.40758L7.09479 9.49645ZM8.51659 9.49645H7.53554L7.84834 5.01778H8.87204L8.51659 9.49645ZM10.1232 8.5865C10.0806 9.08413 9.61137 9.51067 9.11374 9.51067H8.97156L9.32701 5.032H10.4645L10.1232 8.5865ZM10.8341 4.5628H1.16588C0.767772 4.5628 0.454976 4.23579 0.454976 3.82347C0.454976 3.41114 0.78199 3.08413 1.16588 3.08413H2.64455L2.57346 3.21209C2.50237 3.32584 2.54502 3.4538 2.64455 3.52489C2.6872 3.55332 2.71564 3.55332 2.75829 3.55332C2.82938 3.55332 2.91469 3.51067 2.95735 3.43958L3.17062 3.08413H8.8436L9.05687 3.43958C9.09953 3.51067 9.17062 3.55332 9.25592 3.55332C9.29858 3.55332 9.34123 3.53911 9.36967 3.52489C9.48341 3.4538 9.51185 3.32584 9.44076 3.21209L9.36967 3.08413H10.8341C11.2322 3.08413 11.545 3.41114 11.545 3.82347C11.5592 4.23579 11.2322 4.5628 10.8341 4.5628Z" fill="url(#paint0_linear)"/>
<defs>
<linearGradient id="paint0_linear" x1="8.9407e-08" y1="5.00013" x2="12.3679" y2="5.00013" gradientUnits="userSpaceOnUse">
<stop stop-color="#4FB8A3"/>
<stop offset="0.515625" stop-color="#49D29D"/>
<stop offset="1" stop-color="#5BD276"/>
</linearGradient>
</defs>
</svg>
