<svg width="16" height="16" viewBox="0 0 16 16" fill="none" xmlns="http://www.w3.org/2000/svg">
<path d="M15.9732 9.75633L15.9756 9.75553L13.3487 4.02385L13.9858 3.70679L13.7474 3.22946L13.1263 3.53879L13.0423 3.35559C12.9809 3.22173 12.8226 3.16296 12.6888 3.22433C12.6307 3.25096 12.5841 3.29752 12.5575 3.35559L12.4826 3.51932C12.0306 3.30939 11.5383 3.20046 11.0399 3.20013H8.79993V2.6668H9.33326V2.13347H8.87487L9.0666 1.36628C9.2138 0.777183 8.8556 0.180288 8.26651 0.0330566C7.67741 -0.114142 7.08051 0.244055 6.93328 0.833149C6.88955 1.00815 6.88955 1.19125 6.93328 1.36624L7.12501 2.13344H6.66662V2.66676H7.19995V3.20009H4.9613C4.46243 3.20049 3.96964 3.30969 3.51731 3.52009L3.44238 3.35636C3.38101 3.22249 3.22271 3.16373 3.08885 3.22509C3.03078 3.25173 2.98421 3.29829 2.95758 3.35636L2.87358 3.53956L2.25252 3.22889L2.01412 3.70675L2.65118 4.02515L0.02427 9.75553C0.00807015 9.79036 -0.000196454 9.82833 3.54416e-06 9.86673C0.0011702 10.8972 0.83623 11.7322 1.86666 11.7334H4.5333C5.56373 11.7322 6.39879 10.8972 6.39995 9.86673C6.39929 9.82843 6.39019 9.79073 6.37329 9.75633L3.73917 4.00305C4.12207 3.82532 4.53917 3.73332 4.9613 3.73345H7.19995V13.4896L6.28955 14.4H5.33329C4.5973 14.4009 4.00084 14.9973 3.99997 15.7333C3.99997 15.8806 4.11937 16 4.26664 16H11.7332C11.8805 16 11.9999 15.8806 11.9999 15.7333C11.999 14.9973 11.4026 14.4009 10.6666 14.4H9.71033L8.79993 13.4896V3.73345H11.0399C11.462 3.73332 11.8791 3.82532 12.262 4.00305L9.6242 9.75553C9.608 9.79036 9.59973 9.82833 9.59993 9.86673C9.6011 10.8972 10.4362 11.7322 11.4666 11.7334H14.1332C15.1637 11.7322 15.9987 10.8972 15.9999 9.86673C15.9992 9.82843 15.9901 9.79073 15.9732 9.75633ZM4.5333 11.2H1.86666C1.23326 11.1993 0.687498 10.7538 0.559999 10.1334H5.83996C5.71249 10.7538 5.1667 11.1993 4.5333 11.2ZM5.71782 9.60006H0.682131L3.13171 4.25585C3.17645 4.26785 3.22351 4.26785 3.26824 4.25585L5.71782 9.60006ZM7.55381 0.751083C7.76148 0.504685 8.12957 0.473319 8.37597 0.680984C8.40127 0.702317 8.42474 0.725783 8.44607 0.751083C8.55394 0.888282 8.59204 1.06775 8.54927 1.23694L8.325 2.13347H7.67488L7.45061 1.23694C7.40785 1.06775 7.44598 0.888282 7.55381 0.751083ZM7.73328 3.20013V2.6668H8.26661V3.20013H7.73328ZM8.26661 3.73345V13.3334H7.73328V3.73345H8.26661ZM10.6666 14.9333C11.0055 14.9337 11.3075 15.1473 11.421 15.4667H4.5789C4.69233 15.1473 4.99436 14.9337 5.33329 14.9333H10.6666ZM8.9562 14.4H7.04368L7.57701 13.8667H8.42287L8.9562 14.4ZM12.7311 4.25665C12.7751 4.27215 12.8234 4.27015 12.866 4.25105L15.3177 9.60006H10.2821L12.7311 4.25665ZM14.1332 11.2H11.4666C10.8332 11.1993 10.2874 10.7538 10.1599 10.1334H15.4399C15.3124 10.7538 14.7666 11.1993 14.1332 11.2Z" fill="url(#paint0_linear)"/>
<defs>
<linearGradient id="paint0_linear" x1="1.19208e-07" y1="8" x2="16.4904" y2="8" gradientUnits="userSpaceOnUse">
<stop stop-color="#4FB8A3"/>
<stop offset="0.515625" stop-color="#49D29D"/>
<stop offset="1" stop-color="#5BD276"/>
</linearGradient>
</defs>
</svg>
