<svg width="16" height="14" viewBox="0 0 16 14" fill="none" xmlns="http://www.w3.org/2000/svg">
<path d="M14.4455 3.83887H12.1137L10.1422 0.55925C10.0474 0.407591 9.87678 0.369677 9.72512 0.464463C9.57346 0.55925 9.53554 0.729866 9.63033 0.881525L11.4123 3.83887H4.58768L6.38863 0.862568C6.48341 0.710909 6.42654 0.540293 6.29384 0.445506C6.14218 0.350719 5.97156 0.407592 5.87678 0.540293L3.88626 3.83887H1.5545C0.701422 3.83887 0 4.55925 0 5.43129C0 6.26541 0.64455 6.94788 1.44076 7.00475L1.89573 11.8199C1.99052 12.8057 2.86256 13.6019 3.84834 13.6019H12.1706C13.1564 13.6019 14.0284 12.8057 14.1232 11.8199L14.5592 7.00475C15.3744 6.94788 16 6.26541 16 5.43129C16 4.55925 15.2986 3.83887 14.4455 3.83887ZM3.84834 12.9953C3.16588 12.9953 2.55924 12.4455 2.50237 11.782L2.04739 7.0237H3.56398L4.03791 12.9953H3.84834ZM4.64455 12.9953L4.17062 7.0237H5.53554L5.95261 12.9953H4.64455ZM7.71564 12.9953H7.69668H6.55924L6.14218 7.0237H7.71564V12.9953ZM9.45972 12.9953H8.30332V7.0237H9.87678L9.45972 12.9953ZM11.3554 12.9953H10.0474L10.4645 7.0237H11.8294L11.3554 12.9953ZM13.4976 11.782C13.4408 12.4455 12.8152 13.0142 12.1517 13.0142H11.9621L12.436 7.04266H13.9526L13.4976 11.782ZM14.4455 6.41707H1.5545C1.0237 6.41707 0.606635 5.98105 0.606635 5.43129C0.606635 4.88152 1.04265 4.44551 1.5545 4.44551H3.52607L3.43128 4.61612C3.33649 4.76778 3.39336 4.9384 3.52607 5.03318C3.58294 5.0711 3.62085 5.0711 3.67772 5.0711C3.77251 5.0711 3.88626 5.01423 3.94313 4.91944L4.22749 4.44551H11.7915L12.0758 4.91944C12.1327 5.01423 12.2275 5.0711 12.3412 5.0711C12.3981 5.0711 12.455 5.05214 12.4929 5.03318C12.6445 4.9384 12.6825 4.76778 12.5877 4.61612L12.4929 4.44551H14.4455C14.9763 4.44551 15.3934 4.88152 15.3934 5.43129C15.4123 5.98105 14.9763 6.41707 14.4455 6.41707Z" fill="white"/>
</svg>
