<svg width="24" height="20" viewBox="0 0 24 20" fill="none" xmlns="http://www.w3.org/2000/svg">
<path d="M21.6682 5.25831H18.1706L15.2133 0.338875C15.0711 0.111387 14.8152 0.0545151 14.5877 0.196695C14.3602 0.338875 14.3033 0.594799 14.4455 0.822287L17.1185 5.25831H6.88152L9.58294 0.793852C9.72512 0.566363 9.63981 0.310439 9.44076 0.168259C9.21327 0.0260792 8.95735 0.111387 8.81517 0.310439L5.82938 5.25831H2.33175C1.05213 5.25831 0 6.33887 0 7.64693C0 8.89812 0.966825 9.92181 2.16114 10.0071L2.8436 17.2299C2.98578 18.7085 4.29384 19.9029 5.77251 19.9029H18.2559C19.7346 19.9029 21.0427 18.7085 21.1848 17.2299L21.8389 10.0071C23.0616 9.92181 24 8.89812 24 7.64693C24 6.33887 22.9479 5.25831 21.6682 5.25831ZM5.77251 18.9929C4.74881 18.9929 3.83886 18.1683 3.75355 17.173L3.07109 10.0356H5.34597L6.05687 18.9929H5.77251ZM6.96682 18.9929L6.25592 10.0356H8.30332L8.92891 18.9929H6.96682ZM11.5735 18.9929H11.545H9.83886L9.21327 10.0356H11.5735V18.9929ZM14.1896 18.9929H12.455V10.0356H14.8152L14.1896 18.9929ZM17.0332 18.9929H15.0711L15.6967 10.0356H17.7441L17.0332 18.9929ZM20.2464 17.173C20.1611 18.1683 19.2227 19.0213 18.2275 19.0213H17.9431L18.654 10.064H20.9289L20.2464 17.173ZM21.6682 9.1256H2.33175C1.53554 9.1256 0.909953 8.47157 0.909953 7.64693C0.909953 6.82229 1.56398 6.16826 2.33175 6.16826H5.2891L5.14692 6.42418C5.00474 6.65167 5.09005 6.90759 5.2891 7.04977C5.37441 7.10665 5.43128 7.10665 5.51659 7.10665C5.65877 7.10665 5.82938 7.02134 5.91469 6.87916L6.34123 6.16826H17.6872L18.1137 6.87916C18.1991 7.02134 18.3412 7.10665 18.5118 7.10665C18.5972 7.10665 18.6825 7.07821 18.7393 7.04977C18.9668 6.90759 19.0237 6.65167 18.8815 6.42418L18.7393 6.16826H21.6682C22.4645 6.16826 23.09 6.82229 23.09 7.64693C23.1185 8.47157 22.4645 9.1256 21.6682 9.1256Z" fill="#282828"/>
</svg>
