<svg width="24" height="24" viewBox="0 0 24 24" fill="none" xmlns="http://www.w3.org/2000/svg">
<path d="M23.9608 14.634L23.9644 14.6328L20.024 6.03529L20.9796 5.5597L20.622 4.8437L19.6904 5.3077L19.5644 5.0329C19.4723 4.8321 19.2349 4.74395 19.0341 4.836C18.947 4.87595 18.8772 4.9458 18.8372 5.0329L18.7248 5.2785C18.0468 4.9636 17.3084 4.8002 16.5608 4.7997H13.2009V3.99971H14.0009V3.19972H13.3133L13.6009 2.04893C13.8217 1.16529 13.2844 0.269945 12.4007 0.0490966C11.5171 -0.171701 10.6217 0.365594 10.4009 1.24924C10.3353 1.51173 10.3353 1.78638 10.4009 2.04888L10.6885 3.19967H10.0009V3.99966H10.8009V4.79965H7.44292C6.69462 4.80025 5.95543 4.96405 5.27694 5.27965L5.16454 5.03405C5.07249 4.83325 4.83504 4.7451 4.63424 4.83715C4.54714 4.8771 4.47729 4.94695 4.43734 5.03405L4.31134 5.30885L3.37975 4.84285L3.02216 5.55965L3.97775 6.03724L0.0373816 14.6328C0.0130818 14.6851 0.000681881 14.742 0.000981879 14.7996C0.00273186 16.3452 1.25532 17.5978 2.80096 17.5996H6.80092C8.34656 17.5978 9.59915 16.3452 9.6009 14.7996C9.5999 14.7422 9.58625 14.6856 9.5609 14.634L5.60973 6.00409C6.18408 5.73749 6.80972 5.59949 7.44292 5.5997H10.8009V20.234L9.4353 21.5995H8.00091C6.89692 21.6008 6.00223 22.4955 6.00093 23.5995C6.00093 23.8204 6.18003 23.9995 6.40093 23.9995H17.6008C17.8217 23.9995 18.0008 23.8204 18.0008 23.5995C17.9995 22.4955 17.1048 21.6008 16.0008 21.5995H14.5665L13.2009 20.234V5.5997H16.5608C17.194 5.59949 17.8197 5.73749 18.394 6.00409L14.4373 14.6328C14.413 14.6851 14.4006 14.742 14.4009 14.7996C14.4026 16.3452 15.6552 17.5978 17.2008 17.5996H21.2008C22.7464 17.5978 23.999 16.3452 24.0008 14.7996C23.9998 14.7422 23.9862 14.6856 23.9608 14.634ZM6.80092 16.7996H2.80096C1.85087 16.7985 1.03222 16.1302 0.840975 15.1996H8.76091C8.56971 16.1302 7.75102 16.7985 6.80092 16.7996ZM8.57771 14.3996H1.02417L4.69854 6.38329C4.76564 6.40129 4.83624 6.40129 4.90334 6.38329L8.57771 14.3996ZM11.3317 1.12614C11.6432 0.75654 12.1953 0.709491 12.5649 1.02099C12.6029 1.05299 12.6381 1.08819 12.6701 1.12614C12.8319 1.33193 12.889 1.60113 12.8249 1.85493L12.4885 3.19972H11.5133L11.1769 1.85493C11.1127 1.60113 11.1699 1.33193 11.3317 1.12614ZM11.6009 4.7997V3.99971H12.4009V4.7997H11.6009ZM12.4009 5.5997V19.9996H11.6009V5.5997H12.4009ZM16.0008 22.3995C16.5092 22.4001 16.9623 22.7204 17.1324 23.1995H6.86932C7.03947 22.7204 7.49252 22.4001 8.00091 22.3995H16.0008ZM13.4353 21.5995H10.5665L11.3665 20.7996H12.6353L13.4353 21.5995ZM19.0976 6.38449C19.1637 6.40774 19.2361 6.40474 19.3 6.37609L22.9776 14.3996H15.424L19.0976 6.38449ZM21.2008 16.7996H17.2008C16.2507 16.7985 15.4321 16.1302 15.2409 15.1996H23.1608C22.9696 16.1302 22.1509 16.7985 21.2008 16.7996Z" fill="#282828"/>
</svg>
