<svg width="44" height="31" viewBox="0 0 44 31" fill="none" xmlns="http://www.w3.org/2000/svg">
<g clip-path="url(#clip0)">
<path d="M30.8758 12.0927H37.6275C37.8551 12.0927 38.1586 11.9415 38.3103 11.7148C38.462 11.4881 38.462 11.1859 38.3103 10.9592L36.262 7.02969C36.1103 6.80299 35.8827 6.65186 35.5793 6.65186H30.8758C30.4206 6.65186 30.1172 6.95412 30.1172 7.40752V11.337C30.1172 11.7148 30.4206 12.0927 30.8758 12.0927ZM31.6344 8.16319H35.1241L36.3379 10.5813H31.6344V8.16319Z" fill="white"/>
<path d="M43.9982 22.2186C43.9982 20.6317 43.012 19.347 41.7982 19.2715V13.9062C41.7982 12.546 41.4189 11.1858 40.812 9.97676L37.7775 4.46039C37.6258 4.23369 37.3982 4.08256 37.0947 4.08256H30.2671V0.757621C30.2671 0.53092 30.1913 0.30422 29.9637 0.153087C29.8878 0.00195312 29.5844 0.00195312 29.4327 0.00195312L22.9085 1.43772C22.7568 1.43772 22.6051 1.58885 22.5292 1.66442L21.1637 3.32689L17.0671 1.73999C13.5016 0.379787 9.55679 1.51329 7.28093 4.46039L5.99128 6.12286H0.756794C0.529208 6.12286 0.301622 6.27399 0.149898 6.42513C-0.00182652 6.72739 -0.0776886 6.95409 0.0740356 7.18079L4.85335 19.7249C4.17059 20.2538 3.71541 21.1606 3.71541 22.2186C3.71541 23.881 4.70162 25.1657 5.99128 25.1657H6.44645C6.37059 25.3924 6.37059 25.6191 6.37059 25.9213C6.37059 28.1884 8.19128 30.002 10.4671 30.002C11.8327 30.002 13.0464 29.3219 13.8051 28.2639C14.5637 29.3219 15.7775 30.002 17.143 30.002C19.4189 30.002 21.2396 28.1884 21.2396 25.9213C21.2396 25.6946 21.2396 25.3924 21.1637 25.1657H22.5292V26.8281C22.5292 27.2815 22.8327 27.5838 23.2878 27.5838H28.9016C29.3568 27.5838 29.6602 27.2815 29.6602 26.8281V25.1657H30.7223C30.6464 25.3924 30.6464 25.6191 30.6464 25.9213C30.6464 28.1884 32.4671 30.002 34.743 30.002C37.0189 30.002 38.8396 28.1884 38.8396 25.9213C38.8396 25.6946 38.8396 25.3924 38.7637 25.1657H41.7223C43.012 25.1657 43.9982 23.881 43.9982 22.2186ZM36.6395 5.59389L39.4464 10.7324C39.9775 11.7148 40.2809 12.8483 40.2809 13.9818V19.347H28.3706V5.59389H36.6395ZM8.49472 5.36719C10.3154 2.94906 13.5016 2.04226 16.3085 3.10019L20.0258 4.53596L18.6602 6.12286H7.88783L8.49472 5.36719ZM1.89473 7.6342H18.9637C19.1913 7.6342 19.4189 7.55863 19.5706 7.33193L23.4396 2.79792L28.8258 1.66442V4.00699H27.6878C27.2327 4.00699 26.9292 4.30926 26.9292 4.76266V19.2715H6.29472L1.89473 7.6342ZM10.543 28.4906C9.10162 28.4906 7.96369 27.3571 7.96369 25.9213C7.96369 24.4856 9.10162 23.3521 10.543 23.3521C11.9844 23.3521 13.1223 24.4856 13.1223 25.9213C13.1223 27.3571 11.9844 28.4906 10.543 28.4906ZM17.2189 28.4906C15.7775 28.4906 14.6396 27.3571 14.6396 25.9213C14.6396 24.4856 15.7775 23.3521 17.2189 23.3521C18.6602 23.3521 19.7982 24.4856 19.7982 25.9213C19.7982 27.3571 18.6602 28.4906 17.2189 28.4906ZM34.8189 28.4906C33.3775 28.4906 32.2396 27.3571 32.2396 25.9213C32.2396 24.4856 33.3775 23.3521 34.8189 23.3521C36.2602 23.3521 37.3982 24.4856 37.3982 25.9213C37.3982 27.3571 36.1844 28.4906 34.8189 28.4906ZM38.2327 23.6543C37.474 22.5208 36.2602 21.8407 34.8189 21.8407C33.3775 21.8407 32.1637 22.5964 31.4051 23.6543H28.9775C28.5223 23.6543 28.2189 23.9566 28.2189 24.41V26.0725H24.1223V24.41C24.1223 23.9566 23.8189 23.6543 23.3637 23.6543H20.6327C19.874 22.5208 18.6602 21.8407 17.2189 21.8407C15.8533 21.8407 14.6396 22.5208 13.8809 23.5788C13.1223 22.5208 11.9085 21.8407 10.543 21.8407C9.10162 21.8407 7.88783 22.5964 7.12921 23.6543H5.99128C5.61197 23.6543 5.23266 23.0498 5.23266 22.2186C5.23266 21.3873 5.68783 20.7828 5.99128 20.7828H41.6464C42.0258 20.7828 42.4051 21.3873 42.4051 22.2186C42.4051 23.0498 41.9499 23.6543 41.6464 23.6543H38.2327Z" fill="white"/>
<path d="M24.5036 17.7601C24.9588 17.7601 25.2622 17.4578 25.2622 17.0044V9.90118C25.2622 9.44777 24.9588 9.14551 24.5036 9.14551C24.0484 9.14551 23.745 9.44777 23.745 9.90118V17.0044C23.745 17.4578 24.0484 17.7601 24.5036 17.7601Z" fill="url(#paint0_linear)"/>
<path d="M21.7722 17.76C22.2273 17.76 22.5308 17.3821 22.5308 16.9287L22.0756 9.82546C22.0756 9.37206 21.6963 9.06979 21.2411 9.14536C20.786 9.14536 20.4825 9.52319 20.5584 9.97659L21.0135 17.0799C21.0135 17.4577 21.3929 17.76 21.7722 17.76Z" fill="url(#paint1_linear)"/>
<path d="M19.0415 17.7601H19.1173C19.4966 17.6845 19.8001 17.3067 19.8001 16.9289L18.9656 9.82561C18.8897 9.44777 18.5104 9.14551 18.1311 9.14551C17.7518 9.22107 17.4484 9.59891 17.4484 9.97674L18.2828 17.08C18.3587 17.4578 18.6622 17.7601 19.0415 17.7601Z" fill="url(#paint2_linear)"/>
<path d="M16.3101 17.7601C16.386 17.7601 16.386 17.7601 16.4618 17.7601C16.8411 17.6845 17.1446 17.3067 17.0687 16.8533L15.7791 9.74998C15.7032 9.37215 15.3239 9.06988 14.8687 9.14545C14.4894 9.22101 14.186 9.59885 14.2618 10.0522L15.5515 17.1555C15.6273 17.5334 16.0067 17.7601 16.3101 17.7601Z" fill="url(#paint3_linear)"/>
<path d="M12.8962 17.1554C12.9721 17.5332 13.2756 17.7599 13.6549 17.7599C13.7307 17.7599 13.8066 17.7599 13.8066 17.7599C14.1859 17.6844 14.4893 17.231 14.3376 16.8531L12.6687 9.74986C12.5928 9.37203 12.1376 9.06976 11.7583 9.2209C11.379 9.29646 11.0756 9.74986 11.2273 10.1277L12.8962 17.1554Z" fill="url(#paint4_linear)"/>
<path d="M10.1656 17.2311C10.2415 17.5334 10.5449 17.7601 10.9242 17.7601C11.0001 17.7601 11.0759 17.7601 11.1518 17.7601C11.5311 17.6089 11.7587 17.2311 11.6828 16.8533L9.5587 9.74999C9.40697 9.37216 9.02766 9.14545 8.64835 9.22102C8.26904 9.37216 8.04146 9.74999 8.11732 10.1278L10.1656 17.2311Z" fill="url(#paint5_linear)"/>
<path d="M8.1929 17.7601C8.26876 17.7601 8.34462 17.7601 8.42048 17.6845C8.79979 17.5334 9.02738 17.08 8.87565 16.7022L6.3722 9.59888C6.22048 9.22105 5.76531 8.99435 5.386 9.14548C5.00669 9.29662 4.7791 9.75002 4.93083 10.1279L7.43427 17.2311C7.586 17.609 7.88945 17.7601 8.1929 17.7601Z" fill="url(#paint6_linear)"/>
<path d="M33.0757 14.3599H31.0274C30.5722 14.3599 30.2688 14.6621 30.2688 15.1155C30.2688 15.5689 30.5722 15.8712 31.0274 15.8712H33.0757C33.5309 15.8712 33.8343 15.5689 33.8343 15.1155C33.8343 14.7377 33.5309 14.3599 33.0757 14.3599Z" fill="white"/>
</g>
<defs>
<linearGradient id="paint0_linear" x1="23.745" y1="13.4528" x2="25.3088" y2="13.4528" gradientUnits="userSpaceOnUse">
<stop stop-color="#4FB8A3"/>
<stop offset="0.515625" stop-color="#49D29D"/>
<stop offset="1" stop-color="#5BD276"/>
</linearGradient>
<linearGradient id="paint1_linear" x1="20.5468" y1="13.4469" x2="22.5916" y2="13.4469" gradientUnits="userSpaceOnUse">
<stop stop-color="#4FB8A3"/>
<stop offset="0.515625" stop-color="#49D29D"/>
<stop offset="1" stop-color="#5BD276"/>
</linearGradient>
<linearGradient id="paint2_linear" x1="17.4484" y1="13.4528" x2="19.8722" y2="13.4528" gradientUnits="userSpaceOnUse">
<stop stop-color="#4FB8A3"/>
<stop offset="0.515625" stop-color="#49D29D"/>
<stop offset="1" stop-color="#5BD276"/>
</linearGradient>
<linearGradient id="paint3_linear" x1="14.2501" y1="13.4469" x2="17.1672" y2="13.4469" gradientUnits="userSpaceOnUse">
<stop stop-color="#4FB8A3"/>
<stop offset="0.515625" stop-color="#49D29D"/>
<stop offset="1" stop-color="#5BD276"/>
</linearGradient>
<linearGradient id="paint4_linear" x1="11.1874" y1="13.4705" x2="14.4753" y2="13.4705" gradientUnits="userSpaceOnUse">
<stop stop-color="#4FB8A3"/>
<stop offset="0.515625" stop-color="#49D29D"/>
<stop offset="1" stop-color="#5BD276"/>
</linearGradient>
<linearGradient id="paint5_linear" x1="8.10278" y1="13.4833" x2="11.8076" y2="13.4833" gradientUnits="userSpaceOnUse">
<stop stop-color="#4FB8A3"/>
<stop offset="0.515625" stop-color="#49D29D"/>
<stop offset="1" stop-color="#5BD276"/>
</linearGradient>
<linearGradient id="paint6_linear" x1="4.8833" y1="13.4291" x2="9.04704" y2="13.4291" gradientUnits="userSpaceOnUse">
<stop stop-color="#4FB8A3"/>
<stop offset="0.515625" stop-color="#49D29D"/>
<stop offset="1" stop-color="#5BD276"/>
</linearGradient>
<clipPath id="clip0">
<rect y="0.00195312" width="44" height="30" fill="white"/>
</clipPath>
</defs>
</svg>
