<svg width="30" height="22" viewBox="0 0 30 22" fill="none" xmlns="http://www.w3.org/2000/svg">
<path d="M7.5 19.5C8.05228 19.5 8.5 19.0523 8.5 18.5C8.5 17.9477 8.05228 17.5 7.5 17.5C6.94772 17.5 6.5 17.9477 6.5 18.5C6.5 19.0523 6.94772 19.5 7.5 19.5Z" fill="url(#paint0_linear)"/>
<path d="M29.9955 10.4865C29.9941 10.3777 29.9572 10.2724 29.8905 10.1865L25.8905 5.1865C25.8435 5.12815 25.7841 5.08109 25.7165 5.04881C25.6489 5.01653 25.5749 4.99985 25.5 5H21V0.5C21 0.367392 20.9473 0.240214 20.8536 0.146446C20.7598 0.052678 20.6326 0 20.5 0H0.5C0.367392 0 0.240215 0.052678 0.146447 0.146446C0.0526784 0.240214 0 0.367392 0 0.5V17.5C0 17.8978 0.158035 18.2794 0.43934 18.5607C0.720644 18.842 1.10218 19 1.5 19H4.545C4.66252 19.6987 5.02384 20.3332 5.56482 20.7908C6.10581 21.2484 6.79144 21.4995 7.5 21.4995C8.20856 21.4995 8.8942 21.2484 9.43518 20.7908C9.97616 20.3332 10.3375 19.6987 10.455 19H22.045C22.1625 19.6987 22.5238 20.3332 23.0648 20.7908C23.6058 21.2484 24.2914 21.4995 25 21.4995C25.7086 21.4995 26.3942 21.2484 26.9352 20.7908C27.4762 20.3332 27.8375 19.6987 27.955 19H28.5C28.8978 19 29.2794 18.842 29.5607 18.5607C29.842 18.2794 30 17.8978 30 17.5C30 17.5 29.996 10.491 29.9955 10.4865ZM7.5 20.5C7.10444 20.5 6.71776 20.3827 6.38886 20.1629C6.05996 19.9432 5.80362 19.6308 5.65224 19.2654C5.50087 18.8999 5.46126 18.4978 5.53843 18.1098C5.6156 17.7219 5.80608 17.3655 6.08579 17.0858C6.36549 16.8061 6.72186 16.6156 7.10982 16.5384C7.49778 16.4613 7.89991 16.5009 8.26537 16.6522C8.63082 16.8036 8.94318 17.06 9.16294 17.3889C9.3827 17.7178 9.5 18.1044 9.5 18.5C9.5 19.0304 9.28929 19.5391 8.91421 19.9142C8.53914 20.2893 8.03043 20.5 7.5 20.5ZM20 16.5H11C10.8674 16.5 10.7402 16.5527 10.6464 16.6464C10.5527 16.7402 10.5 16.8674 10.5 17C10.5 17.1326 10.5527 17.2598 10.6464 17.3535C10.7402 17.4473 10.8674 17.5 11 17.5H20V18H10.455C10.3375 17.3013 9.97616 16.6668 9.43518 16.2092C8.8942 15.7516 8.20856 15.5005 7.5 15.5005C6.79144 15.5005 6.10581 15.7516 5.56482 16.2092C5.02384 16.6668 4.66252 17.3013 4.545 18H1.5C1.36739 18 1.24021 17.9473 1.14645 17.8535C1.05268 17.7598 1 17.6326 1 17.5H4C4.13261 17.5 4.25979 17.4473 4.35355 17.3535C4.44732 17.2598 4.5 17.1326 4.5 17C4.5 16.8674 4.44732 16.7402 4.35355 16.6464C4.25979 16.5527 4.13261 16.5 4 16.5H1V13H20V16.5ZM20 12H1V6.9735L6.5 7C6.63261 7.00033 6.75992 6.94797 6.85392 6.85444C6.94792 6.7609 7.00092 6.63386 7.00125 6.50125C7.00158 6.36864 6.94922 6.24133 6.85569 6.14733C6.76215 6.05333 6.63511 6.00033 6.5025 6L1 5.9735V4.9735L4.4965 5H4.5C4.63261 5.00046 4.75997 4.94823 4.85407 4.85479C4.94816 4.76135 5.00129 4.63436 5.00175 4.50175C5.00221 4.36914 4.94998 4.24178 4.85654 4.14768C4.7631 4.05359 4.63611 4.00046 4.5035 4L1 3.9745V2.9785L2.4925 3H2.5C2.63261 3.00099 2.76018 2.94927 2.85465 2.8562C2.94912 2.76314 3.00276 2.63636 3.00375 2.50375C3.00474 2.37114 2.95302 2.24357 2.85996 2.1491C2.76689 2.05463 2.64011 2.00099 2.5075 2L1 1.978V1H20V12ZM22.5 6H25.26L28.46 10H22.5V6ZM21 6H21.5V10H21V6ZM25 20.5C24.6044 20.5 24.2178 20.3827 23.8889 20.1629C23.56 19.9432 23.3036 19.6308 23.1522 19.2654C23.0009 18.8999 22.9613 18.4978 23.0384 18.1098C23.1156 17.7219 23.3061 17.3655 23.5858 17.0858C23.8655 16.8061 24.2219 16.6156 24.6098 16.5384C24.9978 16.4613 25.3999 16.5009 25.7654 16.6522C26.1308 16.8036 26.4432 17.06 26.6629 17.3889C26.8827 17.7178 27 18.1044 27 18.5C27 19.0304 26.7893 19.5391 26.4142 19.9142C26.0391 20.2893 25.5304 20.5 25 20.5ZM29 17.5C29 17.6326 28.9473 17.7598 28.8536 17.8535C28.7598 17.9473 28.6326 18 28.5 18H27.955C27.8375 17.3013 27.4762 16.6668 26.9352 16.2092C26.3942 15.7516 25.7086 15.5005 25 15.5005C24.2914 15.5005 23.6058 15.7516 23.0648 16.2092C22.5238 16.6668 22.1625 17.3013 22.045 18H21V11H29V17.5Z" fill="#282828"/>
<path d="M22 12.5H23C23.1326 12.5 23.2598 12.4473 23.3536 12.3536C23.4473 12.2598 23.5 12.1326 23.5 12C23.5 11.8674 23.4473 11.7402 23.3536 11.6464C23.2598 11.5527 23.1326 11.5 23 11.5H22C21.8674 11.5 21.7402 11.5527 21.6464 11.6464C21.5527 11.7402 21.5 11.8674 21.5 12C21.5 12.1326 21.5527 12.2598 21.6464 12.3536C21.7402 12.4473 21.8674 12.5 22 12.5Z" fill="url(#paint1_linear)"/>
<path d="M25 19.5C25.5523 19.5 26 19.0523 26 18.5C26 17.9477 25.5523 17.5 25 17.5C24.4477 17.5 24 17.9477 24 18.5C24 19.0523 24.4477 19.5 25 19.5Z" fill="url(#paint2_linear)"/>
<defs>
<linearGradient id="paint0_linear" x1="6.5" y1="18.5" x2="8.56132" y2="18.5" gradientUnits="userSpaceOnUse">
<stop stop-color="#4FB8A3"/>
<stop offset="0.515625" stop-color="#49D29D"/>
<stop offset="1" stop-color="#5BD276"/>
</linearGradient>
<linearGradient id="paint1_linear" x1="21.5" y1="12" x2="23.5613" y2="12" gradientUnits="userSpaceOnUse">
<stop stop-color="#4FB8A3"/>
<stop offset="0.515625" stop-color="#49D29D"/>
<stop offset="1" stop-color="#5BD276"/>
</linearGradient>
<linearGradient id="paint2_linear" x1="24" y1="18.5" x2="26.0613" y2="18.5" gradientUnits="userSpaceOnUse">
<stop stop-color="#4FB8A3"/>
<stop offset="0.515625" stop-color="#49D29D"/>
<stop offset="1" stop-color="#5BD276"/>
</linearGradient>
</defs>
</svg>
