<svg width="32" height="32" viewBox="0 0 32 32" fill="none" xmlns="http://www.w3.org/2000/svg">
<g clip-path="url(#clip0)">
<path d="M26.6661 23.0588L25.3078 22.245C24.8937 21.9973 24.42 21.8666 23.9375 21.8663H21.8932C21.4747 21.8656 21.0581 21.9195 20.6534 22.0262L14.494 23.6796C13.8206 23.8656 13.2797 24.3671 13.0437 25.0247L7.62604 22.0937C7.18671 21.8437 6.67239 21.7588 6.17604 21.8541C5.9888 21.8872 5.80729 21.9468 5.63671 22.0312C5.25156 22.2156 4.93203 22.5135 4.72057 22.8846C4.53567 23.2077 4.43854 23.5736 4.43854 23.9458C4.43281 24.7057 4.83541 25.4098 5.4927 25.7906L15.2026 31.6002C15.6245 31.8614 16.1104 31.9997 16.6065 31.9997H24.1211C24.4568 31.9999 24.7893 31.9364 25.1013 31.813L26.6661 31.195V31.9997H31.9995V21.333H26.6661V23.0588ZM24.7094 30.821C24.5227 30.8947 24.3234 30.9327 24.1227 30.933H16.6065C16.306 30.9327 16.0115 30.8481 15.7568 30.6887L6.03359 24.8723C5.70312 24.6814 5.50078 24.3278 5.50338 23.9463C5.50416 23.7593 5.55338 23.5755 5.64635 23.413C5.7526 23.2288 5.9125 23.0812 6.10442 22.99C6.18906 22.9489 6.27864 22.9197 6.37109 22.9036C6.43854 22.8911 6.50703 22.8846 6.57552 22.8846C6.75885 22.884 6.93906 22.932 7.09817 23.0231L12.9729 26.1976C12.9797 26.2301 12.9797 26.2622 12.9883 26.2947C13.2409 27.2257 14.0854 27.8723 15.0503 27.8734C15.3471 27.8463 15.6411 27.7937 15.9292 27.7166L21.4703 26.2338L21.1953 25.2033L15.6721 26.6796C15.4289 26.7356 15.1151 26.7997 15.0503 26.8051C14.5685 26.8059 14.1461 26.484 14.0193 26.0195C14.0021 25.9549 13.9919 25.8887 13.9883 25.8221C13.9883 25.8221 13.9841 25.6929 13.9883 25.6476C14.0289 25.2015 14.3414 24.827 14.7729 24.707L20.9297 23.0598C21.244 22.9757 21.568 22.933 21.8932 22.933H23.9375C24.2271 22.933 24.5112 23.0117 24.7594 23.1604L26.6661 24.302V30.0476L24.7094 30.821ZM27.7328 22.3997H30.9328V30.933H27.7328V22.3997Z" fill="black"/>
<rect x="10.4619" y="6.76953" width="20.9231" height="9.23077" fill="url(#paint0_linear)"/>
<path d="M21.9969 4.26669L19.1359 1.40601C18.2378 0.502624 17.0156 -0.00362628 15.7419 1.95564e-05H9.03672C8.62292 0.00054039 8.21484 0.0971549 7.84427 0.28153L6.64896 0.879447C6.40938 1.00002 6.14323 1.05757 5.87526 1.04689L5.33333 1.02788V1.95564e-05H0V11.7334H5.33333V10.1334H6.2401L6.56276 10.3466C7.46563 10.9461 8.51693 11.2847 9.6 11.3242V18.1334H32V4.26669H21.9969ZM4.26667 10.6667H1.06667V1.06669H4.26667V10.6667ZM7.15313 9.45913L6.5599 9.06669H5.33333V2.09507L5.8362 2.11304C6.28281 2.12893 6.72604 2.03283 7.12578 1.83361L8.32005 1.2357C8.54245 1.1245 8.78802 1.06669 9.03672 1.06669H15.7419C16.7326 1.06382 17.6833 1.45757 18.3818 2.15992L20.4885 4.26669H16.0875L14.793 2.97242L14.0391 3.72632L17.8065 7.49403C18.225 7.9107 18.2263 8.58778 17.8096 9.00653C17.3927 9.42502 16.7156 9.42632 16.2971 9.00965L13.1505 5.86304L12.7771 6.18309C11.7461 7.05861 10.2391 7.08101 9.18229 6.23622L8.87318 5.9857L8.20104 6.81434L8.51354 7.06773C8.84036 7.32893 9.20729 7.5357 9.6 7.67997V10.2571C8.72708 10.2182 7.88099 9.94247 7.15313 9.45913ZM14.7398 8.95991L15.5445 9.76486C16.3799 10.5878 17.7211 10.5891 18.5578 9.76747C17.775 10.9797 18.0839 12.593 19.2591 13.4302C20.4344 14.2675 22.0602 14.0323 22.95 12.8966C23.8398 11.7607 23.6792 10.1258 22.5849 9.18517C21.4909 8.24455 19.8503 8.33075 18.8609 9.38075C19.2253 8.80861 19.2904 8.09559 19.0357 7.46669H26.1776C26.407 8.80861 27.4581 9.85965 28.8 10.0891V12.311C27.4581 12.5404 26.407 13.5914 26.1776 14.9334H15.4224C15.193 13.5914 14.1419 12.5404 12.8 12.311V10.0891C13.5622 9.9607 14.2516 9.55939 14.7398 8.95991ZM19.2 11.2C19.2 10.3164 19.9164 9.60002 20.8 9.60002C21.6836 9.60002 22.4 10.3164 22.4 11.2C22.4 12.0836 21.6836 12.8 20.8 12.8C19.9164 12.8 19.2 12.0836 19.2 11.2ZM30.9333 17.0667H10.6667V7.9034C11.5122 7.96695 12.3552 7.75132 13.0667 7.29012L13.9766 8.20002C13.5763 8.74377 12.9419 9.06538 12.2667 9.06669H11.7333V13.3334H12.2667C13.4448 13.3334 14.4 14.2886 14.4 15.4667V16H27.2V15.4667C27.2 14.2886 28.1552 13.3334 29.3333 13.3334H29.8667V9.06669H29.3333C28.1552 9.06669 27.2 8.11148 27.2 6.93335V6.40002H18.2208L17.1542 5.33335H30.9333V17.0667Z" fill="black"/>
<path d="M11.9219 4.70996L13.5575 3.10931L17.861 7.50691C18.303 7.95858 18.2952 8.68306 17.8435 9.12506C17.3918 9.56707 16.6674 9.55923 16.2254 9.10756L11.9219 4.70996Z" fill="white"/>
</g>
<defs>
<linearGradient id="paint0_linear" x1="10.4619" y1="11.3849" x2="32.0265" y2="11.3849" gradientUnits="userSpaceOnUse">
<stop stop-color="#4FB8A3"/>
<stop offset="0.515625" stop-color="#49D29D"/>
<stop offset="1" stop-color="#5BD276"/>
</linearGradient>
<clipPath id="clip0">
<rect width="32" height="32" fill="white"/>
</clipPath>
</defs>
</svg>
