<svg width="32" height="32" viewBox="0 0 32 32" fill="none" xmlns="http://www.w3.org/2000/svg">
<path d="M7.2262 11.3547C8.65148 11.3547 9.80689 10.1993 9.80689 8.77405C9.80689 7.34878 8.65148 6.19336 7.2262 6.19336C5.80092 6.19336 4.64551 7.34878 4.64551 8.77405C4.64551 10.1993 5.80092 11.3547 7.2262 11.3547Z" fill="url(#paint0_linear)"/>
<path d="M9.62166 7.62187L8.95992 6.8291L6.22607 9.10777L5.52666 8.40892L4.79688 9.13882L6.16209 10.5045L9.62166 7.62187Z" fill="#282828"/>
<path d="M19.0963 7.22559H11.3545V8.25784H19.0963V7.22559Z" fill="#282828"/>
<path d="M20.1286 9.29004H11.3545V10.3223H20.1286V9.29004Z" fill="#282828"/>
<path d="M9.62166 12.783L8.95992 11.9902L6.22607 14.2689L5.52666 13.5701L4.79688 14.3L6.16209 15.6656L9.62166 12.783Z" fill="#282828"/>
<path d="M22.1931 12.3867H11.3545V13.419H22.1931V12.3867Z" fill="#282828"/>
<path d="M13.419 14.4512H11.3545V15.4834H13.419V14.4512Z" fill="#282828"/>
<path d="M22.194 14.4512H14.4521V15.4834H22.194V14.4512Z" fill="#282828"/>
<path d="M9.62166 17.9451L8.95992 17.1523L6.22607 19.431L5.52666 18.7322L4.79688 19.4621L6.16209 20.8277L9.62166 17.9451Z" fill="#282828"/>
<path d="M22.1931 17.5488H11.3545V18.5811H22.1931V17.5488Z" fill="#282828"/>
<path d="M19.0963 19.6133H11.3545V20.6455H19.0963V19.6133Z" fill="#282828"/>
<path d="M22.1934 19.6133H20.1289V20.6455H22.1934V19.6133Z" fill="#282828"/>
<path d="M22.1934 7.22559H20.1289V8.25784H22.1934V7.22559Z" fill="#282828"/>
<path d="M30.4524 23.7419H29.4202H28.3879H27.3557H26.3234V2.58069C26.3234 1.15767 25.1657 0 23.7428 0H2.58167C1.15864 0 0.000976562 1.15767 0.000976562 2.58069C0.000976562 4.00372 1.15864 5.16138 2.58156 5.16138V32H24.2589V28.9031H26.3234V26.8386H27.3557H28.3879H29.4202H30.4524C31.3061 26.8386 32.0008 26.144 32.0008 25.2902C32.0008 24.4364 31.3061 23.7419 30.4524 23.7419ZM25.2912 2.58069V23.742H24.2589V4.12902H23.7427C22.8891 4.12902 22.1944 3.43435 22.1944 2.58058C22.1944 1.72681 22.8891 1.03214 23.7427 1.03214C24.5964 1.03214 25.2912 1.72692 25.2912 2.58069ZM1.03323 2.58069C1.03323 1.72703 1.7279 1.03225 2.58156 1.03225H21.6916C21.3639 1.46476 21.1621 1.99745 21.1621 2.58069C21.1621 3.16393 21.364 3.69652 21.6916 4.12913H2.58167C1.72801 4.12902 1.03323 3.43435 1.03323 2.58069ZM3.61392 30.9676V5.16127H23.2268V23.7419H8.69151L4.04642 25.2903L8.69151 26.8387H23.2266V30.9677H3.61392V30.9676ZM7.31044 25.2903L8.25901 24.9738V25.6061L7.31044 25.2903ZM25.2912 27.8709H24.2589V26.8386H25.2912V27.8709ZM26.3234 25.8064H9.29127V24.7741H26.3234V25.8064ZM28.3879 25.8064H27.3557V24.7741H28.3879V25.8064ZM30.4524 25.8064H29.4202V24.7741H30.4524C30.7373 24.7741 30.9685 25.0059 30.9685 25.2903C30.9685 25.5747 30.7374 25.8064 30.4524 25.8064Z" fill="#282828"/>
<defs>
<linearGradient id="paint0_linear" x1="4.64551" y1="8.77405" x2="9.96514" y2="8.77405" gradientUnits="userSpaceOnUse">
<stop stop-color="#4FB8A3"/>
<stop offset="0.515625" stop-color="#49D29D"/>
<stop offset="1" stop-color="#5BD276"/>
</linearGradient>
</defs>
</svg>
