<svg width="32" height="31" viewBox="0 0 32 31" fill="none" xmlns="http://www.w3.org/2000/svg">
<path d="M29.56 16.3789H20.5747H19.558H2.43988L0 22.25H2.2757V30.5673H19.5582H20.5748H29.7243V22.25H32L29.56 16.3789ZM1.50155 21.2715L3.12814 17.3574H19.3162L17.6896 21.2715H1.50155ZM19.5582 29.5888H3.29231V22.25H18.3774L19.5582 19.4084V29.5888ZM28.7076 29.5888H20.5747V19.4085L21.7554 22.2501H28.7076V29.5888ZM22.4438 21.2715L20.8172 17.3574H28.8724L30.499 21.2715H22.4438Z" fill="#282828"/>
<path d="M15.9995 15.4002L10.4082 10.9969H12.9497V0.233398H19.0494V10.997H21.5909L15.9995 15.4002Z" fill="url(#paint0_linear)"/>
<defs>
<linearGradient id="paint0_linear" x1="10.4082" y1="7.81681" x2="21.9337" y2="7.81681" gradientUnits="userSpaceOnUse">
<stop stop-color="#4FB8A3"/>
<stop offset="0.515625" stop-color="#49D29D"/>
<stop offset="1" stop-color="#5BD276"/>
</linearGradient>
</defs>
</svg>
