<svg width="41" height="42" viewBox="0 0 41 42" fill="none" xmlns="http://www.w3.org/2000/svg">
<g clip-path="url(#clip0)">
<path d="M28.4354 11.2433L8.59668 11.2433L8.59668 2.64648L28.4354 2.64648L28.4354 11.2433Z" fill="url(#paint0_linear)"/>
<path d="M31.7419 23.3649L30.4194 23.3649L30.4194 31.0821L10.5806 31.0821L10.5806 34.3886C10.5806 35.2496 10.0258 35.977 9.25807 36.2508L9.25807 34.3886L7.93548 34.3886L7.93548 31.3559L12.6214 26.67C13.0115 26.2805 13.2258 25.762 13.2258 25.2105C13.2258 24.0724 12.3 23.1466 11.1619 23.1466C10.6183 23.1466 10.0867 23.3668 9.70245 23.751L7.45539 25.9981L6.82187 24.7324C6.68498 24.458 6.6129 24.1511 6.6129 23.8449L6.6129 20.0267C6.6129 19.6107 6.74053 19.2126 6.98256 18.8734L9.54837 15.2812C9.79107 14.942 9.91936 14.5413 9.91936 14.1227L9.91936 13.8978C9.91936 12.7994 9.02463 11.9047 7.92556 11.9047C7.4124 11.9047 6.95545 12.1064 6.6129 12.4694L6.6129 3.30792C6.6129 2.56066 6.35434 1.87821 5.93442 1.32405L28.4355 1.32405C29.5293 1.32405 30.4194 2.21414 30.4194 3.30792L30.4194 11.0959L31.7419 11.0959L31.7419 3.30792C31.7419 1.48474 30.2587 0.00146485 28.4355 0.00146484L3.30645 0.00146484C1.48327 0.00146484 0 1.48474 -1.37333e-10 3.30792L-3.84532e-10 9.25953L5.29032 9.25953L5.29032 14.1868L2.6121 17.6295C2.23781 17.9614 1.9799 18.5116 1.89856 19.1571L1.34837 23.5626C1.33184 23.6988 1.32258 23.8357 1.32258 23.9726L1.32258 29.5949C1.32258 29.7324 1.33184 29.8686 1.34837 30.0049L1.89592 34.3886L-1.42826e-09 34.3886L-1.70293e-09 41.0015L9.25807 41.0015L9.25807 37.695L33.7258 37.695C35.549 37.695 37.0323 36.2117 37.0323 34.3886L37.0323 31.0821L31.7419 31.0821L31.7419 23.3649ZM1.32258 7.93695L1.32258 3.30792C1.32258 2.21414 2.21268 1.32405 3.30645 1.32405C4.40023 1.32405 5.29032 2.21414 5.29032 3.30792L5.29032 7.93695L1.32258 7.93695ZM2.66037 29.8415C2.65045 29.7595 2.64516 29.6769 2.64516 29.5949L2.64516 23.9726C2.64516 23.8906 2.65045 23.8079 2.66037 23.7266L3.21056 19.3217C3.25686 18.9521 3.39242 18.6942 3.49955 18.6108L7.39653 13.6333L7.45803 13.5387C7.6055 13.263 7.78537 13.2273 7.92556 13.2273C8.29589 13.2273 8.59677 13.5282 8.59677 13.8985L8.59677 14.1233C8.59677 14.2642 8.55379 14.3991 8.47245 14.5135L5.90665 18.1056C5.50326 18.669 5.29032 19.3336 5.29032 20.0267L5.29032 23.8449C5.29032 24.3548 5.41134 24.8666 5.63882 25.3236L6.20423 26.4531L5.95161 26.4531L5.95161 27.7757L7.54797 27.7757L10.6375 24.6861C10.7757 24.5486 10.9668 24.4692 11.1619 24.4692C11.5706 24.4692 11.9032 24.8018 11.9032 25.2105C11.9032 25.4089 11.8265 25.5947 11.6863 25.7349L6.6129 30.8083L6.6129 34.3886L3.22908 34.3886L2.66037 29.8415ZM7.93548 39.6789L1.32258 39.6789L1.32258 35.7111L7.93548 35.7111L7.93548 39.6789ZM35.7097 34.3886C35.7097 35.4823 34.8196 36.3724 33.7258 36.3724L11.2406 36.3724C11.6566 35.8196 11.9032 35.1325 11.9032 34.3886L11.9032 32.4047L35.7097 32.4047L35.7097 34.3886Z" fill="white"/>
<path d="M33.7259 24.4693C37.7433 24.4693 41 21.2125 41 17.1951C41 13.1777 37.7433 9.9209 33.7259 9.9209C29.7084 9.9209 26.4517 13.1777 26.4517 17.1951C26.4517 21.2125 29.7084 24.4693 33.7259 24.4693Z" fill="url(#paint1_linear)"/>
<path d="M25.1291 20.5015L11.9033 20.5015L11.9033 21.824L25.1291 21.824L25.1291 20.5015Z" fill="white"/>
<path d="M17.1936 15.2109L13.2258 15.2109L13.2258 16.5335L17.1936 16.5335L17.1936 15.2109Z" fill="white"/>
<path d="M23.8065 15.2109L19.8387 15.2109L19.8387 16.5335L23.8065 16.5335L23.8065 15.2109Z" fill="white"/>
<path d="M17.1936 17.8564L13.2258 17.8564L13.2258 19.179L17.1936 19.179L17.1936 17.8564Z" fill="white"/>
<path d="M23.8065 17.8564L19.8387 17.8564L19.8387 19.179L23.8065 19.179L23.8065 17.8564Z" fill="white"/>
<path d="M28.4355 25.792L17.8549 25.792L17.8549 27.1146L28.4355 27.1146L28.4355 25.792Z" fill="white"/>
<path d="M28.4354 28.437L24.4677 28.437L24.4677 29.7596L28.4354 29.7596L28.4354 28.437Z" fill="white"/>
<path d="M21.8226 28.437L17.8549 28.437L17.8549 29.7596L21.8226 29.7596L21.8226 28.437Z" fill="white"/>
<path d="M31.7419 15.8724C31.7419 16.9661 32.632 17.8562 33.7258 17.8562C34.0908 17.8562 34.3871 18.1532 34.3871 18.5175C34.3871 18.8819 34.0908 19.1788 33.7258 19.1788C33.3608 19.1788 33.0645 18.8819 33.0645 18.5175L31.7419 18.5175C31.7419 19.3785 32.2968 20.106 33.0645 20.3797L33.0645 21.824L34.3871 21.824L34.3871 20.3797C35.1549 20.106 35.7097 19.3785 35.7097 18.5175C35.7097 17.4238 34.8196 16.5337 33.7258 16.5337C33.3608 16.5337 33.0645 16.2367 33.0645 15.8724C33.0645 15.508 33.3608 15.2111 33.7258 15.2111C34.0908 15.2111 34.3871 15.508 34.3871 15.8724L35.7097 15.8724C35.7097 15.0114 35.1549 14.284 34.3871 14.0102L34.3871 12.5659L33.0645 12.5659L33.0645 14.0102C32.2968 14.284 31.7419 15.0114 31.7419 15.8724Z" fill="white"/>
<path d="M38.3548 16.5337L37.0322 16.5337L37.0322 17.8563L38.3548 17.8563L38.3548 16.5337Z" fill="white"/>
<path d="M30.4194 16.5337L29.0968 16.5337L29.0968 17.8563L30.4194 17.8563L30.4194 16.5337Z" fill="white"/>
</g>
<defs>
<linearGradient id="paint0_linear" x1="8.59668" y1="6.94487" x2="29.0437" y2="6.94487" gradientUnits="userSpaceOnUse">
<stop stop-color="#4FB8A3"/>
<stop offset="0.515625" stop-color="#49D29D"/>
<stop offset="1" stop-color="#5BD276"/>
</linearGradient>
<linearGradient id="paint1_linear" x1="26.4517" y1="17.1951" x2="41.4461" y2="17.1951" gradientUnits="userSpaceOnUse">
<stop stop-color="#4FB8A3"/>
<stop offset="0.515625" stop-color="#49D29D"/>
<stop offset="1" stop-color="#5BD276"/>
</linearGradient>
<clipPath id="clip0">
<rect y="0.00146484" width="41" height="41" fill="white"/>
</clipPath>
</defs>
</svg>
