<svg width="152" height="152" viewBox="0 0 152 152" fill="none" xmlns="http://www.w3.org/2000/svg">
<g opacity="0.15">
<g clip-path="url(#clip0)">
<path d="M34.3232 53.9365C41.0932 53.9365 46.5814 48.4483 46.5814 41.6782C46.5814 34.9081 41.0932 29.4199 34.3232 29.4199C27.5531 29.4199 22.0649 34.9081 22.0649 41.6782C22.0649 48.4483 27.5531 53.9365 34.3232 53.9365Z" fill="url(#paint0_linear)"/>
<path d="M45.7016 36.2061L42.5583 32.4404L29.5725 43.2641L26.2504 39.9446L22.7839 43.4116L29.2687 49.8984L45.7016 36.2061Z" fill="#282828"/>
<path d="M90.7091 34.3223H53.9353V39.2255H90.7091V34.3223Z" fill="#282828"/>
<path d="M95.6123 44.1299H53.9353V49.0331H95.6123V44.1299Z" fill="#282828"/>
<path d="M45.7016 60.7207L42.5583 56.9551L29.5725 67.7788L26.2504 64.4592L22.7839 67.9262L29.2687 74.4131L45.7016 60.7207Z" fill="#282828"/>
<path d="M105.419 58.8398H53.9353V63.743H105.419V58.8398Z" fill="#282828"/>
<path d="M63.7417 68.6445H53.9353V73.5477H63.7417V68.6445Z" fill="#282828"/>
<path d="M105.419 68.6445H68.645V73.5477H105.419V68.6445Z" fill="#282828"/>
<path d="M45.7016 85.2393L42.5583 81.4736L29.5725 92.2973L26.2504 88.9777L22.7839 92.4447L29.2687 98.9316L45.7016 85.2393Z" fill="#282828"/>
<path d="M105.419 83.3545H53.9353V88.2577H105.419V83.3545Z" fill="#282828"/>
<path d="M90.7091 93.1631H53.9353V98.0663H90.7091V93.1631Z" fill="#282828"/>
<path d="M105.42 93.1631H95.6138V98.0663H105.42V93.1631Z" fill="#282828"/>
<path d="M105.42 34.3223H95.6138V39.2255H105.42V34.3223Z" fill="#282828"/>
<path d="M144.648 112.774H139.745H134.842H129.939H125.035V12.2583C125.035 5.49892 119.537 0 112.778 0H12.2622C5.50282 0 0.00390625 5.49892 0.00390625 12.2583C0.00390625 19.0177 5.50282 24.5166 12.2617 24.5166V152H115.229V137.29H125.035V127.483H129.939H134.842H139.745H144.648C148.703 127.483 152.003 124.184 152.003 120.128C152.003 116.073 148.703 112.774 144.648 112.774ZM120.132 12.2583V112.774H115.229V19.6128H112.777C108.722 19.6128 105.423 16.3132 105.423 12.2578C105.423 8.20235 108.722 4.90269 112.777 4.90269C116.832 4.90269 120.132 8.20287 120.132 12.2583ZM4.90712 12.2583C4.90712 8.20339 8.20678 4.90321 12.2617 4.90321H103.035C101.478 6.95759 100.519 9.48791 100.519 12.2583C100.519 15.0287 101.478 17.5585 103.035 19.6134H12.2622C8.2073 19.6128 4.90712 16.3132 4.90712 12.2583ZM17.1654 147.096V24.516H110.326V112.774H41.284L19.2198 120.129L41.284 127.484H110.326V147.097H17.1654V147.096ZM34.7239 120.129L39.2296 118.626V121.629L34.7239 120.129ZM120.132 132.387H115.229V127.483H120.132V132.387ZM125.035 122.58H44.1328V117.677H125.035V122.58ZM134.842 122.58H129.939V117.677H134.842V122.58ZM144.648 122.58H139.745V117.677H144.648C146.001 117.677 147.1 118.778 147.1 120.129C147.1 121.48 146.002 122.58 144.648 122.58Z" fill="#282828"/>
</g>
</g>
<defs>
<linearGradient id="paint0_linear" x1="22.0649" y1="41.6782" x2="47.3331" y2="41.6782" gradientUnits="userSpaceOnUse">
<stop stop-color="#4FB8A3"/>
<stop offset="0.515625" stop-color="#49D29D"/>
<stop offset="1" stop-color="#5BD276"/>
</linearGradient>
<clipPath id="clip0">
<rect width="152" height="152" fill="white"/>
</clipPath>
</defs>
</svg>
