<svg width="152" height="152" viewBox="0 0 152 152" fill="none" xmlns="http://www.w3.org/2000/svg">
<g opacity="0.15">
<path d="M140.41 80.998H97.7296H92.9007H11.5894L0 109.972H10.8096V151.018H92.9012H97.7301H141.19V109.972H152L140.41 80.998ZM7.13238 105.143L14.8587 85.827H91.7521L84.0258 105.143H7.13238ZM92.9012 146.189H15.6385V109.972H87.2925L92.9012 95.9484V146.189ZM136.361 146.189H97.7296V95.9489L103.338 109.972H136.361V146.189ZM106.608 105.143L98.8819 85.827H137.144L144.87 105.143H106.608Z" fill="#282828"/>
<path d="M75.9989 75.9984L49.4401 54.268H61.5122V1.15039H90.4857V54.2685H102.558L75.9989 75.9984Z" fill="url(#paint0_linear)"/>
</g>
<defs>
<linearGradient id="paint0_linear" x1="49.4401" y1="38.5744" x2="104.186" y2="38.5744" gradientUnits="userSpaceOnUse">
<stop stop-color="#4FB8A3"/>
<stop offset="0.515625" stop-color="#49D29D"/>
<stop offset="1" stop-color="#5BD276"/>
</linearGradient>
</defs>
</svg>
