<svg width="152" height="152" viewBox="0 0 152 152" fill="none" xmlns="http://www.w3.org/2000/svg">
<g opacity="0.15">
<path d="M47.5 68.875C40.9521 68.875 35.625 63.5479 35.625 57C35.625 50.4521 40.9521 45.125 47.5 45.125C54.0479 45.125 59.375 50.4521 59.375 57C59.375 63.5479 54.0479 68.875 47.5 68.875Z" fill="url(#paint0_linear)"/>
<path d="M76 68.875C69.4521 68.875 64.125 63.5479 64.125 57C64.125 50.4521 69.4521 45.125 76 45.125C82.5479 45.125 87.875 50.4521 87.875 57C87.875 63.5479 82.5479 68.875 76 68.875Z" fill="url(#paint1_linear)"/>
<path d="M47.5 102.125C40.9521 102.125 35.625 96.7979 35.625 90.25C35.625 83.7021 40.9521 78.375 47.5 78.375C54.0479 78.375 59.375 83.7021 59.375 90.25C59.375 96.7979 54.0479 102.125 47.5 102.125Z" fill="url(#paint2_linear)"/>
<path d="M76 102.125C69.4521 102.125 64.125 96.7979 64.125 90.25C64.125 83.7021 69.4521 78.375 76 78.375C82.5479 78.375 87.875 83.7021 87.875 90.25C87.875 96.7979 82.5479 102.125 76 102.125Z" fill="url(#paint3_linear)"/>
<path d="M109.811 79.6289L105.31 88.6278C104.813 89.6229 103.797 90.2523 102.686 90.2523C101.063 90.2523 99.75 88.9389 99.75 87.3168V79.6479L99.0779 79.6693L98.5578 79.9685C94.8979 82.087 92.625 86.0272 92.625 90.2523C92.625 96.8002 97.9521 102.127 104.5 102.127C111.048 102.127 116.375 96.8002 116.375 90.2523C116.375 85.7279 113.86 81.6572 109.811 79.6289Z" fill="url(#paint4_linear)"/>
<path d="M14.25 92.625H19V97.375H14.25V92.625Z" fill="#282828"/>
<path d="M14.25 111.625H19V116.375H14.25V111.625Z" fill="#282828"/>
<path d="M14.25 102.125H19V106.875H14.25V102.125Z" fill="#282828"/>
<path d="M118.751 60.7681L115.68 57.6973L112.322 61.0555L118.751 67.4846L134.68 51.5555L131.322 48.1973L118.751 60.7681Z" fill="#282828"/>
<path d="M142.5 40.375H140.125V23.75C140.125 17.2021 134.798 11.875 128.25 11.875H114V9.5C114 5.57175 110.803 2.375 106.875 2.375H102.125C98.1967 2.375 95 5.57175 95 9.5V11.875H85.5V9.5C85.5 5.57175 82.3033 2.375 78.375 2.375H73.625C69.6967 2.375 66.5 5.57175 66.5 9.5V11.875H57V9.5C57 5.57175 53.8032 2.375 49.875 2.375H45.125C41.1968 2.375 38 5.57175 38 9.5V11.875H23.75C17.2021 11.875 11.875 17.2021 11.875 23.75V45.9562C6.34838 47.918 2.375 53.1834 2.375 59.375V128.811L11.0627 146.188C12.1244 148.307 14.2548 149.625 16.625 149.625C18.9953 149.625 21.1256 148.307 22.1873 146.188L30.875 128.811V125.875H128.25C134.798 125.875 140.125 120.548 140.125 114V73.625H142.5C146.428 73.625 149.625 70.4283 149.625 66.5V47.5C149.625 43.5718 146.428 40.375 142.5 40.375ZM99.75 9.5C99.75 8.19137 100.814 7.125 102.125 7.125H106.875C108.186 7.125 109.25 8.19137 109.25 9.5V19C109.25 20.3086 108.186 21.375 106.875 21.375H102.125C100.814 21.375 99.75 20.3086 99.75 19V9.5ZM71.25 9.5C71.25 8.19137 72.314 7.125 73.625 7.125H78.375C79.686 7.125 80.75 8.19137 80.75 9.5V19C80.75 20.3086 79.686 21.375 78.375 21.375H73.625C72.314 21.375 71.25 20.3086 71.25 19V9.5ZM42.75 9.5C42.75 8.19137 43.814 7.125 45.125 7.125H49.875C51.186 7.125 52.25 8.19137 52.25 9.5V19C52.25 20.3086 51.186 21.375 49.875 21.375H45.125C43.814 21.375 42.75 20.3086 42.75 19V9.5ZM16.625 23.75C16.625 19.8218 19.8218 16.625 23.75 16.625H38V19C38 22.9282 41.1968 26.125 45.125 26.125H49.875C53.8032 26.125 57 22.9282 57 19V16.625H66.5V19C66.5 22.9282 69.6967 26.125 73.625 26.125H78.375C82.3033 26.125 85.5 22.9282 85.5 19V16.625H95V19C95 22.9282 98.1967 26.125 102.125 26.125H106.875C110.803 26.125 114 22.9282 114 19V16.625H128.25C132.178 16.625 135.375 19.8218 135.375 23.75V40.375H130.625V35.625C130.625 33.0054 128.495 30.875 125.875 30.875H26.125C23.5054 30.875 21.375 33.0054 21.375 35.625V45.9562C19.8859 45.429 18.2922 45.125 16.625 45.125V23.75ZM102.686 92.625C104.709 92.625 106.526 91.5016 107.436 89.6895L115.468 73.625H125.875V111.625H30.875V59.375C30.875 55.1689 29.032 51.395 26.125 48.7825V35.625H125.875V40.375H104.5C100.572 40.375 97.375 43.5718 97.375 47.5V87.3145C97.375 90.2429 99.7571 92.625 102.686 92.625ZM7.125 125.875V83.125H26.125V125.875H7.125ZM26.125 78.375H7.125V73.625H26.125V78.375ZM16.625 49.875C21.8643 49.875 26.125 54.1357 26.125 59.375V68.875H7.125V59.375C7.125 54.1357 11.3857 49.875 16.625 49.875ZM17.9384 144.063C17.4373 145.067 15.8127 145.065 15.314 144.063L8.59275 130.625H24.6572L17.9384 144.063ZM135.375 114C135.375 117.928 132.178 121.125 128.25 121.125H30.875V116.375H125.875C128.495 116.375 130.625 114.245 130.625 111.625V73.625H135.375V114ZM144.875 66.5C144.875 67.8086 143.811 68.875 142.5 68.875H112.532L103.189 87.5639C102.952 88.0341 102.125 87.837 102.125 87.3145V47.5C102.125 46.1914 103.189 45.125 104.5 45.125H142.5C143.811 45.125 144.875 46.1914 144.875 47.5V66.5Z" fill="#282828"/>
</g>
<defs>
<linearGradient id="paint0_linear" x1="35.625" y1="57" x2="60.1032" y2="57" gradientUnits="userSpaceOnUse">
<stop stop-color="#4FB8A3"/>
<stop offset="0.515625" stop-color="#49D29D"/>
<stop offset="1" stop-color="#5BD276"/>
</linearGradient>
<linearGradient id="paint1_linear" x1="64.125" y1="57" x2="88.6032" y2="57" gradientUnits="userSpaceOnUse">
<stop stop-color="#4FB8A3"/>
<stop offset="0.515625" stop-color="#49D29D"/>
<stop offset="1" stop-color="#5BD276"/>
</linearGradient>
<linearGradient id="paint2_linear" x1="35.625" y1="90.25" x2="60.1032" y2="90.25" gradientUnits="userSpaceOnUse">
<stop stop-color="#4FB8A3"/>
<stop offset="0.515625" stop-color="#49D29D"/>
<stop offset="1" stop-color="#5BD276"/>
</linearGradient>
<linearGradient id="paint3_linear" x1="64.125" y1="90.25" x2="88.6032" y2="90.25" gradientUnits="userSpaceOnUse">
<stop stop-color="#4FB8A3"/>
<stop offset="0.515625" stop-color="#49D29D"/>
<stop offset="1" stop-color="#5BD276"/>
</linearGradient>
<linearGradient id="paint4_linear" x1="92.625" y1="90.8781" x2="117.103" y2="90.8781" gradientUnits="userSpaceOnUse">
<stop stop-color="#4FB8A3"/>
<stop offset="0.515625" stop-color="#49D29D"/>
<stop offset="1" stop-color="#5BD276"/>
</linearGradient>
</defs>
</svg>
