<svg width="152" height="152" viewBox="0 0 152 152" fill="none" xmlns="http://www.w3.org/2000/svg">
<g opacity="0.15">
<path d="M129 17.7803C111.508 17.7803 94.4073 14.7283 78.1709 8.71242L77.2439 8.36816L76.3194 8.71193C60.081 14.7283 42.9798 17.7799 25.4878 17.7799H19.9334V66.2606H7.47497C3.35369 66.2606 0 69.3678 0 73.1862V112.433C0 116.251 3.35369 119.359 7.47497 119.359H29.9004C29.9052 119.359 29.9079 119.359 29.9126 119.359C35.7982 128.023 43.9536 135.179 53.6766 140.09L77.2433 152L100.81 140.09C121.626 129.572 134.553 109.392 134.553 87.4263V17.7803H129ZM4.98296 112.433V73.1862C4.98296 71.9141 6.09926 70.8778 7.47444 70.8778H29.8999C31.2751 70.8778 32.3914 71.9145 32.3914 73.1862V112.433C32.3914 113.705 31.2751 114.741 29.8999 114.741H7.47497C6.09926 114.741 4.98296 113.705 4.98296 112.433ZM37.3759 77.7832C45.6961 77.3655 52.3264 70.9611 52.3264 63.1515V51.2551C52.3264 48.0741 55.1198 45.4835 58.5559 45.4835C61.992 45.4835 64.7854 48.0736 64.7854 51.2551V65.7854C64.7854 69.8667 68.3687 73.1867 72.7739 73.1867H91.0408C95.7973 73.1867 99.6698 76.7721 99.6698 81.1814V106.747C99.6698 111.156 95.7979 114.741 91.0408 114.741H54.3272C52.3487 114.741 50.5148 113.829 49.416 112.306C47.3929 109.494 44.0062 107.816 40.3586 107.816H37.3759V77.7832ZM129.57 87.4258C129.57 107.7 117.638 126.328 98.4259 136.036L77.2439 146.741L56.0618 136.036C47.3929 131.654 40.0673 125.344 34.6803 117.712C36.1926 116.535 37.1872 114.827 37.3265 112.887C42.3546 120.923 49.5957 127.508 58.449 131.981L77.2444 141.481L96.0397 131.981C113.649 123.084 124.588 106.012 124.588 87.4278V52.4091H119.604V87.4283C119.604 104.32 109.662 119.841 93.6551 127.928L77.2444 136.221L60.8337 127.928C53.8121 124.38 47.9138 119.366 43.481 113.298C44.1763 113.702 44.7993 114.215 45.2703 114.868C47.2935 117.68 50.6801 119.359 54.3278 119.359H91.0413C98.5487 119.359 104.654 113.7 104.654 106.747V81.1814C104.654 74.2278 98.5493 68.5695 91.0413 68.5695H72.7744C71.1175 68.5695 69.7694 67.3205 69.7694 65.7854V51.2551C69.7694 45.5273 64.7386 40.8663 58.5564 40.8663C52.3742 40.8663 47.3434 45.5273 47.3434 51.2551V63.149C47.3434 68.4129 42.9356 72.6927 37.3664 73.1059C37.3414 71.0999 36.3819 69.3127 34.8844 68.0617V31.3665C49.3565 30.5425 63.592 27.8022 77.2439 23.2077C90.8962 27.8018 105.129 30.542 119.603 31.3665V33.9408H124.587V26.9734L122.21 26.8719C107.125 26.2326 92.2863 23.4436 78.1082 18.5841L77.2433 18.2861L76.3784 18.5816C62.1977 23.4411 47.3594 26.2302 32.2771 26.8694L29.8999 26.9734V66.2611H24.9164V22.3975H25.4868C43.2854 22.3975 60.6902 19.3499 77.2428 13.3385C93.7954 19.3499 111.2 22.3975 128.999 22.3975H129.569L129.57 87.4258Z" fill="#282828"/>
<path d="M124.586 43.1719H119.603V47.7891H124.586V43.1719Z" fill="#282828"/>
<path d="M27.4075 105.508H9.96558V110.125H27.4075V105.508Z" fill="#282828"/>
<g clip-path="url(#clip0)">
<path d="M124.058 30.3323L71.2743 30.3138L71.2635 55.7014L124.048 55.7199L133.368 43.0293L124.058 30.3323Z" fill="url(#paint0_linear)"/>
<path d="M82.3194 43.0145C82.9104 42.4371 83.2343 41.6904 83.2346 40.8978C83.2353 39.1814 81.6989 37.7844 79.8096 37.7838L74.831 37.782L74.8266 48.239L79.8053 48.2406C80.7206 48.2417 81.5815 47.9182 82.2292 47.3302C82.8767 46.7424 83.2334 45.9603 83.2331 45.1289C83.2333 44.3139 82.8866 43.5696 82.3194 43.0145ZM79.8062 46.2464L77.0226 46.2454L77.0254 39.7772L79.8089 39.7782C80.4874 39.7799 81.0383 40.2808 81.0395 40.897C81.0394 41.1962 80.912 41.4768 80.6791 41.6882C80.4461 41.8997 80.1371 42.0153 79.808 42.015L77.4792 42.0142L77.4784 44.0084L79.8071 44.0092C80.4856 44.011 81.0365 44.5119 81.0377 45.1281C81.0376 45.4272 80.9102 45.7078 80.6773 45.9192C80.4443 46.1308 80.1353 46.2463 79.8062 46.2464Z" fill="#282828"/>
<path d="M114.74 37.7947L112.09 37.7938L112.085 48.2508L114.736 48.2517C116.272 48.2522 117.719 47.7089 118.806 46.7221C119.893 45.7353 120.492 44.4216 120.493 43.0254C120.493 40.1417 117.914 37.7966 114.74 37.7947ZM114.736 46.2575L114.282 46.2573L114.284 39.7891L114.739 39.7893C116.701 39.7899 118.298 41.2418 118.298 43.0246C118.296 43.8884 117.927 44.7008 117.254 45.3113C116.581 45.9216 115.687 46.2571 114.736 46.2575Z" fill="#282828"/>
<path d="M86.3361 48.2415L86.3397 39.7791L89.1233 39.78C89.8017 39.7817 90.3526 40.2827 90.3538 40.8989C90.3537 41.198 90.2263 41.4786 89.9934 41.69C89.7604 41.9016 89.4514 42.0171 89.1223 42.0169L86.7936 42.016L86.7927 44.0103L89.0406 44.0111L90.2032 48.2427L92.4667 48.2435L91.1375 43.4046C91.2787 43.3102 91.4194 43.215 91.546 43.1001C92.1935 42.5123 92.5502 41.7302 92.5499 40.8988C92.5506 39.1823 91.0142 37.7854 89.1249 37.7847L84.1455 37.7837L84.1411 48.2407L86.3361 48.2415Z" fill="#282828"/>
<path d="M95.6509 48.244L95.6527 44.0127L99.6672 44.0141L99.6654 48.2454L101.861 48.2462L101.865 37.7892L93.4599 37.7863L93.4555 48.2433L95.6509 48.244ZM95.6543 39.7815L99.6689 39.7829L99.6679 42.0197L95.6533 42.0183L95.6543 39.7815Z" fill="#282828"/>
<path d="M111.177 48.2501L111.181 37.7931L108.986 37.7925L108.982 43.9582L104.462 37.7909L102.776 37.7902L102.772 48.2472L104.967 48.248L104.969 42.0816L109.491 48.2495L111.177 48.2501Z" fill="#282828"/>
</g>
</g>
<defs>
<linearGradient id="paint0_linear" x1="77.4867" y1="24.6742" x2="115.091" y2="66.0981" gradientUnits="userSpaceOnUse">
<stop stop-color="#4FB8A3"/>
<stop offset="0.515625" stop-color="#49D29D"/>
<stop offset="1" stop-color="#5BD276"/>
</linearGradient>
<clipPath id="clip0">
<rect width="63.971" height="63.9758" transform="matrix(0.739896 0.672721 -0.740413 0.672152 104.666 0)" fill="white"/>
</clipPath>
</defs>
</svg>
