<svg width="152" height="152" viewBox="0 0 152 152" fill="none" xmlns="http://www.w3.org/2000/svg">
<g opacity="0.15">
<g clip-path="url(#clip0)">
<path d="M75.9993 85.8076C46.2587 85.8076 22.064 110.002 22.064 139.743V152.001H129.935V139.743C129.935 110.002 105.74 85.8076 75.9993 85.8076ZM97.7059 95.8444C90.7288 110.932 80.5273 132.765 76.1342 141.68L54.3051 95.8372C60.8559 92.5865 68.2032 90.7109 75.9993 90.7109C83.8001 90.7104 91.1525 92.5885 97.7059 95.8444ZM101.371 99.6053L107.522 126.259L82.0209 140.831C85.357 134.062 91.1036 121.812 101.371 99.6053ZM70.4216 141.086L44.4759 126.261L50.6415 99.5486L70.4216 141.086ZM26.9673 139.743C26.9673 124.408 34.0525 110.709 45.1091 101.711L38.8796 128.709L71.0595 147.098H26.9673V139.743ZM125.031 147.097H80.9392L113.121 128.708L106.889 101.711C117.946 110.708 125.031 124.408 125.031 139.743V147.097H125.031Z" fill="#282828"/>
<path d="M106.572 71.0969H112.775C116.83 71.0969 120.13 67.7968 120.13 63.7419V56.387H115.227V63.7419C115.227 65.0929 114.129 66.1936 112.775 66.1936H109.919C113.273 60.4151 115.227 53.7294 115.227 46.5809C115.227 24.9526 97.6292 7.35547 76.0014 7.35547C54.3736 7.35547 36.776 24.9531 36.776 46.5809C36.776 68.2087 54.3736 85.8063 76.0014 85.8063C88.3544 85.8068 99.3771 80.0525 106.572 71.0969ZM41.6783 46.5809C41.6783 27.6545 57.0745 12.2583 76.0009 12.2583C94.9274 12.2583 110.324 27.6545 110.324 46.5809C110.324 53.872 108.022 60.6287 104.129 66.1936H87.8082C86.7934 63.3471 84.0962 61.2903 80.9042 61.2903H71.0976C67.0428 61.2903 63.7426 64.5904 63.7426 68.6452C63.7426 72.7001 67.0428 76.0002 71.0976 76.0002H80.9042C84.0962 76.0002 86.7929 73.9434 87.8082 71.0969H99.9779C93.7849 77.1524 85.3272 80.9035 76.0035 80.9035C57.0745 80.9035 41.6783 65.5073 41.6783 46.5809ZM83.3559 68.6452C83.3559 69.9962 82.2577 71.0969 80.9042 71.0969H71.0976C69.7441 71.0969 68.646 69.9962 68.646 68.6452C68.646 67.2943 69.7441 66.1936 71.0976 66.1936H80.9042C82.2572 66.1936 83.3559 67.2948 83.3559 68.6452Z" fill="#282828"/>
<path d="M76.0006 4.90331C93.7182 4.90331 109.536 16.134 115.363 32.8492L119.994 31.2362C113.478 12.5522 95.7997 0 76.0006 0C56.2041 0 38.5256 12.5522 32.0088 31.2336L36.6397 32.8492C42.4677 16.134 58.2856 4.90331 76.0006 4.90331Z" fill="#282828"/>
<path d="M36.775 63.743H34.3233C24.8626 63.743 17.1622 56.0426 17.1622 46.582C17.1622 37.1213 24.8626 29.4209 34.3233 29.4209H36.775V63.743Z" fill="url(#paint0_linear)"/>
<path d="M117.678 63.7436H115.227V29.4209H117.678C127.139 29.4209 134.839 37.1213 134.839 46.582C134.839 56.0426 127.139 63.7436 117.678 63.7436Z" fill="url(#paint1_linear)"/>
</g>
</g>
<defs>
<linearGradient id="paint0_linear" x1="17.1622" y1="46.582" x2="37.3763" y2="46.582" gradientUnits="userSpaceOnUse">
<stop stop-color="#4FB8A3"/>
<stop offset="0.515625" stop-color="#49D29D"/>
<stop offset="1" stop-color="#5BD276"/>
</linearGradient>
<linearGradient id="paint1_linear" x1="115.227" y1="46.5822" x2="135.441" y2="46.5822" gradientUnits="userSpaceOnUse">
<stop stop-color="#4FB8A3"/>
<stop offset="0.515625" stop-color="#49D29D"/>
<stop offset="1" stop-color="#5BD276"/>
</linearGradient>
<clipPath id="clip0">
<rect width="152" height="152" fill="white"/>
</clipPath>
</defs>
</svg>
