<svg width="152" height="152" viewBox="0 0 152 152" fill="none" xmlns="http://www.w3.org/2000/svg">
<g opacity="0.15">
<path d="M31.871 61.2903C42.7029 61.2903 51.4839 52.5093 51.4839 41.6774C51.4839 30.8454 42.7029 22.0645 31.871 22.0645C21.0391 22.0645 12.2581 30.8454 12.2581 41.6774C12.2581 52.5093 21.0391 61.2903 31.871 61.2903Z" fill="url(#paint0_linear)"/>
<path d="M132.387 0.0367742L20.8387 0C9.348 0 0 9.348 0 20.8387V152H115.226V52.7955L120.306 49.4098L129.935 54.2248L139.742 49.3215L152 55.4506V20.8387C152 9.75987 143.309 0.671742 132.387 0.0367742ZM110.323 20.8387V147.097H4.90323V20.8387C4.90323 12.0521 12.0521 4.90323 20.8387 4.90323H117.746C113.211 8.73019 110.323 14.4547 110.323 20.8387ZM147.097 47.5172L139.742 43.8397L129.935 48.743L119.953 43.7515L115.226 46.9043V20.8387C115.226 12.0521 122.375 4.90323 131.161 4.90323C139.948 4.90323 147.097 12.0521 147.097 20.8387V47.5172Z" fill="#282828"/>
<path d="M72.8305 53.2171L83.3553 42.6923L93.8801 53.2171L97.3467 49.7505L86.8219 39.2257L97.3467 28.701L93.8801 25.2344L83.3553 35.7591L72.8305 25.2344L69.364 28.701L79.8887 39.2257L69.364 49.7505L72.8305 53.2171Z" fill="#282828"/>
<path d="M45.9608 31.0468L42.2981 27.791L24.7936 47.4799L21.6531 42.7679L17.5736 45.4892L24.2395 55.4869L45.9608 31.0468Z" fill="#282828"/>
<path d="M51.4839 61.29H12.2581V66.1933H51.4839V61.29Z" fill="#282828"/>
<path d="M51.4839 73.5479H12.2581V78.4511H51.4839V73.5479Z" fill="#282828"/>
<path d="M51.4839 85.8076H12.2581V90.7109H51.4839V85.8076Z" fill="#282828"/>
<path d="M51.4839 98.0645H12.2581V102.968H51.4839V98.0645Z" fill="#282828"/>
<path d="M51.4839 110.322H12.2581V115.225H51.4839V110.322Z" fill="#282828"/>
<path d="M31.871 122.58H12.2581V127.483H31.871V122.58Z" fill="#282828"/>
<path d="M102.968 61.29H63.7419V66.1933H102.968V61.29Z" fill="#282828"/>
<path d="M102.968 73.5479H63.7419V78.4511H102.968V73.5479Z" fill="#282828"/>
<path d="M102.968 85.8076H63.7419V90.7109H102.968V85.8076Z" fill="#282828"/>
<path d="M93.1612 98.0645H63.7419V102.968H93.1612V98.0645Z" fill="#282828"/>
</g>
<defs>
<linearGradient id="paint0_linear" x1="12.2581" y1="41.6773" x2="52.6865" y2="41.6773" gradientUnits="userSpaceOnUse">
<stop stop-color="#4FB8A3"/>
<stop offset="0.515625" stop-color="#49D29D"/>
<stop offset="1" stop-color="#5BD276"/>
</linearGradient>
</defs>
</svg>
