<svg width="58" height="58" viewBox="0 0 58 58" fill="none" xmlns="http://www.w3.org/2000/svg">
<g clip-path="url(#clip0)">
<path d="M57.0324 52.2005H51.2324V31.7903C51.5499 31.8603 51.8739 31.8972 52.199 31.9005C54.867 31.8973 57.0292 29.7352 57.0324 27.0672C57.0324 26.9966 57.0246 26.9263 57.0092 26.8574L55.0758 18.1574C54.9775 17.7151 54.5854 17.4006 54.1324 17.4005H51.2324V14.5005C51.2324 13.9666 50.7995 13.5338 50.2657 13.5338H42.5324V11.6005H44.4657C44.9995 11.6005 45.4324 11.1677 45.4324 10.6338V0.967155C45.4324 0.433313 44.9995 0.000488281 44.4657 0.000488281H13.5324C12.9985 0.000488281 12.5657 0.433313 12.5657 0.967155V10.6338C12.5657 11.1677 12.9985 11.6005 13.5324 11.6005H15.4657V13.5338H7.73236C7.19851 13.5338 6.76569 13.9666 6.76569 14.5005V17.4005H3.86569C3.41269 17.4006 3.02046 17.7151 2.92222 18.1574L0.98889 26.8574C0.973423 26.9263 0.96569 26.9966 0.96569 27.0672C0.968832 29.7352 3.13102 31.8973 5.79902 31.9005C6.12419 31.8972 6.44814 31.8603 6.76569 31.7903V52.2005H0.96569C0.431848 52.2005 -0.000976562 52.6333 -0.000976562 53.1672V57.0338C-0.000976562 57.5677 0.431848 58.0005 0.96569 58.0005H57.0324C57.5662 58.0005 57.999 57.5677 57.999 57.0338V53.1672C57.999 52.6333 57.5662 52.2005 57.0324 52.2005ZM53.359 19.3338L55.099 27.1638C55.0468 28.7275 53.7637 29.968 52.199 29.9672C51.6893 29.967 51.1889 29.8312 50.749 29.5737C50.0722 29.18 49.5825 28.5307 49.3899 27.7719C49.3268 27.5424 49.2962 27.3052 49.299 27.0672C49.299 27.0316 49.2971 26.9961 49.2932 26.9608L48.4455 19.3338H53.359ZM44.4657 36.7338H34.799C34.2652 36.7338 33.8324 37.1666 33.8324 37.7005V52.2005H8.69902V30.899C9.06454 30.6292 9.38995 30.309 9.66569 29.9478C11.2423 32.0833 14.2516 32.5364 16.387 30.9598C16.773 30.6749 17.1141 30.3338 17.399 29.9478C18.9757 32.0833 21.9849 32.5364 24.1204 30.9598C24.5063 30.6749 24.8474 30.3338 25.1324 29.9478C26.709 32.0833 29.7182 32.5364 31.8537 30.9598C32.2397 30.6749 32.5808 30.3338 32.8657 29.9478C34.4423 32.0833 37.4516 32.5364 39.587 30.9598C39.973 30.6749 40.3141 30.3338 40.599 29.9478C42.1765 32.0833 45.1865 32.5357 47.3219 30.9582C47.7072 30.6737 48.0478 30.333 48.3324 29.9478C48.608 30.3081 48.9335 30.6275 49.299 30.8961V52.2005H45.4324V37.7005C45.4324 37.1666 44.9995 36.7338 44.4657 36.7338ZM43.499 38.6672V52.2005H35.7657V38.6672H43.499ZM10.6324 27.1174L11.5024 19.3338H17.2908L16.443 26.9608C16.4374 26.9961 16.4339 27.0315 16.4324 27.0672C16.4347 27.3132 16.402 27.5582 16.3357 27.7951C15.9274 29.3438 14.341 30.2683 12.7923 29.86C11.774 29.5916 10.9813 28.7923 10.7213 27.7719C10.6629 27.5586 10.6331 27.3385 10.6324 27.1174ZM18.3657 27.1174L19.2357 19.3338H24.1657V27.0672C24.168 27.3132 24.1354 27.5582 24.069 27.7951C23.6607 29.3438 22.0743 30.2683 20.5256 29.86C19.5073 29.5916 18.7147 28.7923 18.4546 27.7719C18.3963 27.5586 18.3664 27.3385 18.3657 27.1174ZM26.099 27.0672V19.3338H31.899V27.0672C31.9013 27.3132 31.8687 27.5582 31.8024 27.7951C31.3941 29.3438 29.8076 30.2683 28.2589 29.86C27.2407 29.5916 26.448 28.7923 26.188 27.7719C26.1255 27.5423 26.0956 27.3051 26.099 27.0672ZM33.8324 27.0672V19.3338H38.7624L39.6324 27.1174C39.6298 27.3463 39.5973 27.5737 39.5357 27.7941C39.1274 29.3428 37.541 30.2673 35.9923 29.859C34.974 29.5906 34.1813 28.7913 33.9213 27.7709C33.8589 27.5417 33.829 27.3047 33.8324 27.0672ZM40.7121 19.3338H46.5005L47.3705 27.1174C47.368 27.3463 47.3355 27.5737 47.2739 27.7941C46.8656 29.3428 45.2791 30.2673 43.7304 29.859C42.7122 29.5906 41.9195 28.7913 41.6595 27.7709C41.5955 27.5418 41.5639 27.305 41.5657 27.0672C41.5657 27.0316 41.5638 26.9961 41.5599 26.9608L40.7121 19.3338ZM14.499 9.66715V1.93382H43.499V9.66715H14.499ZM40.599 11.6005V13.5338H17.399V11.6005H40.599ZM8.69902 15.4672H49.299V17.4005H8.69902V15.4672ZM5.79902 29.9672C4.23435 29.968 2.95122 28.7275 2.89902 27.1638L4.63902 19.3338H9.55066L8.70289 26.9608C8.69963 26.9962 8.69842 27.0316 8.69902 27.0672C8.70096 27.3124 8.66833 27.5569 8.60236 27.7931C8.40745 28.5437 7.92001 29.185 7.24902 29.5737C6.80919 29.8312 6.3087 29.967 5.79902 29.9672ZM56.0657 56.0672H1.93236V54.1338H56.0657V56.0672Z" fill="#282828"/>
<path d="M28.9988 36.7339H13.5322C12.9983 36.7339 12.5655 37.1667 12.5655 37.7006V47.3672C12.5655 47.9011 12.9983 48.3339 13.5322 48.3339H28.9988C29.5327 48.3339 29.9655 47.9011 29.9655 47.3672V37.7006C29.9655 37.1667 29.5327 36.7339 28.9988 36.7339ZM28.0322 46.4005H14.4988V38.6672H28.0322V46.4005Z" fill="#282828"/>
<rect x="14.499" y="1.93359" width="29" height="7.73333" fill="url(#paint0_linear)"/>
<rect x="8.69904" y="15.4673" width="40.6" height="1.93333" fill="url(#paint1_linear)"/>
<rect x="1.93237" y="54.1338" width="54.1333" height="1.93333" fill="url(#paint2_linear)"/>
</g>
<defs>
<linearGradient id="paint0_linear" x1="14.499" y1="5.80026" x2="44.3882" y2="5.80026" gradientUnits="userSpaceOnUse">
<stop stop-color="#4FB8A3"/>
<stop offset="0.515625" stop-color="#49D29D"/>
<stop offset="1" stop-color="#5BD276"/>
</linearGradient>
<linearGradient id="paint1_linear" x1="8.69904" y1="16.434" x2="50.5438" y2="16.434" gradientUnits="userSpaceOnUse">
<stop stop-color="#4FB8A3"/>
<stop offset="0.515625" stop-color="#49D29D"/>
<stop offset="1" stop-color="#5BD276"/>
</linearGradient>
<linearGradient id="paint2_linear" x1="1.93237" y1="55.1005" x2="57.7255" y2="55.1005" gradientUnits="userSpaceOnUse">
<stop stop-color="#4FB8A3"/>
<stop offset="0.515625" stop-color="#49D29D"/>
<stop offset="1" stop-color="#5BD276"/>
</linearGradient>
<clipPath id="clip0">
<rect x="-0.000976562" y="0.000488281" width="58" height="58" fill="white"/>
</clipPath>
</defs>
</svg>
