<svg width="59" height="58" viewBox="0 0 59 58" fill="none" xmlns="http://www.w3.org/2000/svg">
<g clip-path="url(#clip0)">
<path d="M1.01733 58.0003H57.0173C57.6173 58.0003 58.0173 57.5889 58.0173 56.9719V46.7911C58.0173 46.174 57.6173 45.7627 57.0173 45.7627H1.01733C0.417334 45.7627 0.017334 46.174 0.017334 46.7911V56.9719C0.017334 57.5889 0.417334 58.0003 1.01733 58.0003ZM2.01733 47.8194H56.0173V55.9435H46.1173V53.2698C46.1173 52.6528 45.7173 52.2414 45.1173 52.2414C44.5173 52.2414 44.1173 52.6528 44.1173 53.2698V55.9435H41.1173V53.2698C41.1173 52.6528 40.7173 52.2414 40.1173 52.2414C39.5173 52.2414 39.1173 52.6528 39.1173 53.2698V55.9435H36.1173V53.2698C36.1173 52.6528 35.7173 52.2414 35.1173 52.2414C34.5173 52.2414 34.1173 52.6528 34.1173 53.2698V55.9435H31.1173V53.2698C31.1173 52.6528 30.7173 52.2414 30.1173 52.2414C29.5173 52.2414 29.1173 52.6528 29.1173 53.2698V55.9435H26.1173V53.2698C26.1173 52.6528 25.7173 52.2414 25.1173 52.2414C24.5173 52.2414 24.1173 52.6528 24.1173 53.2698V55.9435H21.1173V53.2698C21.1173 52.6528 20.7173 52.2414 20.1173 52.2414C19.5173 52.2414 19.1173 52.6528 19.1173 53.2698V55.9435H16.1173V53.2698C16.1173 52.6528 15.7173 52.2414 15.1173 52.2414C14.5173 52.2414 14.1173 52.6528 14.1173 53.2698V55.9435H11.1173V53.2698C11.1173 52.6528 10.7173 52.2414 10.1173 52.2414C9.51733 52.2414 9.11733 52.6528 9.11733 53.2698V55.9435H6.11733V53.2698C6.11733 52.6528 5.71733 52.2414 5.11733 52.2414C4.51733 52.2414 4.11733 52.6528 4.11733 53.2698V55.9435H2.01733V47.8194Z" fill="#282828"/>
<path d="M51.6174 54.7099C53.1174 54.7099 54.3174 53.4759 54.3174 51.9333C54.3174 50.3908 53.1174 49.1567 51.6174 49.1567C50.1174 49.1567 48.9174 50.3908 48.9174 51.9333C48.9174 53.4759 50.1174 54.7099 51.6174 54.7099ZM51.6174 51.2135C52.0174 51.2135 52.3174 51.522 52.3174 51.9333C52.3174 52.3447 52.0174 52.6532 51.6174 52.6532C51.2174 52.6532 50.9174 52.3447 50.9174 51.9333C50.9174 51.522 51.2174 51.2135 51.6174 51.2135Z" fill="#282828"/>
<path d="M1.11731 43.5005H49.8173C54.2173 43.5005 57.9173 39.7984 57.9173 35.1707V8.33028C57.9173 3.80545 54.3173 0.000488281 49.8173 0.000488281C45.7173 0.000488281 42.2173 3.18843 41.8173 7.40474H1.11731C0.51731 7.40474 0.11731 7.81609 0.11731 8.43311V42.575C0.11731 43.0891 0.51731 43.5005 1.11731 43.5005ZM43.7173 8.74162C43.7173 8.63879 43.7173 8.53595 43.7173 8.43311C43.7173 8.33027 43.7173 8.22744 43.7173 8.1246C43.8173 4.73098 46.5173 2.05723 49.7173 2.05723C53.0173 2.05723 55.8173 4.83382 55.8173 8.33028V29.8232C54.3173 28.075 52.2173 27.0466 49.7173 27.0466C46.6173 27.0466 45.3173 29.309 44.1173 31.4686C43.9173 31.7771 43.8173 32.0856 43.6173 32.2913C43.6173 27.2523 43.7173 16.5572 43.7173 8.74162ZM2.11731 9.46148H41.7173C41.7173 11.6211 41.7173 16.7629 41.6173 21.8019C41.6173 35.9934 41.6173 35.9934 42.3173 36.3019C42.7173 36.5076 43.1173 36.4047 43.4173 36.0962C44.5173 34.965 45.2173 33.731 45.8173 32.5998C47.0173 30.4402 47.8173 29.2062 49.7173 29.2062C53.0173 29.2062 55.8173 31.9828 55.8173 35.4792C55.8173 38.9757 53.1173 41.7523 49.7173 41.7523H2.11731V9.46148Z" fill="#282828"/>
<rect x="4.01733" y="11.3125" width="35" height="27.766" rx="2" fill="url(#paint0_linear)"/>
<path d="M10.0173 25.2983L11.7173 26.2238V32.7025C11.7173 33.3196 12.1173 33.7309 12.7173 33.7309H15.9173H19.0173H27.7173C28.3173 33.7309 28.7173 33.3196 28.7173 32.7025V26.2238L30.4173 25.2983C31.1173 24.8869 31.5173 24.2699 31.5173 23.5501C31.5173 22.8302 31.1173 22.2132 30.5173 21.8018L21.4173 16.3515C20.6173 15.9401 19.7173 15.9401 18.9173 16.3515L9.81732 21.8018C9.21732 22.2132 8.81732 22.8302 8.81732 23.5501C8.91732 24.2699 9.31732 24.9898 10.0173 25.2983ZM18.0173 31.777H16.9173V25.7096H18.0173V31.777ZM20.0173 18.0997C20.1173 17.9969 20.3173 17.9969 20.5173 18.0997L29.5173 23.5501L27.3173 24.7841C27.0173 24.9898 26.8173 25.2983 26.8173 25.7096V31.777H20.0173V24.6813C20.0173 24.0642 19.6173 23.6529 19.0173 23.6529H15.9173C15.3173 23.6529 14.9173 24.0642 14.9173 24.6813V31.777H13.7173V25.7096C13.7173 25.2983 13.5173 24.9898 13.2173 24.7841L11.0173 23.5501L20.0173 18.0997Z" fill="#282828"/>
<path d="M27.7173 17.7911H32.7173C33.3173 17.7911 33.7173 17.3798 33.7173 16.7627C33.7173 16.1457 33.3173 15.7344 32.7173 15.7344H27.7173C27.1173 15.7344 26.7173 16.1457 26.7173 16.7627C26.7173 17.2769 27.1173 17.7911 27.7173 17.7911Z" fill="#282828"/>
<path d="M21.9174 29.0005H24.9174C25.5174 29.0005 25.9174 28.5892 25.9174 27.9722V24.7842C25.9174 24.1672 25.5174 23.7559 24.9174 23.7559H21.9174C21.3174 23.7559 20.9174 24.1672 20.9174 24.7842V27.9722C20.9174 28.5892 21.3174 29.0005 21.9174 29.0005ZM22.9174 25.8126H23.9174V26.9438H22.9174V25.8126Z" fill="#282828"/>
</g>
<defs>
<linearGradient id="paint0_linear" x1="4.01733" y1="25.1955" x2="40.0904" y2="25.1955" gradientUnits="userSpaceOnUse">
<stop stop-color="#4FB8A3"/>
<stop offset="0.515625" stop-color="#49D29D"/>
<stop offset="1" stop-color="#5BD276"/>
</linearGradient>
<clipPath id="clip0">
<rect x="0.017334" y="0.000488281" width="58" height="58" fill="white"/>
</clipPath>
</defs>
</svg>
