<svg width="59" height="58" viewBox="0 0 59 58" fill="none" xmlns="http://www.w3.org/2000/svg">
<g clip-path="url(#clip0)">
<path d="M41.1784 14.0327V23.3876H45.8558V53.323H54.2752V14.0327H41.1784Z" fill="url(#paint0_linear)"/>
<path d="M14.985 44.9038H5.63013V56.1296H14.985V44.9038Z" fill="url(#paint1_linear)"/>
<path d="M41.1786 44.9038H31.8237V56.1296H41.1786V44.9038Z" fill="url(#paint2_linear)"/>
<path d="M16.856 41.1616H3.75922V43.0326H16.856V41.1616Z" fill="#282828"/>
<path d="M16.856 37.4199H3.75922V39.2909H16.856V37.4199Z" fill="#282828"/>
<path d="M16.856 33.6777H3.75922V35.5487H16.856V33.6777Z" fill="#282828"/>
<path d="M16.856 29.936H3.75922V31.807H16.856V29.936Z" fill="#282828"/>
<path d="M16.856 26.1938H3.75922V28.0648H16.856V26.1938Z" fill="#282828"/>
<path d="M54.2754 7.48436V3.74242H52.4044V0.000488281H43.0496V3.74242H41.1786V7.48436H37.4367V18.7102H33.6948V11.2263H31.8238V7.99513L23.4044 0.628198L14.9851 7.99513V11.2263H13.1141V14.9682H11.2431V9.35533H9.37217V14.9682H5.63024V18.7102H3.75927V22.4521H0.017334V58.0005H19.6625H20.598H26.2109H28.5496H44.9206H46.7915H58.0173V7.48436H54.2754ZM44.9206 1.87146H50.5335V3.74242H44.9206V1.87146ZM28.398 7.48436H18.4108L23.4044 3.11471L28.398 7.48436ZM7.5012 16.8392H13.1141V18.7102H7.5012V16.8392ZM18.727 56.1295H1.8883V24.3231H11.2431V22.4521H5.63024V20.5811H14.9851V22.4521H13.1141V24.3231H18.727V56.1295ZM20.598 56.1295V22.4521H16.856V18.7102H14.9851V15.9037V14.9682V13.0973H26.2109V11.2263H16.856V9.35533H29.9528V11.2263H28.0819V13.0973H31.8238V18.7102H29.9528V22.4521H26.2109V56.1295H20.598ZM44.9206 56.1295H28.5496H28.0819V24.3231H37.4367V22.4521H31.8238V20.5811H41.1786V22.4521H39.3077V24.3231H44.9206V56.1295ZM56.1464 56.1295H46.7915V54.2586H54.2754V52.3876H46.7915V48.6456H54.2754V46.7747H46.7915V43.0327H54.2754V41.1618H46.7915V37.4198H54.2754V35.5489H46.7915V31.8069H54.2754V29.936H46.7915V26.194H54.2754V24.3231H46.7915V22.4521H43.0496V20.5811H54.2754V18.7102H43.0496H41.1786H39.3077V9.35533H48.6625V7.48436H43.0496V5.61339H52.4044V7.48436H50.5335V9.35533H56.1464V56.1295Z" fill="#282828"/>
<path d="M43.0496 41.1616H29.9528V43.0326H43.0496V41.1616Z" fill="#282828"/>
<path d="M43.0496 37.4199H29.9528V39.2909H43.0496V37.4199Z" fill="#282828"/>
<path d="M43.0496 33.6777H29.9528V35.5487H43.0496V33.6777Z" fill="#282828"/>
<path d="M43.0496 29.936H29.9528V31.807H43.0496V29.936Z" fill="#282828"/>
<path d="M43.0496 26.1938H29.9528V28.0648H43.0496V26.1938Z" fill="#282828"/>
<path d="M54.2752 13.0972H41.1785V14.9681H54.2752V13.0972Z" fill="#282828"/>
</g>
<defs>
<linearGradient id="paint0_linear" x1="41.1784" y1="33.6779" x2="54.6767" y2="33.6779" gradientUnits="userSpaceOnUse">
<stop stop-color="#4FB8A3"/>
<stop offset="0.515625" stop-color="#49D29D"/>
<stop offset="1" stop-color="#5BD276"/>
</linearGradient>
<linearGradient id="paint1_linear" x1="5.63013" y1="50.5167" x2="15.2718" y2="50.5167" gradientUnits="userSpaceOnUse">
<stop stop-color="#4FB8A3"/>
<stop offset="0.515625" stop-color="#49D29D"/>
<stop offset="1" stop-color="#5BD276"/>
</linearGradient>
<linearGradient id="paint2_linear" x1="31.8237" y1="50.5167" x2="41.4654" y2="50.5167" gradientUnits="userSpaceOnUse">
<stop stop-color="#4FB8A3"/>
<stop offset="0.515625" stop-color="#49D29D"/>
<stop offset="1" stop-color="#5BD276"/>
</linearGradient>
<clipPath id="clip0">
<rect x="0.017334" y="0.000488281" width="58" height="58" fill="white"/>
</clipPath>
</defs>
</svg>
