<svg width="58" height="58" viewBox="0 0 58 58" fill="none" xmlns="http://www.w3.org/2000/svg">
<g clip-path="url(#clip0)">
<path d="M26.2027 19.2842C14.6503 9.16058 18.5162 20.3771 6.3896 21.3038C5.49504 21.5668 -1.4893 20.2302 2.64227 28.8005C7.80674 39.5134 4.17855 35.7591 6.83867 41.7774C10.9239 51.02 20.1889 41.9289 22.6591 37.2776L22.6927 37.26C28.891 34.0168 37.7343 29.3895 26.2027 19.2842Z" fill="url(#paint0_linear)"/>
<path d="M13.2218 40.5005C12.2201 39.5005 10.6174 39.5005 9.51545 40.5005L6.30993 43.7005C5.80906 44.2005 5.50854 44.8005 5.50854 45.5005C5.50854 46.2005 5.80906 46.8005 6.30993 47.3005L10.417 51.4005C10.9179 51.9005 11.6191 52.2005 12.2201 52.2005C12.9213 52.2005 13.5224 51.9005 14.0232 51.4005L17.2288 48.2005C18.2305 47.2005 18.2305 45.6005 17.2288 44.5005L13.2218 40.5005ZM15.9265 46.9005L12.721 50.1005C12.5206 50.3005 12.1199 50.3005 11.9196 50.1005L7.81252 46.0005C7.61217 45.8005 7.61217 45.4005 7.81252 45.2005L11.018 42.0005C11.2184 41.8005 11.6191 41.8005 11.8194 42.0005L15.9265 46.1005C16.227 46.3005 16.227 46.7005 15.9265 46.9005Z" fill="#282828"/>
<path d="M55.9957 47.5004L40.3687 31.9004L41.1701 31.1004C42.8731 29.4004 42.8731 26.8004 41.1701 25.1004L40.8696 24.8004L42.9732 22.7004L48.5829 24.2004C48.8834 24.3004 49.2841 24.2004 49.5846 23.9004L57.7988 15.7004C58.0993 15.4004 58.1995 15.1004 58.0993 14.7004L56.4965 8.60039C56.3964 8.30039 56.0959 8.00039 55.7953 7.90039C55.4948 7.80039 55.0941 7.90039 54.7936 8.20039L48.5829 14.4004C48.3826 14.6004 47.9819 14.6004 47.7815 14.4004L43.6744 10.3004C43.4741 10.1004 43.4741 9.70039 43.6744 9.50039L49.8851 3.30039C50.1857 3.00039 50.2858 2.70039 50.1857 2.30039C50.0855 2.00039 49.785 1.70039 49.4845 1.60039L43.0734 0.000390626C42.7729 -0.0996094 42.3722 0.000390619 42.0717 0.300391L33.8575 8.50039C33.557 8.80039 33.4568 9.10039 33.557 9.50039L35.0596 15.1004L27.6468 22.5004L16.4275 11.8004L17.8299 10.4004C18.0302 10.2004 18.1304 9.90039 18.1304 9.60039C18.1304 9.30039 17.9301 9.00039 17.7297 8.90039L8.01295 1.40039C7.61226 1.10039 7.01123 1.10039 6.71071 1.50039L1.30138 6.80039C0.900691 7.20039 0.900692 7.80039 1.20121 8.20039L8.71416 17.9004C8.91451 18.1004 9.11485 18.3004 9.41537 18.3004C9.71589 18.3004 10.0164 18.2004 10.2168 18.0004L11.7193 16.5004L22.3377 27.9004L15.025 35.1004L9.41537 33.6004C9.11485 33.5004 8.71416 33.6004 8.41364 33.9004L0.199483 42.1004C-0.000862896 42.3004 -0.101036 42.7004 -0.000862893 43.0004L3.00432 54.1004C3.10449 54.4004 3.40501 54.7004 3.70553 54.8004L14.8247 57.8004C14.9249 57.8004 15.025 57.8004 15.1252 57.8004C15.4257 57.8004 15.6261 57.7004 15.8264 57.5004L24.0406 49.3004C24.3411 49.0004 24.4413 48.7004 24.3411 48.3004L22.8385 42.7004L24.842 40.7004L25.1425 41.0004C25.9439 41.8004 27.0458 42.2004 28.1477 42.2004C29.2496 42.2004 30.3515 41.8004 31.1529 41.0004L31.9542 40.2004L47.481 56.0004C48.7832 57.3004 50.4862 58.0004 52.0889 58.0004C53.4914 58.0004 54.7936 57.5004 55.7953 56.5004L56.4965 55.8004C57.5984 54.7004 58.0993 53.3004 57.9991 51.7004C57.899 50.1004 57.1978 48.6004 55.9957 47.5004ZM37.063 16.0004C37.3636 15.7004 37.4637 15.4004 37.3636 15.0004L35.861 9.40039L43.1736 2.10039L47.0803 3.10039L42.0717 8.10039C41.07 9.10039 41.07 10.7004 42.0717 11.8004L46.1788 15.9004C47.1805 16.9004 48.8834 16.9004 49.8851 15.9004L54.7936 11.0004L55.7953 14.9004L48.4827 22.2004L42.8731 20.7004C42.5725 20.6004 42.1718 20.7004 41.8713 21.0004L34.3584 28.5004L29.2496 23.7004L37.063 16.0004ZM12.4206 14.4004C12.2202 14.2004 12.0199 14.1004 11.7193 14.1004C11.4188 14.1004 11.2185 14.2004 11.0181 14.4004L9.61572 15.8004L3.30484 7.60039L7.41192 3.50039L15.5259 9.70039L14.2237 11.0004C14.0233 11.2004 13.9231 11.5004 13.9231 11.7004C13.9231 12.0004 14.0233 12.2004 14.2237 12.4004L33.0561 29.9004L29.8506 33.1004L12.4206 14.4004ZM20.9352 41.9004C20.6347 42.2004 20.5345 42.5004 20.6347 42.9004L22.1373 48.5004L14.8247 55.8004L4.80743 53.1004L2.10276 43.1004L9.41537 35.8004L15.025 37.3004C15.3256 37.4004 15.7263 37.3004 16.0268 37.0004L23.6399 29.4004L28.4482 34.5004L20.9352 41.9004ZM29.6503 39.8004C28.7487 40.7004 27.3463 40.7004 26.4447 39.8004L26.1442 39.5004L39.4672 26.2004L39.7677 26.5004C40.6693 27.4004 40.6693 28.8004 39.7677 29.7004L29.6503 39.8004ZM55.0941 54.4004L54.3929 55.1004C53.6917 55.8004 52.7902 56.1004 51.7884 56.0004C50.6865 55.9004 49.6848 55.4004 48.8834 54.6004L33.2565 39.0004L39.0665 33.2004L54.6934 48.8004C55.4948 49.6004 55.9957 50.6004 56.0959 51.7004C56.0959 52.8004 55.6952 53.7004 55.0941 54.4004Z" fill="#282828"/>
</g>
<defs>
<linearGradient id="paint0_linear" x1="3.33755" y1="38.2191" x2="27.0574" y2="18.3184" gradientUnits="userSpaceOnUse">
<stop stop-color="#4FB8A3"/>
<stop offset="0.515625" stop-color="#49D29D"/>
<stop offset="1" stop-color="#5BD276"/>
</linearGradient>
<clipPath id="clip0">
<rect x="-0.000976562" y="0.000488281" width="58" height="58" fill="white"/>
</clipPath>
</defs>
</svg>
