<svg width="59" height="58" viewBox="0 0 59 58" fill="none" xmlns="http://www.w3.org/2000/svg">
<g clip-path="url(#clip0)">
<path d="M9.43597 30.6316C9.43597 30.1713 9.51548 29.7157 9.67171 29.2826L15.8777 12.0444L15.0489 12.1623C14.0919 12.1623 5.69403 12.2942 5.69403 16.8397C5.69403 19.0372 6.55842 20.1785 7.19267 20.939L7.014 22.9035C6.87274 23.0448 6.72587 23.1832 6.56777 23.3273C5.76138 24.057 4.75854 24.9663 4.75854 27.13C4.75854 30.4763 8.8438 32.5577 9.0178 32.6447L10.0263 32.6934C9.65861 32.09 9.43597 31.3893 9.43597 30.6316Z" fill="url(#paint0_linear)"/>
<path d="M34.1386 25.1721L33.6643 24.6557C32.8654 23.7904 32.1124 22.9737 31.8392 22.1561C31.538 21.2487 31.9468 20.2187 32.422 19.025C33.1077 17.3 33.9618 15.1531 32.7242 12.6787C30.6109 8.45405 22.7108 10.8161 21.4142 11.2381L27.9102 29.2817C28.0664 29.7148 28.1459 30.1704 28.1459 30.6306C28.1459 31.8112 27.6221 32.8608 26.8054 33.5896C27.2872 33.9301 27.8007 34.207 28.3433 34.3922C28.9439 34.598 29.5492 34.6972 30.1413 34.6972C31.9103 34.6972 33.5605 33.8075 34.6242 32.1929C35.8552 30.3285 36.1808 27.4332 34.1386 25.1721Z" fill="url(#paint1_linear)"/>
<path d="M58.9988 0.000488281H0.998779V48.6456H14.1133V55.194C14.1133 56.7413 15.3725 58.0005 16.9198 58.0005H20.6617C22.209 58.0005 23.4682 56.7413 23.4682 55.194V48.6456H58.9988V0.000488281ZM57.1278 9.35533H45.902V5.61339H44.031V9.35533H30.9343V1.87146H44.031V3.74242H45.902V1.87146H57.1278V9.35533ZM38.4181 37.4198V29.936H50.5794V37.4198H38.4181ZM21.5972 37.4198V35.5489H24.1632C26.8743 35.5489 29.0811 33.343 29.0811 30.631C29.0811 30.0613 28.9838 29.5 28.7892 28.9649L22.3128 10.9718C24.3662 10.4077 28.9033 9.46384 31.4413 11.2272H36.5472V18.7111H32.5452C32.504 18.8159 32.4619 18.9244 32.4217 19.0264C32.2018 19.5792 31.9988 20.0956 31.8716 20.5821H44.031V28.0659H35.5387C35.6379 28.7011 35.6229 29.3326 35.5153 29.9369H36.5472V37.4208H21.5972V37.4198ZM21.731 9.35533L20.9237 7.11297C20.6 6.21584 19.7431 5.61339 18.7907 5.61339C17.8384 5.61339 16.9806 6.21584 16.6588 7.11204L15.9665 9.03352V1.87146H29.0633V9.35533H21.731ZM18.4184 7.74536C18.5297 7.43291 19.0499 7.43291 19.1631 7.74536L27.0296 29.5983C27.1493 29.9294 27.2092 30.2765 27.2092 30.6301C27.2092 32.3102 25.8424 33.677 24.1623 33.677H21.5963V25.2576C21.5963 23.7103 20.3371 22.4512 18.7898 22.4512C17.2425 22.4512 15.9834 23.7103 15.9834 25.2576V33.677H13.4173C11.7372 33.677 10.3705 32.3102 10.3705 30.6301C10.3705 30.2765 10.4303 29.9294 10.5501 29.5973L18.4184 7.74536ZM17.8553 25.2586C17.8553 24.7431 18.2744 24.3231 18.7907 24.3231C19.3071 24.3231 19.7262 24.7431 19.7262 25.2586V30.8715H19.7085V37.4198H17.8553V25.2586ZM50.5794 11.2263V18.7102H38.4181V11.2263H50.5794ZM52.4504 29.936H57.1278V37.4198H52.4504V29.936ZM45.902 28.065V20.5811H57.1278V28.065H45.902ZM52.4504 18.7102V11.2263H57.1278V18.7102H52.4504ZM2.86975 1.87146H14.0956V9.35533H2.86975V1.87146ZM5.20097 29.0005H2.86975V20.5811H6.90636C6.55368 20.1209 6.18604 19.525 5.94842 18.7102H2.86975V11.2263H6.61168V14.5866C7.10375 14.0646 7.7511 13.6501 8.48265 13.3293V11.2263H15.177L8.79136 28.964C8.59771 29.5 8.49949 30.0604 8.49949 30.631C8.49949 33.3421 10.7054 35.5489 13.4173 35.5489H15.9834V37.4198H8.48265V32.342C8.00836 32.0548 7.29365 31.5665 6.61168 30.9051V37.4198H2.86975V30.8715H6.57707C6.04384 30.3495 5.54242 29.7227 5.20097 29.0005ZM2.86975 46.7747V39.2908H14.2855C14.1807 39.5846 14.1133 39.897 14.1133 40.2263V46.7747H2.86975ZM21.5972 55.194C21.5972 55.7104 21.1781 56.1295 20.6617 56.1295H16.9198C16.4034 56.1295 15.9843 55.7104 15.9843 55.194V40.2263C15.9843 39.7099 16.4034 39.2908 16.9198 39.2908H20.6617C21.1781 39.2908 21.5972 39.7099 21.5972 40.2263V55.194ZM23.2951 39.2908H29.0633V41.1618H30.9343V39.2908H44.031V46.7747H30.9343V43.0327H29.0633V46.7747H23.4682V40.2263C23.4682 39.897 23.3999 39.5846 23.2951 39.2908ZM45.902 46.7747V39.2908H57.1278V46.7747H45.902Z" fill="#282828"/>
</g>
<defs>
<linearGradient id="paint0_linear" x1="4.75855" y1="22.3689" x2="16.2186" y2="22.3689" gradientUnits="userSpaceOnUse">
<stop stop-color="#4FB8A3"/>
<stop offset="0.515625" stop-color="#49D29D"/>
<stop offset="1" stop-color="#5BD276"/>
</linearGradient>
<linearGradient id="paint1_linear" x1="21.4142" y1="22.4484" x2="36.0448" y2="22.4484" gradientUnits="userSpaceOnUse">
<stop stop-color="#4FB8A3"/>
<stop offset="0.515625" stop-color="#49D29D"/>
<stop offset="1" stop-color="#5BD276"/>
</linearGradient>
<clipPath id="clip0">
<rect x="0.998779" y="0.000488281" width="58" height="58" fill="white"/>
</clipPath>
</defs>
</svg>
