<svg width="64" height="58" viewBox="0 0 64 58" fill="none" xmlns="http://www.w3.org/2000/svg">
<g clip-path="url(#clip0)">
<path d="M49.6542 2.19336H37.5162V41.6641H49.6542V2.19336Z" fill="url(#paint0_linear)"/>
<path d="M27.5853 15.3501H16.5508V55.9172H27.5853V15.3501Z" fill="url(#paint1_linear)"/>
<path d="M1.10247 58.0005H5.18523H28.137H29.5714H36.8542H50.4266H57.3783H58.8128H62.8956C63.5576 58.0005 63.999 57.5619 63.999 56.9041C63.999 56.2462 63.5576 55.8077 62.8956 55.8077H59.9163V3.28971C59.9163 1.42582 58.4818 0.000488281 56.6059 0.000488281H30.2335C28.3576 0.000488281 26.9232 1.42582 26.9232 3.28971V13.267H7.39213C5.51626 13.267 4.08178 14.6924 4.08178 16.5563V55.8077H1.10247C0.440403 55.8077 -0.000976562 56.2462 -0.000976562 56.9041C-0.000976562 57.5619 0.440403 58.0005 1.10247 58.0005ZM49.3232 55.8077H37.8473V48.7907H49.2128V55.8077H49.3232ZM36.4128 46.7075C35.7507 46.7075 35.3094 46.1593 35.3094 45.6111V44.9532C35.3094 44.2954 35.8611 43.8568 36.4128 43.8568H51.0887C51.7507 43.8568 52.1921 44.405 52.1921 44.9532V45.6111C52.1921 46.2689 51.6404 46.7075 51.0887 46.7075H36.4128ZM35.6404 48.7907V49.1196H33.6542V47.5846C34.2059 48.1328 34.868 48.5714 35.6404 48.7907ZM53.5163 47.8039V49.1196H51.5301V48.9003C52.3025 48.681 52.9645 48.3521 53.5163 47.8039ZM29.1301 3.28971C29.1301 2.63187 29.5714 2.1933 30.2335 2.1933H56.6059C57.268 2.1933 57.7094 2.63187 57.7094 3.28971V55.8077H57.3783H51.5301V51.2028H54.6197C55.2818 51.2028 55.7232 50.7642 55.7232 50.1063V43.8568C55.7232 43.199 55.2818 42.7604 54.6197 42.7604H53.6266C52.9645 41.9929 52.0818 41.5544 51.0887 41.5544H36.4128C35.3094 41.5544 34.4266 42.1026 33.8749 42.7604H32.6611C31.999 42.7604 31.5576 43.199 31.5576 43.8568V50.1063C31.5576 50.7642 31.999 51.2028 32.6611 51.2028H35.7507V55.8077H29.5714H29.2404V3.28971H29.1301ZM6.28868 16.5563C6.28868 15.8984 6.73006 15.4598 7.39213 15.4598H27.0335V55.8077H6.28868V16.5563Z" fill="#282828"/>
<path d="M13.7922 18.8589H9.70941C9.04734 18.8589 8.60596 19.2974 8.60596 19.9553V26.2048C8.60596 26.8627 9.04734 27.3012 9.70941 27.3012H13.9025C14.5646 27.3012 15.006 26.8627 15.006 26.2048V19.9553C14.8956 19.2974 14.4542 18.8589 13.7922 18.8589ZM12.6887 24.9988H10.8129V20.9421H12.7991V24.9988H12.6887Z" fill="#282828"/>
<path d="M22.73 18.8589H18.5369C17.8748 18.8589 17.4335 19.2974 17.4335 19.9553V26.2048C17.4335 26.8627 17.8748 27.3012 18.5369 27.3012H22.73C23.3921 27.3012 23.8335 26.8627 23.8335 26.2048V19.9553C23.8335 19.2974 23.3921 18.8589 22.73 18.8589ZM21.6266 24.9988H19.6404V20.9421H21.6266V24.9988Z" fill="#282828"/>
<path d="M13.7922 30.1519H9.70941C9.04734 30.1519 8.60596 30.5904 8.60596 31.2483V37.4978C8.60596 38.1556 9.04734 38.5942 9.70941 38.5942H13.9025C14.5646 38.5942 15.006 38.1556 15.006 37.4978V31.2483C14.8956 30.7001 14.4542 30.1519 13.7922 30.1519ZM12.6887 36.4014H10.8129V32.3447H12.7991V36.4014H12.6887Z" fill="#282828"/>
<path d="M22.73 30.1519H18.5369C17.8748 30.1519 17.4335 30.5904 17.4335 31.2483V37.4978C17.4335 38.1556 17.8748 38.5942 18.5369 38.5942H22.73C23.3921 38.5942 23.8335 38.1556 23.8335 37.4978V31.2483C23.8335 30.7001 23.3921 30.1519 22.73 30.1519ZM21.6266 36.4014H19.6404V32.3447H21.6266V36.4014Z" fill="#282828"/>
<path d="M13.7922 42.8701H9.70941C9.04734 42.8701 8.60596 43.3087 8.60596 43.9665V50.2161C8.60596 50.8739 9.04734 51.3125 9.70941 51.3125H13.9025C14.5646 51.3125 15.006 50.8739 15.006 50.2161V43.9665C14.8956 43.3087 14.4542 42.8701 13.7922 42.8701ZM12.6887 49.1196H10.8129V45.0629H12.7991V49.1196H12.6887Z" fill="#282828"/>
<path d="M22.73 42.8701H18.5369C17.8748 42.8701 17.4335 43.3087 17.4335 43.9665V50.2161C17.4335 50.8739 17.8748 51.3125 18.5369 51.3125H22.73C23.3921 51.3125 23.8335 50.8739 23.8335 50.2161V43.9665C23.8335 43.3087 23.3921 42.8701 22.73 42.8701ZM21.6266 49.1196H19.6404V45.0629H21.6266V49.1196Z" fill="#282828"/>
<path d="M32.5507 38.5942H36.7438C37.4059 38.5942 37.8473 38.1556 37.8473 37.4978V31.2483C37.8473 30.5904 37.4059 30.1519 36.7438 30.1519H32.5507C31.8886 30.1519 31.4473 30.5904 31.4473 31.2483V37.4978C31.4473 38.1556 31.999 38.5942 32.5507 38.5942ZM33.6542 32.3447H35.6404V36.4014H33.6542V32.3447Z" fill="#282828"/>
<path d="M41.4886 38.5942H45.6817C46.3438 38.5942 46.7851 38.1556 46.7851 37.4978V31.2483C46.7851 30.5904 46.3438 30.1519 45.6817 30.1519H41.4886C40.8265 30.1519 40.3851 30.5904 40.3851 31.2483V37.4978C40.3851 38.1556 40.9369 38.5942 41.4886 38.5942ZM42.592 32.3447H44.5782V36.4014H42.592V32.3447Z" fill="#282828"/>
<path d="M50.4267 38.5942H54.6198C55.2819 38.5942 55.7232 38.1556 55.7232 37.4978V31.2483C55.7232 30.5904 55.2819 30.1519 54.6198 30.1519H50.4267C49.7646 30.1519 49.3232 30.5904 49.3232 31.2483V37.4978C49.3232 38.1556 49.7646 38.5942 50.4267 38.5942ZM51.5301 32.3447H53.5163V36.4014H51.5301V32.3447Z" fill="#282828"/>
<path d="M32.5507 25.9853H36.7438C37.4059 25.9853 37.8473 25.5468 37.8473 24.8889V18.6394C37.8473 17.9815 37.4059 17.543 36.7438 17.543H32.5507C31.8886 17.543 31.4473 17.9815 31.4473 18.6394V24.8889C31.4473 25.4371 31.999 25.9853 32.5507 25.9853ZM33.6542 19.7358H35.6404V23.7925H33.6542V19.7358Z" fill="#282828"/>
<path d="M41.4886 25.9853H45.6817C46.3438 25.9853 46.7851 25.5468 46.7851 24.8889V18.6394C46.7851 17.9815 46.3438 17.543 45.6817 17.543H41.4886C40.8265 17.543 40.3851 17.9815 40.3851 18.6394V24.8889C40.3851 25.4371 40.9369 25.9853 41.4886 25.9853ZM42.592 19.7358H44.5782V23.7925H42.592V19.7358Z" fill="#282828"/>
<path d="M50.4267 25.9853H54.6198C55.2819 25.9853 55.7232 25.5468 55.7232 24.8889V18.6394C55.7232 17.9815 55.2819 17.543 54.6198 17.543H50.4267C49.7646 17.543 49.3232 17.9815 49.3232 18.6394V24.8889C49.3232 25.4371 49.7646 25.9853 50.4267 25.9853ZM51.5301 19.7358H53.5163V23.7925H51.5301V19.7358Z" fill="#282828"/>
<path d="M32.5507 13.2673H36.7438C37.4059 13.2673 37.8473 12.8287 37.8473 12.1709V6.03098C37.8473 5.37313 37.4059 4.93457 36.7438 4.93457H32.5507C31.8886 4.93457 31.4473 5.37313 31.4473 6.03098V12.2805C31.4473 12.8287 31.999 13.2673 32.5507 13.2673ZM33.6542 7.12739H35.6404V11.1841H33.6542V7.12739Z" fill="#282828"/>
<path d="M41.4886 13.2673H45.6817C46.3438 13.2673 46.7851 12.8287 46.7851 12.1709V6.03098C46.7851 5.37313 46.3438 4.93457 45.6817 4.93457H41.4886C40.8265 4.93457 40.3851 5.37313 40.3851 6.03098V12.2805C40.3851 12.8287 40.9369 13.2673 41.4886 13.2673ZM42.592 7.12739H44.5782V11.1841H42.592V7.12739Z" fill="#282828"/>
<path d="M50.4267 13.2673H54.6198C55.2819 13.2673 55.7232 12.8287 55.7232 12.1709V6.03098C55.7232 5.37313 55.2819 4.93457 54.6198 4.93457H50.4267C49.7646 4.93457 49.3232 5.37313 49.3232 6.03098V12.2805C49.3232 12.8287 49.7646 13.2673 50.4267 13.2673ZM51.5301 7.12739H53.5163V11.1841H51.5301V7.12739Z" fill="#282828"/>
</g>
<defs>
<linearGradient id="paint0_linear" x1="37.5162" y1="21.9287" x2="50.0263" y2="21.9287" gradientUnits="userSpaceOnUse">
<stop stop-color="#4FB8A3"/>
<stop offset="0.515625" stop-color="#49D29D"/>
<stop offset="1" stop-color="#5BD276"/>
</linearGradient>
<linearGradient id="paint1_linear" x1="16.5508" y1="35.6336" x2="27.9236" y2="35.6336" gradientUnits="userSpaceOnUse">
<stop stop-color="#4FB8A3"/>
<stop offset="0.515625" stop-color="#49D29D"/>
<stop offset="1" stop-color="#5BD276"/>
</linearGradient>
<clipPath id="clip0">
<rect x="-0.000976562" y="0.000488281" width="64" height="58" fill="white"/>
</clipPath>
</defs>
</svg>
