<svg width="37" height="35" viewBox="0 0 37 35" fill="none" xmlns="http://www.w3.org/2000/svg">
<g clip-path="url(#clip0)">
<path d="M36.5637 23.0649V24.6026L19.4085 34.5607L36.5637 23.0649ZM36.5637 23.0649L19.4085 33.0231L26.8231 17.3536L28.0588 18.0858L36.5637 23.0649ZM7.19635 25.8473C9.15902 26.6528 10.9036 25.9938 11.994 25.1151C14.6109 22.9917 14.6836 18.3787 13.6659 15.4498C12.5028 12.1549 10.1767 9.51888 7.41442 8.85989C3.56177 7.98123 0.436035 11.4226 0.436035 16.475C0.436035 20.8683 2.4714 24.6758 6.25136 26.8724L19.4085 34.4875V32.8766L7.34173 25.8473C4.50676 24.3097 2.83486 21.454 2.32602 18.3055C1.74448 14.3515 3.41639 11.203 6.10598 11.203C8.79556 11.203 11.4851 14.3515 12.0667 18.3055C12.5755 21.454 11.1944 24.0168 9.08633 24.0168C6.90558 24.0168 4.79753 21.454 4.28869 18.3055C3.92523 15.9624 4.94291 14.0586 6.54212 14.0586C8.14134 14.0586 9.74055 15.9624 10.104 18.3055C10.3221 19.8432 9.66786 21.1611 8.57749 21.1611C7.48711 21.1611 6.46943 19.9164 6.17867 18.3055C6.03328 17.5001 6.39674 16.9143 6.90558 16.9143C7.41442 16.9143 7.99596 17.5733 8.06865 18.3055M3.77985 9.37244L18.1728 1.09838C20.6443 -0.219611 23.1158 0.585828 25.0785 2.41637C26.8231 4.17369 27.8407 6.07746 28.4223 8.49378C29.1492 12.0816 28.6404 16.4017 25.3692 18.3787L11.994 26.2134L3.77985 9.37244Z" stroke="url(#paint0_linear)" stroke-miterlimit="22.9256" stroke-linejoin="round"/>
</g>
<defs>
<linearGradient id="paint0_linear" x1="0.436035" y1="17.504" x2="37.6714" y2="17.504" gradientUnits="userSpaceOnUse">
<stop stop-color="#4FB8A3"/>
<stop offset="0.515625" stop-color="#49D29D"/>
<stop offset="1" stop-color="#5BD276"/>
</linearGradient>
<clipPath id="clip0">
<rect width="37" height="35" fill="white"/>
</clipPath>
</defs>
</svg>
