<svg width="35" height="35" viewBox="0 0 35 35" fill="none" xmlns="http://www.w3.org/2000/svg">
<path d="M20.3106 0.181034C20.0688 -0.0603448 19.7061 -0.0603448 19.4643 0.181034L9.06711 10.5603L7.01185 12.6121L5.07748 14.5431L4.35209 15.2672C3.56625 16.0517 3.14311 17.0776 3.14311 18.1638C3.14311 19.25 3.56625 20.2759 4.35209 21.0603L5.92376 22.6293C6.16556 22.8707 6.16556 23.2328 5.92376 23.4741L1.32963 28.0603C-0.181592 29.569 -0.30249 31.9224 0.96694 33.4914C1.57143 34.3966 2.59906 34.9397 3.7476 35C3.80805 35 3.86849 35 3.92894 35C4.95658 35 5.98421 34.5776 6.77005 33.8534L11.4851 29.1466C11.7269 28.9052 12.0896 28.9052 12.3314 29.1466L13.903 30.7155C15.5352 32.3448 18.1345 32.3448 19.7061 30.7155L20.4315 29.9914L22.3659 28.0603L34.8184 15.6293C35.0602 15.3879 35.0602 15.0259 34.8184 14.7845L20.3106 0.181034ZM7.43499 13.8793L12.2709 18.7069C11.7873 18.7069 11.3642 18.7672 10.8806 18.9483C10.6992 19.0086 10.397 19.0086 10.2156 18.8276L6.34691 14.9655L7.43499 13.8793ZM18.8599 29.8103C17.7113 30.9569 15.8979 30.9569 14.7493 29.8103L13.1776 28.2414C12.5127 27.5776 11.3037 27.5776 10.6388 28.2414L5.92376 32.9483C5.31927 33.5517 4.59388 33.7931 3.80805 33.7931C3.02221 33.7328 2.29682 33.3707 1.81323 32.7672C0.906491 31.681 1.08784 29.9914 2.11547 28.9655L6.7096 24.3793C7.43499 23.6552 7.43499 22.5086 6.7096 21.8448L5.13792 20.2759C4.59388 19.7328 4.29164 19.0086 4.29164 18.2241C4.29164 17.4397 4.59388 16.7155 5.13792 16.1724L5.44017 15.8707L9.30891 19.7328C9.7925 20.2155 10.5179 20.3966 11.2433 20.0948C12.2709 19.6724 13.4194 19.9138 14.2053 20.6983C14.9911 21.4828 15.2329 22.6293 14.8098 23.6552C14.568 24.3793 14.6889 25.1034 15.1725 25.5862L19.0412 29.4483L18.8599 29.8103ZM20.0084 28.6638L16.0792 24.7414C15.8979 24.5603 15.8979 24.2586 15.9583 24.0776C16.1397 23.6552 16.2001 23.1724 16.2001 22.6897L21.036 27.5172L20.0084 28.6638ZM21.9428 26.7328L15.112 19.8534L8.28127 13.0345L9.49026 11.8276L23.1517 25.4655L21.9428 26.7328ZM23.998 24.6207L10.3365 10.9828L19.8875 1.44828L21.1569 2.71552L15.2934 8.56896C15.0516 8.81034 15.0516 9.17241 15.2934 9.41379C15.4143 9.53448 15.5956 9.59483 15.7165 9.59483C15.8979 9.59483 16.0188 9.53448 16.1397 9.41379L22.0032 3.56034L23.2122 4.76724L15.6561 12.25C15.4143 12.4914 15.4143 12.8534 15.6561 13.0948C15.777 13.2155 15.9583 13.2759 16.0792 13.2759C16.2605 13.2759 16.3814 13.2155 16.5023 13.0948L24.0585 5.61207L25.2675 6.81897L19.4039 12.6724C19.1621 12.9138 19.1621 13.2759 19.4039 13.5172C19.5248 13.6379 19.7061 13.6983 19.827 13.6983C20.0084 13.6983 20.1293 13.6379 20.2502 13.5172L26.1137 7.66379L27.3227 8.87069L19.827 16.4138C19.5852 16.6552 19.5852 17.0172 19.827 17.2586C19.9479 17.3793 20.1293 17.4397 20.2502 17.4397C20.4315 17.4397 20.5524 17.3793 20.6733 17.2586L28.169 9.77586L29.378 10.9828L23.5144 16.8362C23.2726 17.0776 23.2726 17.4397 23.5144 17.681C23.6353 17.8017 23.8167 17.8621 23.9376 17.8621C24.1189 17.8621 24.2398 17.8017 24.3607 17.681L30.2243 11.8276L31.4333 13.0345L23.9376 20.5172C23.6958 20.7586 23.6958 21.1207 23.9376 21.3621C24.0585 21.4828 24.2398 21.5431 24.3607 21.5431C24.5421 21.5431 24.663 21.4828 24.7839 21.3621L32.34 13.8793L33.6094 15.1466L23.998 24.6207Z" fill="url(#paint0_linear)"/>
<path d="M2.59922 29.6894C1.87383 30.4136 1.87383 31.6205 2.59922 32.4049C2.96191 32.767 3.4455 32.948 3.9291 32.948C4.41269 32.948 4.89628 32.767 5.25898 32.4049C5.62167 32.0429 5.80302 31.5601 5.80302 31.0774C5.80302 30.5946 5.62167 30.1118 5.25898 29.7498C4.53359 28.9049 3.32461 28.9049 2.59922 29.6894ZM4.47314 31.4998C4.23134 31.7412 3.74775 31.7412 3.50595 31.4998C3.26416 31.2584 3.26416 30.7756 3.50595 30.5343C3.62685 30.4136 3.8082 30.3532 3.98955 30.3532C4.17089 30.3532 4.35224 30.4136 4.47314 30.5343C4.59404 30.6549 4.65448 30.836 4.65448 31.017C4.65448 31.198 4.59404 31.3791 4.47314 31.4998Z" fill="url(#paint1_linear)"/>
<defs>
<linearGradient id="paint0_linear" x1="0.0976565" y1="17.5" x2="36.0699" y2="17.5" gradientUnits="userSpaceOnUse">
<stop stop-color="#4FB8A3"/>
<stop offset="0.515625" stop-color="#49D29D"/>
<stop offset="1" stop-color="#5BD276"/>
</linearGradient>
<linearGradient id="paint1_linear" x1="2.05518" y1="31.0282" x2="5.91793" y2="31.0282" gradientUnits="userSpaceOnUse">
<stop stop-color="#4FB8A3"/>
<stop offset="0.515625" stop-color="#49D29D"/>
<stop offset="1" stop-color="#5BD276"/>
</linearGradient>
</defs>
</svg>
