<svg width="23" height="38" viewBox="0 0 23 38" fill="none" xmlns="http://www.w3.org/2000/svg">
<path fill-rule="evenodd" clip-rule="evenodd" d="M18.0276 0.462714C18.2144 0.55534 18.3287 0.722711 18.3287 0.903391V4.60086L21.2643 11.3425C22.0525 13.2625 22.3128 15.0358 22.3992 16.6501C22.3996 16.6577 22.3998 16.6653 22.3998 16.6729V31.0652C22.3998 31.2503 22.2798 31.421 22.0858 31.512L9.02448 37.6408C8.9159 37.6918 8.79546 37.7127 8.67807 37.706C8.67726 37.706 8.67645 37.7061 8.67563 37.7061C8.3731 37.7224 8.10479 37.5544 8.0352 37.3148L4.86164 34.1859L0.893559 34.0571C0.561951 34.0463 0.299805 33.8199 0.299805 33.5442V19.0831C0.299805 17.6647 0.559843 15.9946 1.37942 14.5898L1.38344 14.5829L3.86199 10.4912V6.82557C3.86199 6.6368 3.98672 6.46328 4.18677 6.37373L17.4177 0.45156C17.6092 0.365851 17.8409 0.370088 18.0276 0.462714ZM3.91523 12.6871L2.48955 15.0408C1.78398 16.2522 1.53559 17.7482 1.53559 19.0831V33.0506L4.44173 33.145L3.91523 12.6871ZM5.69147 33.4109V22.3476L7.73643 35.4271L5.69147 33.4109ZM9.25366 36.3543L21.164 30.7656V16.6844C21.0803 15.1355 20.8315 13.4709 20.0963 11.6783L17.3985 5.48252L5.26704 10.9126L8.1181 17.4713C8.90632 19.3912 9.1666 21.1646 9.25305 22.7789C9.25345 22.7865 9.25366 22.7941 9.25366 22.8017V36.3543ZM17.093 4.3471L5.09778 9.75077V7.13202L17.093 1.76299V4.3471ZM5.82196 15.2116L8.01787 29.2566V22.8131C7.93415 21.2642 7.68539 19.5996 6.95013 17.807L5.82196 15.2116ZM16.9781 3.75192C17.1445 3.9994 17.0379 4.31207 16.7399 4.4503L16.1463 4.72575C15.8483 4.86397 15.4719 4.77541 15.3055 4.52794C15.1391 4.28046 15.2457 3.96779 15.5436 3.82956L16.1373 3.55411C16.4353 3.41588 16.8117 3.50444 16.9781 3.75192ZM15.2818 4.50941C15.4482 4.75688 15.3416 5.06956 15.0437 5.20778L14.45 5.48323C14.152 5.62146 13.7756 5.5329 13.6092 5.28542C13.4428 5.03795 13.5494 4.72527 13.8474 4.58705L14.4411 4.3116C14.739 4.17337 15.1154 4.26193 15.2818 4.50941ZM13.5855 5.2669C13.7519 5.51437 13.6453 5.82705 13.3474 5.96527L12.7537 6.24072C12.5176 6.35026 12.2322 6.31738 12.0411 6.17586C12.0939 6.39851 11.963 6.63143 11.7059 6.73579L11.0274 7.01124C10.7952 7.10552 10.5266 7.06783 10.3448 6.93335C10.395 7.14539 10.2791 7.36916 10.0396 7.48025L9.44595 7.7557C9.14802 7.89392 8.7716 7.80536 8.60519 7.55788C8.43879 7.31041 8.54541 6.99773 8.84334 6.85951L9.43703 6.58406C9.67313 6.47452 9.95851 6.5074 10.1496 6.64892C10.0969 6.42627 10.2277 6.19335 10.4848 6.08899L11.1633 5.81354C11.3955 5.71927 11.6641 5.75695 11.8459 5.89143C11.7958 5.67939 11.9116 5.45562 12.1511 5.34453L12.7448 5.06908C13.0427 4.93086 13.4191 5.01942 13.5855 5.2669ZM8.58152 7.53936C8.74792 7.78683 8.6413 8.09951 8.34337 8.23773L7.74968 8.51318C7.45175 8.65141 7.07533 8.56285 6.90892 8.31537C6.74251 8.0679 6.84913 7.75522 7.14706 7.617L7.74076 7.34155C8.03869 7.20332 8.41511 7.29188 8.58152 7.53936ZM6.88524 8.29684C7.05165 8.54432 6.94503 8.85699 6.6471 8.99522L6.0534 9.27067C5.75547 9.4089 5.37905 9.32034 5.21264 9.07286C5.04623 8.82538 5.15285 8.51271 5.45078 8.37448L6.04448 8.09903C6.34241 7.96081 6.71883 8.04937 6.88524 8.29684ZM20.3163 17.2645C20.5038 17.357 20.6187 17.5247 20.6187 17.7058V22.113C20.6187 22.3009 20.4951 22.4738 20.2965 22.5637L10.7125 26.9021C10.5211 26.9887 10.2888 26.9852 10.1013 26.8927C9.91387 26.8002 9.79896 26.6325 9.79896 26.4514V22.0442C9.79896 21.8563 9.92256 21.6834 10.1212 21.5935L19.7052 17.2552C19.8966 17.1685 20.1289 17.1721 20.3163 17.2645ZM11.0347 22.349V25.5872L19.3829 21.8082V18.5701L11.0347 22.349ZM20.5434 23.589C20.7067 23.8379 20.5961 24.1496 20.2965 24.2853L10.7125 28.6236C10.4129 28.7593 10.0376 28.6674 9.87429 28.4185C9.711 28.1696 9.82153 27.8579 10.1212 27.7223L19.7052 23.3839C20.0048 23.2483 20.3801 23.3401 20.5434 23.589ZM20.5453 25.0381C20.7066 25.2879 20.5936 25.5991 20.2929 25.733L10.7089 30.0025C10.4082 30.1365 10.0336 30.0426 9.87232 29.7928C9.71104 29.543 9.82409 29.2318 10.1248 29.0979L19.7088 24.8284C20.0095 24.6944 20.3841 24.7883 20.5453 25.0381ZM20.5434 26.4124C20.7067 26.6613 20.5961 26.973 20.2965 27.1086L10.7125 31.447C10.4129 31.5826 10.0376 31.4908 9.87429 31.2419C9.711 30.993 9.82153 30.6813 10.1212 30.5456L19.7052 26.2073C20.0048 26.0716 20.3801 26.1635 20.5434 26.4124ZM15.7099 30.0634C15.8723 30.3127 15.7606 30.6242 15.4605 30.7591L10.7109 32.8938C10.4108 33.0287 10.0358 32.936 9.87341 32.6867C9.71101 32.4374 9.82267 32.1259 10.1228 31.991L14.8724 29.8563C15.1725 29.7214 15.5475 29.8141 15.7099 30.0634Z" fill="url(#paint0_linear)"/>
<defs>
<linearGradient id="paint0_linear" x1="0.299805" y1="19.0487" x2="23.0774" y2="19.0487" gradientUnits="userSpaceOnUse">
<stop stop-color="#4FB8A3"/>
<stop offset="0.515625" stop-color="#49D29D"/>
<stop offset="1" stop-color="#5BD276"/>
</linearGradient>
</defs>
</svg>
