<svg width="43" height="35" viewBox="0 0 43 35" fill="none" xmlns="http://www.w3.org/2000/svg">
<g clip-path="url(#clip0)">
<path fill-rule="evenodd" clip-rule="evenodd" d="M24.3102 32.9611V34.6601L0.40625 20.7961V19.165L24.3102 32.9611ZM42.5937 22.4271V24.0582L24.3102 34.6601L42.5937 22.4271ZM40.4944 21.2038C41.1716 21.6116 41.9165 22.0194 42.5937 22.4271L24.3102 33.0291L0.40625 19.097C1.08342 18.6893 1.8283 18.2815 2.50546 17.8737L40.4944 21.2038ZM24.3102 28.8834V30.5825L0.40625 16.7184V15.0873L24.3102 28.8834ZM42.5937 18.3495V19.9805L24.3102 30.5825L42.5937 18.3495ZM40.6976 17.1941C41.307 17.5339 41.9842 17.9417 42.5937 18.2815L24.3102 28.8834L0.40625 15.0194C1.08342 14.6116 1.76058 14.2718 2.43775 13.864L40.6976 17.1941ZM24.3102 24.8058V26.5048L0.40625 12.6407V11.0097L24.3102 24.8058ZM42.5937 14.2718V15.9029L24.3102 26.5048L42.5937 14.2718ZM18.622 0.407715C26.6125 5.02907 34.6031 9.65043 42.5937 14.2718L24.3102 24.8737L0.40625 10.9417C8.3968 6.32034 10.6992 5.02907 18.622 0.407715Z" stroke="url(#paint0_linear)" stroke-miterlimit="22.9256" stroke-linejoin="round"/>
</g>
<defs>
<linearGradient id="paint0_linear" x1="0.40625" y1="17.5339" x2="43.8871" y2="17.5339" gradientUnits="userSpaceOnUse">
<stop stop-color="#4FB8A3"/>
<stop offset="0.515625" stop-color="#49D29D"/>
<stop offset="1" stop-color="#5BD276"/>
</linearGradient>
<clipPath id="clip0">
<rect width="43" height="35" fill="white"/>
</clipPath>
</defs>
</svg>
