<svg width="35" height="35" viewBox="0 0 35 35" fill="none" xmlns="http://www.w3.org/2000/svg">
<path d="M5.09114 18.484C5.09114 18.2062 5.13912 17.9313 5.23339 17.6699L8.97839 7.26758L8.47823 7.33871C7.90073 7.33871 2.83307 7.4183 2.83307 10.1613C2.83307 11.4873 3.35468 12.176 3.73743 12.635L3.6296 13.8205C3.54436 13.9057 3.45573 13.9893 3.36033 14.0762C2.87372 14.5165 2.26855 15.0652 2.26855 16.371C2.26855 18.3902 4.7338 19.6463 4.8388 19.6988L5.44735 19.7281C5.22549 19.364 5.09114 18.9412 5.09114 18.484Z" fill="url(#paint0_linear)"/>
<path d="M19.9979 15.1898L19.7117 14.8782C19.2296 14.3561 18.7751 13.8632 18.6103 13.3698C18.4285 12.8223 18.6752 12.2007 18.962 11.4804C19.3758 10.4394 19.8912 9.14387 19.1443 7.65073C17.8691 5.10137 13.1018 6.52678 12.3193 6.78137L16.2393 17.6698C16.3336 17.9311 16.3816 18.2061 16.3816 18.4838C16.3816 19.1962 16.0655 19.8296 15.5726 20.2694C15.8634 20.4748 16.1733 20.6419 16.5007 20.7537C16.8631 20.8779 17.2284 20.9378 17.5857 20.9378C18.6532 20.9378 19.649 20.4009 20.2909 19.4265C21.0338 18.3015 21.2302 16.5543 19.9979 15.1898Z" fill="url(#paint1_linear)"/>
<path d="M35 0H0V29.3548H7.91395V33.3064C7.91395 34.2402 8.67379 35 9.6075 35H11.8656C12.7993 35 13.5591 34.2402 13.5591 33.3064V29.3548H35V0ZM33.871 5.64516H27.0968V3.3871H25.9677V5.64516H18.0645V1.12903H25.9677V2.25806H27.0968V1.12903H33.871V5.64516ZM22.5806 22.5806V18.0645H29.9194V22.5806H22.5806ZM12.4301 22.5806V21.4516H13.9785C15.6145 21.4516 16.9462 20.1205 16.9462 18.484C16.9462 18.1402 16.8875 17.8015 16.7701 17.4785L12.8619 6.62065C14.101 6.28024 16.839 5.71065 18.3705 6.77476H21.4516V11.2909H19.0366C19.0118 11.3541 18.9864 11.4196 18.9621 11.4811C18.8294 11.8148 18.7069 12.1264 18.6302 12.4199H25.9677V16.936H20.8431C20.9029 17.3194 20.8939 17.7004 20.829 18.0651H21.4516V22.5812H12.4301V22.5806ZM12.5108 5.64516L12.0236 4.29202C11.8283 3.75065 11.3112 3.3871 10.7365 3.3871C10.1619 3.3871 9.64419 3.75065 9.45 4.29145L9.03226 5.45097V1.12903H16.9355V5.64516H12.5108ZM10.5119 4.67363C10.579 4.48508 10.8929 4.48508 10.9612 4.67363L15.7082 17.8607C15.7805 18.0606 15.8166 18.27 15.8166 18.4834C15.8166 19.4973 14.9919 20.322 13.978 20.322H12.4295V15.2414C12.4295 14.3077 11.6697 13.5478 10.736 13.5478C9.80226 13.5478 9.04242 14.3077 9.04242 15.2414V20.322H7.49395C6.48008 20.322 5.65532 19.4973 5.65532 18.4834C5.65532 18.27 5.69145 18.0606 5.76371 17.8602L10.5119 4.67363ZM10.172 15.2419C10.172 14.9309 10.4249 14.6774 10.7365 14.6774C11.0481 14.6774 11.301 14.9309 11.301 15.2419V18.629H11.2903V22.5806H10.172V15.2419ZM29.9194 6.77419V11.2903H22.5806V6.77419H29.9194ZM31.0484 18.0645H33.871V22.5806H31.0484V18.0645ZM27.0968 16.9355V12.4194H33.871V16.9355H27.0968ZM31.0484 11.2903V6.77419H33.871V11.2903H31.0484ZM1.12903 1.12903H7.90323V5.64516H1.12903V1.12903ZM2.53581 17.5H1.12903V12.4194H3.56492C3.3521 12.1416 3.13024 11.782 2.98685 11.2903H1.12903V6.77419H3.3871V8.80194C3.68403 8.48694 4.07468 8.23685 4.51613 8.04323V6.77419H8.55581L4.70242 17.478C4.58556 17.8015 4.52629 18.1396 4.52629 18.484C4.52629 20.1199 5.85742 21.4516 7.49395 21.4516H9.04242V22.5806H4.51613V19.5165C4.22992 19.3431 3.79863 19.0485 3.3871 18.6494V22.5806H1.12903V18.629H3.36621C3.04444 18.314 2.74185 17.9358 2.53581 17.5ZM1.12903 28.2258V23.7097H8.01782C7.9546 23.8869 7.91395 24.0755 7.91395 24.2742V28.2258H1.12903ZM12.4301 33.3064C12.4301 33.6181 12.1772 33.871 11.8656 33.871H9.6075C9.29589 33.871 9.04298 33.6181 9.04298 33.3064V24.2742C9.04298 23.9626 9.29589 23.7097 9.6075 23.7097H11.8656C12.1772 23.7097 12.4301 23.9626 12.4301 24.2742V33.3064ZM13.4547 23.7097H16.9355V24.8387H18.0645V23.7097H25.9677V28.2258H18.0645V25.9677H16.9355V28.2258H13.5591V24.2742C13.5591 24.0755 13.5179 23.8869 13.4547 23.7097ZM27.0968 28.2258V23.7097H33.871V28.2258H27.0968Z" fill="url(#paint2_linear)"/>
<defs>
<linearGradient id="paint0_linear" x1="2.26855" y1="13.4979" x2="9.18412" y2="13.4979" gradientUnits="userSpaceOnUse">
<stop stop-color="#4FB8A3"/>
<stop offset="0.515625" stop-color="#49D29D"/>
<stop offset="1" stop-color="#5BD276"/>
</linearGradient>
<linearGradient id="paint1_linear" x1="12.3193" y1="13.5463" x2="21.1482" y2="13.5463" gradientUnits="userSpaceOnUse">
<stop stop-color="#4FB8A3"/>
<stop offset="0.515625" stop-color="#49D29D"/>
<stop offset="1" stop-color="#5BD276"/>
</linearGradient>
<linearGradient id="paint2_linear" x1="2.6077e-07" y1="17.5" x2="36.0731" y2="17.5" gradientUnits="userSpaceOnUse">
<stop stop-color="#4FB8A3"/>
<stop offset="0.515625" stop-color="#49D29D"/>
<stop offset="1" stop-color="#5BD276"/>
</linearGradient>
</defs>
</svg>
