<svg width="44" height="35" viewBox="0 0 44 35" fill="none" xmlns="http://www.w3.org/2000/svg">
<path fill-rule="evenodd" clip-rule="evenodd" d="M19.6435 0.862113C19.2815 0.877714 18.8971 1.00305 18.4641 1.25347L18.4618 1.2548L2.33398 10.4566L24.1831 22.986L41.5138 13.05L20.7852 1.1758L20.7836 1.17486C20.3714 0.936488 20.0005 0.846723 19.6435 0.862113ZM40.6783 14.5676L24.9225 23.6007L27.7204 27.0352L32.2448 24.4559L40.6783 14.5676ZM30.5232 26.4745L27.9167 27.9604L26.1349 31.6197L30.5232 26.4745ZM24.7151 32.4696L27.0598 27.6543L24.7151 24.7762V32.4696ZM23.6955 23.7451L1.69481 11.1287C0.560547 14.4525 0.59403 17.8322 1.79526 21.1527L23.4599 33.4587C22.5056 30.2355 22.5841 26.9596 23.6955 23.7451ZM23.8634 34.7241L1.20186 21.8518C1.10964 21.7994 1.0389 21.7165 1.00201 21.6176C-0.37403 17.926 -0.383419 14.1469 0.973847 10.4542C0.974365 10.2937 1.06096 10.1456 1.20111 10.0656L18.0084 0.476152C18.0088 0.475923 18.0092 0.475695 18.0096 0.475466C18.5277 0.175993 19.0547 -0.0128503 19.6042 -0.0365374C20.1587 -0.0604424 20.6994 0.0854797 21.2385 0.39709C21.2387 0.397239 21.239 0.397389 21.2393 0.397539L42.6461 12.6602C42.6974 12.6896 42.7415 12.7282 42.7769 12.7732C42.795 12.7872 42.812 12.8025 42.8277 12.8189C42.8527 12.8452 42.8745 12.8744 42.8926 12.9059C42.9061 12.9293 42.9174 12.954 42.9265 12.9797C44.3085 16.6923 44.3083 20.4933 42.926 24.2059C42.9184 24.2272 42.9092 24.2478 42.8985 24.2676C42.8725 24.316 42.8377 24.3593 42.7959 24.3954C42.7727 24.4153 42.7475 24.433 42.7203 24.4481L24.4887 34.9007C24.298 35.01 24.0558 34.9673 23.9148 34.7994C23.8948 34.7757 23.8777 34.7504 23.8634 34.7241ZM42.9519 16.8494C43.0924 18.0104 43.0924 19.1737 42.9519 20.3347V16.8494ZM41.4259 15.0827L34.5549 23.1389L39.8857 20.0999L41.4259 15.0827ZM42.0463 16.1456L40.7706 20.3014L42.0463 22.4245V16.1456ZM40.1333 20.9959L41.8748 23.8943L26.2902 32.8292L32.8332 25.1575L40.1333 20.9959ZM23.8095 27.2263V30.7116C23.6691 29.5506 23.6691 28.3873 23.8095 27.2263ZM15.7902 5.19179C15.9303 5.11172 16.1027 5.11187 16.2427 5.19219L20.7622 7.78642C20.9024 7.86686 20.9886 8.01546 20.9885 8.17622C20.9883 8.33698 20.9018 8.48543 20.7615 8.56562L11.9603 13.5968C11.8202 13.6769 11.6478 13.6768 11.5079 13.5964L6.98829 11.0022C6.84816 10.9218 6.76191 10.7732 6.76205 10.6124C6.7622 10.4517 6.84871 10.3032 6.98899 10.223L15.7902 5.19179ZM8.12121 10.6136L11.7349 12.6879L19.6293 8.17502L16.0156 6.10077L8.12121 10.6136ZM23.8623 9.05288C23.9866 9.26842 23.9115 9.54323 23.6945 9.66667L14.021 15.1696C13.804 15.293 13.5273 15.2184 13.403 15.0028C13.2788 14.7873 13.3539 14.5125 13.5709 14.389L23.2444 8.88613C23.4614 8.76268 23.7381 8.83734 23.8623 9.05288ZM25.8446 10.1535C25.9689 10.369 25.8937 10.6438 25.6767 10.7673L16.0033 16.2702C15.7863 16.3936 15.5096 16.319 15.3853 16.1034C15.261 15.8879 15.3362 15.6131 15.5532 15.4896L25.2266 9.98671C25.4436 9.86327 25.7203 9.93792 25.8446 10.1535ZM27.7476 11.3327C27.8719 11.5482 27.7967 11.823 27.5797 11.9464L17.9062 17.4494C17.6892 17.5728 17.4126 17.4981 17.2883 17.2826C17.164 17.0671 17.2392 16.7923 17.4562 16.6688L27.1296 11.1659C27.3466 11.0425 27.6233 11.1171 27.7476 11.3327ZM29.7298 12.4332C29.8541 12.6488 29.779 12.9236 29.562 13.047L19.8885 18.5499C19.6715 18.6734 19.3948 18.5987 19.2705 18.3832C19.1463 18.1677 19.2214 17.8928 19.4384 17.7694L29.1119 12.2665C29.3289 12.143 29.6055 12.2177 29.7298 12.4332ZM31.7121 13.5338C31.8364 13.7494 31.7612 14.0242 31.5442 14.1476L21.8708 19.6505C21.6538 19.774 21.3771 19.6993 21.2528 19.4838C21.1285 19.2682 21.2037 18.9934 21.4207 18.87L31.0941 13.3671C31.3111 13.2436 31.5878 13.3183 31.7121 13.5338ZM2.33465 15.7919C2.47026 15.7247 2.6307 15.7294 2.76212 15.8043L15.4486 23.0367C15.5971 23.1213 15.6848 23.2819 15.6753 23.4517C15.5988 24.8177 15.7511 26.116 15.987 27.5192C16.0159 27.691 15.9422 27.864 15.798 27.9631C15.6537 28.0622 15.4648 28.0697 15.3131 27.9822L2.62664 20.6712C2.52436 20.6123 2.44935 20.5159 2.41765 20.4028C2.0048 18.9292 1.92154 17.4542 2.08742 16.1385C2.10625 15.9891 2.19904 15.859 2.33465 15.7919ZM2.92564 16.9346C2.87605 17.9001 2.9698 18.9408 3.24267 19.9863L14.9482 26.732C14.806 25.7213 14.7216 24.7215 14.7584 23.6803L2.92564 16.9346Z" fill="url(#paint0_linear)"/>
<defs>
<linearGradient id="paint0_linear" x1="-0.037109" y1="17.4609" x2="45.3119" y2="17.4609" gradientUnits="userSpaceOnUse">
<stop stop-color="#4FB8A3"/>
<stop offset="0.515625" stop-color="#49D29D"/>
<stop offset="1" stop-color="#5BD276"/>
</linearGradient>
</defs>
</svg>
