<svg width="14" height="14" viewBox="0 0 14 14" fill="none" xmlns="http://www.w3.org/2000/svg">
<path d="M5.125 3.78125C5.64583 3.26042 6.27083 3 7 3C7.72917 3 8.35417 3.26042 8.875 3.78125C9.39583 4.30208 9.65625 4.92708 9.65625 5.65625C9.65625 6.21875 9.32292 6.80208 8.65625 7.40625C7.98958 7.98958 7.65625 8.52083 7.65625 9H6.34375C6.34375 8.52083 6.44792 8.11458 6.65625 7.78125C6.86458 7.42708 7.09375 7.17708 7.34375 7.03125C7.59375 6.86458 7.82292 6.66667 8.03125 6.4375C8.23958 6.20833 8.34375 5.94792 8.34375 5.65625C8.34375 5.30208 8.20833 5 7.9375 4.75C7.66667 4.47917 7.35417 4.34375 7 4.34375C6.64583 4.34375 6.33333 4.47917 6.0625 4.75C5.79167 5 5.65625 5.30208 5.65625 5.65625H4.34375C4.34375 4.92708 4.60417 4.30208 5.125 3.78125ZM3.21875 10.7812C4.28125 11.8229 5.54167 12.3438 7 12.3438C8.45833 12.3438 9.70833 11.8229 10.75 10.7812C11.8125 9.71875 12.3438 8.45833 12.3438 7C12.3438 5.54167 11.8125 4.29167 10.75 3.25C9.70833 2.1875 8.45833 1.65625 7 1.65625C5.54167 1.65625 4.28125 2.1875 3.21875 3.25C2.17708 4.29167 1.65625 5.54167 1.65625 7C1.65625 8.45833 2.17708 9.71875 3.21875 10.7812ZM2.28125 2.3125C3.59375 1 5.16667 0.34375 7 0.34375C8.83333 0.34375 10.3958 1 11.6875 2.3125C13 3.60417 13.6562 5.16667 13.6562 7C13.6562 8.83333 13 10.4062 11.6875 11.7188C10.3958 13.0104 8.83333 13.6562 7 13.6562C5.16667 13.6562 3.59375 13.0104 2.28125 11.7188C0.989583 10.4062 0.34375 8.83333 0.34375 7C0.34375 5.16667 0.989583 3.60417 2.28125 2.3125ZM6.34375 11V9.65625H7.65625V11H6.34375Z" fill="#282828"/>
</svg>
